<?xml version="1.0" encoding="utf-8"?>
<!-- Generator: Adobe Illustrator 25.4.1, SVG Export Plug-In . SVG Version: 6.00 Build 0)  -->
<svg version="1.1" id="FINAL_EXPORT_inverted_" xmlns="http://www.w3.org/2000/svg" xmlns:xlink="http://www.w3.org/1999/xlink"
	 x="0px" y="0px" viewBox="0 0 507.6 187" style="enable-background:new 0 0 507.6 187;" xml:space="preserve">
<style type="text/css">
	.st0{fill:#FFFFFF;}
	.st1{fill:none;stroke:#FFFFFF;stroke-width:3.49;}
	.st2{fill:none;stroke:#FFFFFF;stroke-width:10;}
	.st3{fill:none;stroke:#FFFFFF;stroke-width:6;stroke-miterlimit:10;}
	.st4{fill:#FFFFFF;stroke:#252525;stroke-width:7;}
	.st5{fill:#FFFFFF;stroke:#252525;stroke-width:2.62;stroke-miterlimit:10;}
	.st6{fill:none;stroke:#FFFFFF;stroke-width:2;}
	.st7{fill:#252525;}
	.st8{fill:none;stroke:#252525;stroke-width:7;}
</style>
<g id="Digital_Logo_2021_inverted_">
	<g id="Title">
		<path class="st0" d="M199.1,77h12.7c2.9,0.2,5.6-0.9,7.7-2.9c1-1.1,1.6-2.5,1.9-3.9c0.4-1.4,0.6-2.8,0.6-4.3
			c0-1.1,0.1-2.9,0.1-5.2c0-2.3,0-3.9-0.1-5c-0.1-1.3-0.3-2.6-0.6-3.9c-0.3-1.4-0.9-2.6-1.9-3.7c-2.1-2-4.8-3-7.7-2.9h-12.7v-3.7
			h13.4c4.2,0,7.5,1.2,9.9,3.6c0.8,0.8,1.5,1.8,2,2.8c0.4,0.9,0.8,1.8,1.2,2.8c0.3,1.1,0.5,2.3,0.6,3.5c0.1,1.6,0.2,2.6,0.2,3v3.5
			c0.1,3.5-0.1,7-0.7,10.4c-0.5,2.2-1.6,4.3-3.1,6c-2.4,2.4-5.7,3.6-9.9,3.6h-13.4V77z"/>
		<path class="st0" d="M240.3,80.7h-4.2V41.6h4.2V80.7z"/>
		<path class="st0" d="M277.7,66.4c0,4.4-1.1,7.7-3.4,10.1c-5.4,5.8-14.5,6-20.3,0.6c-0.1-0.1-0.1-0.1-0.2-0.2
			c-1.6-1.5-2.7-3.4-3.1-5.6c-0.5-3.4-0.7-6.8-0.6-10.3c-0.1-3.4,0.1-6.9,0.6-10.3c0.4-2.1,1.5-4.1,3.1-5.6c2.6-2.7,6.2-4.1,10-4.1
			c3.3-0.1,6.6,1,9.1,3.2c2.5,2.2,4.1,5.2,4.5,8.5h-4.1c-0.4-2.3-1.6-4.3-3.4-5.9c-1.7-1.4-3.9-2.2-6.1-2.1c-2.5-0.1-5,1-6.8,2.8
			c-1.2,1.2-2,2.7-2.3,4.4c-0.4,3-0.6,6-0.5,9c-0.1,3,0.1,6,0.5,9c0.3,1.7,1.1,3.2,2.3,4.4c1.8,1.8,4.2,2.8,6.8,2.8
			c2.9,0.1,5.6-1.1,7.4-3.3c1.6-2,2.3-4.5,2.2-7.1v-3h-9.6v-3.7h13.8V66.4z"/>
		<path class="st0" d="M291.6,80.7h-4.2V41.6h4.2V80.7z"/>
		<path class="st0" d="M325.8,45.3h-11.3v35.4h-4.2V45.3h-11.3v-3.7h26.8V45.3z"/>
		<path class="st0" d="M357,80.7h-4.4l-3.1-8.9h-17.1l-3.1,8.9h-4.5l14.4-39.2h3.5L357,80.7z M348.2,68.2L341,47.5l-7.4,20.7
			L348.2,68.2z"/>
		<path class="st0" d="M387.6,80.7h-24.2V41.6h4.2V77h20L387.6,80.7z"/>
		<path class="st0" d="M228.1,144.7h-4l-20.8-31.4v31.4h-4.2v-39.2h4l20.8,31.3v-31.3h4.2L228.1,144.7z"/>
		<path class="st0" d="M266.2,131.8c0.1,3.6-1.3,7.1-3.9,9.6c-5.6,4.9-14,4.9-19.6,0c-2.6-2.5-4-6-3.9-9.6v-26.2h4.1v25.9
			c-0.1,2.6,0.8,5.2,2.6,7.1c3.9,3.6,9.9,3.6,13.8,0c1.8-1.9,2.7-4.5,2.6-7.1v-25.9h4.2L266.2,131.8z"/>
		<path class="st0" d="M310.5,144.7h-4.2V115l-10.7,23.6H292L281.1,115v29.8H277v-39.2h4.2l12.8,27.8l12.4-27.8h4.2L310.5,144.7z"/>
		<path class="st0" d="M321.9,105.6h24.3v3.7h-24.3V105.6z M321.9,123.1h21.3v3.7h-21.3V123.1z M321.9,141h24.3v3.7h-24.3V141z"/>
		<path class="st0" d="M354.9,123.7h14.6c2.1,0.1,4.1-0.5,5.7-1.8c2.8-3,2.8-7.7,0-10.6c-1.6-1.3-3.6-2-5.7-1.9h-14.7v-3.7h15
			c3.1-0.1,6.1,0.9,8.4,2.9c2.2,2.1,3.4,5,3.2,8c0.1,2.5-0.7,5-2.3,6.9c-1.6,1.9-3.7,3.1-6.1,3.6l9.3,17.8h-4.9l-8.9-17.4H359v17.4
			h-4.2L354.9,123.7z"/>
		<path class="st0" d="M395.1,144.7h-4.2v-39.2h4.2V144.7z"/>
		<path class="st0" d="M433.9,144.1l-2.5,2.5l-4.3-4.3c-2.4,1.8-5.4,2.8-8.4,2.8c-3.8,0.1-7.4-1.4-10-4.1c-1.6-1.5-2.7-3.4-3.1-5.6
			c-0.5-3.4-0.7-6.8-0.6-10.3c-0.1-3.4,0.1-6.9,0.6-10.3c0.4-2.1,1.5-4.1,3.1-5.6c5.6-5.4,14.4-5.4,20,0c1.6,1.5,2.7,3.4,3.1,5.6
			c0.5,3.4,0.7,6.8,0.6,10.3c0,3,0,5.2-0.1,6.6c-0.1,1.4-0.3,2.9-0.7,4.3c-0.3,1.4-1,2.7-1.9,3.9L433.9,144.1z M428.2,125.1
			c0.1-3-0.1-6-0.5-9c-0.3-1.7-1.1-3.2-2.2-4.4c-3.7-3.7-9.8-3.7-13.5,0c-1.2,1.2-2,2.7-2.3,4.4c-0.4,3-0.6,6-0.5,9
			c-0.1,3,0.1,6,0.5,9c0.3,1.6,1.1,3.2,2.3,4.4c3.3,3.4,8.6,3.8,12.3,0.9l-5-4.9l2.5-2.5l4.8,4.8c0.7-1.3,1.2-2.6,1.3-4.1
			C428.1,130.2,428.2,127.6,428.2,125.1L428.2,125.1z"/>
		<path class="st0" d="M468.9,131.8c0.1,3.6-1.3,7.1-3.9,9.6c-5.6,4.9-14,4.9-19.6,0c-2.6-2.5-4-6-3.9-9.6v-26.2h4.2v25.9
			c-0.1,2.6,0.8,5.2,2.6,7.1c3.9,3.6,9.9,3.6,13.8,0c1.8-1.9,2.7-4.5,2.6-7.1v-25.9h4.2L468.9,131.8z"/>
		<path class="st0" d="M479.7,105.6H504v3.7h-24.3V105.6z M479.7,123.1H501v3.7h-21.3V123.1z M479.7,141H504v3.7h-24.3V141z"/>
		<line id="accent" class="st1" x1="332.1" y1="100.1" x2="340.9" y2="95.6"/>
	</g>
	<g id="Brand_identity">
		<g id="Outer_hex">
			<g id="white_outline">
				<polygon id="Outside" class="st2" points="82.3,9.5 9.5,51.5 9.5,135.5 82.3,177.5 155,135.5 155,51.5 				"/>
				<circle class="st3" cx="82.3" cy="9.5" r="6.5"/>
				<circle class="st3" cx="155" cy="51.5" r="6.5"/>
				<circle class="st3" cx="155" cy="135.5" r="6.5"/>
				<circle class="st3" cx="82.3" cy="177.5" r="6.5"/>
				<circle class="st3" cx="9.5" cy="135.5" r="6.5"/>
				<circle class="st3" cx="9.5" cy="51.5" r="6.5"/>
			</g>
			<polygon id="Outside-2" class="st4" points="82.3,9.5 9.5,51.5 9.5,135.5 82.3,177.5 155,135.5 155,51.5 			"/>
			<circle class="st5" cx="82.3" cy="9.5" r="6.5"/>
			<circle class="st5" cx="155" cy="51.5" r="6.5"/>
			<circle class="st5" cx="155" cy="135.5" r="6.5"/>
			<circle class="st5" cx="82.3" cy="177.5" r="6.5"/>
			<circle class="st5" cx="9.5" cy="135.5" r="6.5"/>
			<circle class="st5" cx="9.5" cy="51.5" r="6.5"/>
			<polygon id="Inside" class="st6" points="82.3,9.5 9.5,51.5 9.5,135.5 82.3,177.5 155,135.5 155,51.5 			"/>
		</g>
		<polygon id="Inner_hex" class="st7" points="82.3,48.9 43.7,71.2 43.7,115.8 82.3,138 120.8,115.8 120.8,71.2 		"/>
		<g id="Front_connectors">
			<g id="Outside-3">
				<line class="st8" x1="149.3" y1="54.8" x2="82.3" y2="93.4"/>
				<line class="st8" x1="15.1" y1="54.7" x2="82.3" y2="93.4"/>
				<line class="st8" x1="82.3" y1="171" x2="82.3" y2="93.4"/>
			</g>
			<circle id="Central_node" class="st5" cx="82.3" cy="93.4" r="6.5"/>
			<g id="Inside-2">
				<line class="st6" x1="155" y1="51.5" x2="82.3" y2="93.4"/>
				<line class="st6" x1="9.5" y1="51.5" x2="82.3" y2="93.4"/>
				<line class="st6" x1="82.3" y1="177.5" x2="82.3" y2="93.4"/>
			</g>
		</g>
	</g>
</g>
</svg>
