<svg xmlns="http://www.w3.org/2000/svg" width="293.479" height="28" viewBox="0 0 293.479 28">
    <defs>
        <style>.gocWordFront{fill:rgba(0,0,0,0.87);}.gocFlagFront{fill:#ed1c24;}</style>
    </defs>
    <g transform="translate(79.693)">
        <path class="gocWordFront" d="M219.471,7.605h4.839v6.183h-.949l-.347-1.423a5.414,5.414,0,0,1-4.064,1.723,5.712,5.712,0,0,1-3.131-1.106A6.43,6.43,0,0,1,213.794,8.1a6.556,6.556,0,0,1,2.024-4.9,6.054,6.054,0,0,1,3.542-1.186,4.978,4.978,0,0,1,2.467.459,4.036,4.036,0,0,1,2.34,3.211h-1.454c-.079-.965-1.218-2.34-3.352-2.34a3.894,3.894,0,0,0-2.8,1.106A5.293,5.293,0,0,0,215.3,8.08a5.278,5.278,0,0,0,1.265,3.62,3.888,3.888,0,0,0,2.8,1.108,3.552,3.552,0,0,0,2.024-.554,3.383,3.383,0,0,0,1.6-3.319h-3.511Z" transform="translate(-213.668 -2)"/>
        <path class="gocWordFront" d="M249.722,19.324c-1.518,0-3.747-.758-3.747-4.458s2.229-4.444,3.747-4.444,3.748.743,3.748,4.444S251.24,19.324,249.722,19.324Zm0-7.573c-1.739,0-2.387,1.755-2.387,3.115s.648,3.13,2.387,3.13c1.756,0,2.388-1.77,2.388-3.13S251.478,11.75,249.722,11.75Z" transform="translate(-233.672 -7.235)"/>
        <path class="gocWordFront" d="M271.032,19.351l-2.909-8.3h1.486l2.15,6.72,2.4-6.72h1.487l-3.179,8.3Z" transform="translate(-247.44 -7.625)"/>
        <path class="gocWordFront" d="M291.694,15.32a2.524,2.524,0,0,0,.458,1.8,2.249,2.249,0,0,0,4.079-.713h1.344a3.384,3.384,0,0,1-.742,1.661,3.46,3.46,0,0,1-2.8,1.232,3.7,3.7,0,0,1-2.926-1.328,5.241,5.241,0,0,1-.839-3.13,4.99,4.99,0,0,1,1.028-3.194A3.61,3.61,0,0,1,294.35,10.4a3.567,3.567,0,0,1,2.467,1.186,5.444,5.444,0,0,1,.933,3.731Zm4.617-1.169a3.334,3.334,0,0,0-.6-1.929,1.832,1.832,0,0,0-1.439-.728,1.972,1.972,0,0,0-1.818.728,3.567,3.567,0,0,0-.712,1.929Z" transform="translate(-261.207 -7.216)"/>
        <path class="gocWordFront" d="M314.72,10.659h1.328v1.3h.032a2.648,2.648,0,0,1,1.881-1.534h.743v1.392a3.794,3.794,0,0,0-1.265.19c-.933.427-1.392,1.2-1.392,2.64v4.317H314.72Z" transform="translate(-276.406 -7.235)"/>
        <path class="gocWordFront" d="M330,10.656V11.7h.031a2.607,2.607,0,0,1,.918-.9,2.733,2.733,0,0,1,1.644-.38,4.292,4.292,0,0,1,1.36.222,2.278,2.278,0,0,1,1.313,1.865v6.452h-1.329V13.187a1.511,1.511,0,0,0-1.66-1.566c-1.107,0-2.308.7-2.277,2.926v4.412h-1.329v-8.3Z" transform="translate(-285.081 -7.232)"/>
        <path class="gocWordFront" d="M351.956,10.655h1.328v1.059h.032a2.579,2.579,0,0,1,.839-.964,3.339,3.339,0,0,1,1.565-.332,2.1,2.1,0,0,1,1.376.316,2.791,2.791,0,0,1,.869.933,3.033,3.033,0,0,1,1.123-1.027,3.249,3.249,0,0,1,1.218-.222,3.114,3.114,0,0,1,1.534.252,2.223,2.223,0,0,1,1.059,1.8v6.483H361.57v-5.93a1.44,1.44,0,0,0-1.6-1.408,1.826,1.826,0,0,0-1.881,1.708v5.629h-1.328V12.995a1.409,1.409,0,0,0-1.534-1.376,2.017,2.017,0,0,0-1.945,1.993v5.345h-1.328Z" transform="translate(-299.552 -7.231)"/>
        <path class="gocWordFront" d="M386.893,15.32a2.528,2.528,0,0,0,.459,1.8,2.25,2.25,0,0,0,4.08-.713h1.343a3.385,3.385,0,0,1-.743,1.661,3.46,3.46,0,0,1-2.8,1.232,3.7,3.7,0,0,1-2.926-1.328,5.235,5.235,0,0,1-.838-3.13,4.99,4.99,0,0,1,1.028-3.194,3.608,3.608,0,0,1,3.051-1.249,3.565,3.565,0,0,1,2.467,1.186,5.441,5.441,0,0,1,.933,3.731Zm4.617-1.169a3.337,3.337,0,0,0-.6-1.929,1.833,1.833,0,0,0-1.439-.728,1.972,1.972,0,0,0-1.818.728,3.567,3.567,0,0,0-.712,1.929Z" transform="translate(-320.385 -7.216)"/>
        <path class="gocWordFront" d="M411.289,10.656V11.7h.032a2.613,2.613,0,0,1,.917-.9,2.735,2.735,0,0,1,1.644-.38,4.288,4.288,0,0,1,1.36.222,2.275,2.275,0,0,1,1.313,1.865v6.452h-1.328V13.187a1.512,1.512,0,0,0-1.661-1.566c-1.106,0-2.308.7-2.277,2.926v4.412h-1.328v-8.3Z" transform="translate(-335.61 -7.232)"/>
        <path class="gocWordFront" d="M433.338,7.36h1.313V8.578h-1.313v5.756c0,.522.57.552,1.313.428v1.169a4.984,4.984,0,0,1-1.44.094,1.277,1.277,0,0,1-1.2-1.169V8.578h-1.155V7.36h1.155V5.115h1.328Z" transform="translate(-348.598 -3.936)"/>
        <path class="gocWordFront" d="M217.208,61.116c-1.518,0-3.748-.758-3.748-4.458s2.23-4.443,3.748-4.443,3.748.741,3.748,4.443S218.726,61.116,217.208,61.116Zm0-7.572c-1.74,0-2.387,1.754-2.387,3.114s.647,3.13,2.387,3.13c1.755,0,2.387-1.77,2.387-3.13S218.963,53.543,217.208,53.543Z" transform="translate(-213.46 -33.215)"/>
        <path class="gocWordFront" d="M237.067,48.664h-1.124V47.446h1.124V46.039a1.848,1.848,0,0,1,1.328-1.819,3.513,3.513,0,0,1,1.344.016v1.108c-.838-.095-1.344,0-1.344.884v1.219h1.328v1.218h-1.328v7.083h-1.328Z" transform="translate(-227.436 -28.209)"/>
        <path class="gocWordFront" d="M268.625,47.559a3.157,3.157,0,0,0-3.083-2.418,3.249,3.249,0,0,0-2.483,1.106,6.429,6.429,0,0,0,0,7.211,3.25,3.25,0,0,0,2.483,1.106c1.692,0,2.736-1.06,3.321-3.257h1.518c-.49,2.641-2.293,4.617-4.919,4.585a5.1,5.1,0,0,1-3.194-1.186,6.686,6.686,0,0,1-1.833-4.853A6.825,6.825,0,0,1,262.268,45a5.12,5.12,0,0,1,3.194-1.186c2.435-.032,4.016,1.407,4.7,3.748Z" transform="translate(-242.66 -27.99)"/>
        <path class="gocWordFront" d="M297.2,59.488a.614.614,0,0,0,.633.49.66.66,0,0,0,.3-.048v1.044a3.193,3.193,0,0,1-1.028.142,1.41,1.41,0,0,1-1.234-1.2,4.559,4.559,0,0,1-2.641,1.2c-1.85,0-3-.964-2.894-2.593a2.213,2.213,0,0,1,1.74-2.167,22.825,22.825,0,0,1,3.068-.49c.174-.033.664-.19.664-.633v-.981c-.111-.583-1.265-.852-2.15-.852a1.5,1.5,0,0,0-1.692,1.532h-1.249l.047-.726a2.5,2.5,0,0,1,1.376-1.629,3.763,3.763,0,0,1,1.708-.363,5.793,5.793,0,0,1,1.423.142c1.044.236,1.9.776,1.929,1.6Zm-1.375-2.8c-1.076.426-2.562.4-3.337.741a1.394,1.394,0,0,0-.791,1.124,1.334,1.334,0,0,0,1.455,1.422,2.685,2.685,0,0,0,2.672-1.629Z" transform="translate(-261.247 -33.215)"/>
        <path class="gocWordFront" d="M316.089,52.448v1.044h.031a2.612,2.612,0,0,1,.918-.9,2.722,2.722,0,0,1,1.643-.378,4.336,4.336,0,0,1,1.361.221,2.279,2.279,0,0,1,1.313,1.866V60.75h-1.329V54.979a1.51,1.51,0,0,0-1.66-1.566c-1.108,0-2.309.7-2.277,2.925V60.75H314.76v-8.3Z" transform="translate(-276.43 -33.212)"/>
        <path class="gocWordFront" d="M343.677,59.488a.614.614,0,0,0,.633.49.661.661,0,0,0,.3-.048v1.044a3.19,3.19,0,0,1-1.028.142,1.408,1.408,0,0,1-1.233-1.2,4.561,4.561,0,0,1-2.641,1.2c-1.85,0-3-.964-2.893-2.593a2.211,2.211,0,0,1,1.739-2.167,22.8,22.8,0,0,1,3.068-.49c.174-.033.664-.19.664-.633v-.981c-.11-.583-1.265-.852-2.15-.852a1.5,1.5,0,0,0-1.692,1.532h-1.249l.048-.726a2.5,2.5,0,0,1,1.376-1.629,3.758,3.758,0,0,1,1.707-.363,5.793,5.793,0,0,1,1.423.142c1.044.236,1.9.776,1.929,1.6Zm-1.375-2.8c-1.075.426-2.561.4-3.337.741a1.394,1.394,0,0,0-.79,1.124,1.333,1.333,0,0,0,1.454,1.422,2.685,2.685,0,0,0,2.672-1.629Z" transform="translate(-290.136 -33.215)"/>
        <path class="gocWordFront" d="M366.814,44.314V55.857h-1.154v-.965a4.828,4.828,0,0,1-1.138,1,2.8,2.8,0,0,1-1.424.315,4.1,4.1,0,0,1-1.66-.33,4.271,4.271,0,0,1-2.008-3.59,5.125,5.125,0,0,1,1.059-3.905,3.215,3.215,0,0,1,2.435-1.075,3.454,3.454,0,0,1,1.8.505,1.866,1.866,0,0,1,.727.743h.032V44.314Zm-3.478,10.643a2.015,2.015,0,0,0,1.6-.9,4.729,4.729,0,0,0-.079-4.6,2.09,2.09,0,0,0-1.644-.79,2,2,0,0,0-1.74.806A4.658,4.658,0,0,0,361.6,54.2,1.967,1.967,0,0,0,363.335,54.957Z" transform="translate(-304.18 -28.303)"/>
        <path class="gocWordFront" d="M390.149,59.488a.613.613,0,0,0,.632.49.659.659,0,0,0,.3-.048v1.044a3.185,3.185,0,0,1-1.028.142,1.41,1.41,0,0,1-1.233-1.2,4.558,4.558,0,0,1-2.641,1.2c-1.85,0-3-.964-2.893-2.593a2.212,2.212,0,0,1,1.739-2.167,22.812,22.812,0,0,1,3.068-.49c.174-.033.664-.19.664-.633v-.981c-.112-.583-1.265-.852-2.151-.852a1.5,1.5,0,0,0-1.692,1.532h-1.249l.048-.726a2.5,2.5,0,0,1,1.375-1.629,3.759,3.759,0,0,1,1.708-.363,5.783,5.783,0,0,1,1.423.142c1.044.236,1.9.776,1.93,1.6Zm-1.376-2.8c-1.075.426-2.562.4-3.337.741a1.392,1.392,0,0,0-.79,1.124,1.333,1.333,0,0,0,1.454,1.422,2.685,2.685,0,0,0,2.672-1.629Z" transform="translate(-319.024 -33.215)"/>
    </g>
    <g transform="translate(189.687 0.097)">
        <path class="gocWordFront" d="M510.582,7.863h4.838v6.183h-.949l-.347-1.422a5.416,5.416,0,0,1-4.064,1.723,5.711,5.711,0,0,1-3.131-1.109,6.425,6.425,0,0,1-2.024-4.885,6.557,6.557,0,0,1,2.024-4.9,6.05,6.05,0,0,1,3.542-1.186,4.975,4.975,0,0,1,2.467.459,4.035,4.035,0,0,1,2.34,3.21h-1.454c-.079-.965-1.217-2.34-3.352-2.34a3.893,3.893,0,0,0-2.8,1.106,5.292,5.292,0,0,0-1.265,3.637,5.279,5.279,0,0,0,1.265,3.622,3.9,3.9,0,0,0,2.8,1.106,3.563,3.563,0,0,0,2.023-.553,3.384,3.384,0,0,0,1.6-3.321h-3.51Z" transform="translate(-504.623 -2.257)"/>
        <path class="gocWordFront" d="M540.832,19.583c-1.518,0-3.747-.759-3.747-4.46s2.229-4.443,3.747-4.443,3.748.743,3.748,4.443S542.351,19.583,540.832,19.583Zm0-7.575c-1.738,0-2.387,1.755-2.387,3.115s.649,3.132,2.387,3.132c1.756,0,2.388-1.773,2.388-3.132S542.588,12.008,540.832,12.008Z" transform="translate(-524.627 -7.493)"/>
        <path class="gocWordFront" d="M566.8,19.608v-.887h-.031a2.605,2.605,0,0,1-.917.9,3.493,3.493,0,0,1-1.676.348,3.905,3.905,0,0,1-1.329-.191,2.588,2.588,0,0,1-1.312-1.866V11.306h1.329v5.866a1.426,1.426,0,0,0,.632,1.328,1.569,1.569,0,0,0,.744.221,2.437,2.437,0,0,0,.932-.094,2.585,2.585,0,0,0,1.629-2.816V11.306h1.329v8.3Z" transform="translate(-539.823 -7.882)"/>
        <path class="gocWordFront" d="M585.379,19.608l-2.909-8.3h1.486l2.151,6.72,2.4-6.72H590l-3.178,8.3Z" transform="translate(-552.839 -7.882)"/>
        <path class="gocWordFront" d="M606.041,15.578a2.526,2.526,0,0,0,.458,1.8,2.249,2.249,0,0,0,4.08-.711h1.344a3.389,3.389,0,0,1-.743,1.661,3.456,3.456,0,0,1-2.8,1.234,3.7,3.7,0,0,1-2.925-1.328,5.25,5.25,0,0,1-.838-3.132,4.988,4.988,0,0,1,1.028-3.194,3.608,3.608,0,0,1,3.052-1.249,3.567,3.567,0,0,1,2.467,1.186,5.443,5.443,0,0,1,.933,3.731Zm4.617-1.169a3.335,3.335,0,0,0-.6-1.93,1.829,1.829,0,0,0-1.439-.727,1.973,1.973,0,0,0-1.818.727,3.57,3.57,0,0,0-.712,1.93Z" transform="translate(-566.606 -7.473)"/>
        <path class="gocWordFront" d="M629.066,10.917h1.328v1.3h.031a2.648,2.648,0,0,1,1.883-1.533h.742v1.391a3.785,3.785,0,0,0-1.265.19c-.933.427-1.392,1.2-1.392,2.64v4.318h-1.328Z" transform="translate(-581.804 -7.493)"/>
        <path class="gocWordFront" d="M644.352,10.914v1.044h.031a2.6,2.6,0,0,1,.916-.9,2.734,2.734,0,0,1,1.644-.379,4.29,4.29,0,0,1,1.361.222,2.278,2.278,0,0,1,1.312,1.865v6.451h-1.328V13.444a1.511,1.511,0,0,0-1.66-1.566c-1.108,0-2.309.7-2.277,2.925v4.412h-1.329v-8.3Z" transform="translate(-590.48 -7.49)"/>
        <path class="gocWordFront" d="M666.429,15.578a2.532,2.532,0,0,0,.459,1.8,2.249,2.249,0,0,0,4.08-.711h1.344a3.4,3.4,0,0,1-.743,1.661,3.457,3.457,0,0,1-2.8,1.234,3.7,3.7,0,0,1-2.925-1.328,5.239,5.239,0,0,1-.838-3.132,4.984,4.984,0,0,1,1.028-3.194,3.608,3.608,0,0,1,3.052-1.249,3.569,3.569,0,0,1,2.467,1.186,5.446,5.446,0,0,1,.933,3.731Zm4.617-1.169a3.332,3.332,0,0,0-.6-1.93,1.831,1.831,0,0,0-1.439-.727,1.973,1.973,0,0,0-1.818.727,3.57,3.57,0,0,0-.712,1.93Z" transform="translate(-604.145 -7.473)"/>
        <path class="gocWordFront" d="M689.538,10.912h1.328v1.059h.032a2.583,2.583,0,0,1,.838-.964,3.344,3.344,0,0,1,1.566-.332,2.1,2.1,0,0,1,1.376.316,2.792,2.792,0,0,1,.869.933,3.033,3.033,0,0,1,1.123-1.027,3.247,3.247,0,0,1,1.217-.222,3.108,3.108,0,0,1,1.534.252,2.222,2.222,0,0,1,1.059,1.8v6.483h-1.329v-5.93a1.439,1.439,0,0,0-1.6-1.408,1.826,1.826,0,0,0-1.881,1.708v5.629h-1.329V13.252a1.408,1.408,0,0,0-1.533-1.376,2.016,2.016,0,0,0-1.945,1.993v5.344h-1.328Z" transform="translate(-619.395 -7.488)"/>
        <path class="gocWordFront" d="M724.476,15.578a2.527,2.527,0,0,0,.458,1.8,2.249,2.249,0,0,0,4.08-.711h1.344a3.392,3.392,0,0,1-.743,1.661,3.456,3.456,0,0,1-2.8,1.234,3.7,3.7,0,0,1-2.926-1.328,5.247,5.247,0,0,1-.838-3.132,4.993,4.993,0,0,1,1.028-3.194,3.607,3.607,0,0,1,3.051-1.249,3.567,3.567,0,0,1,2.467,1.186,5.443,5.443,0,0,1,.933,3.731Zm4.617-1.169a3.33,3.33,0,0,0-.6-1.93,1.829,1.829,0,0,0-1.438-.727,1.974,1.974,0,0,0-1.819.727,3.568,3.568,0,0,0-.711,1.93Z" transform="translate(-640.228 -7.473)"/>
        <path class="gocWordFront" d="M748.872,10.914v1.044h.032a2.607,2.607,0,0,1,.917-.9,2.732,2.732,0,0,1,1.645-.379,4.282,4.282,0,0,1,1.359.222,2.277,2.277,0,0,1,1.313,1.865v6.451h-1.329V13.444a1.511,1.511,0,0,0-1.66-1.566c-1.107,0-2.308.7-2.277,2.925v4.412h-1.328v-8.3Z" transform="translate(-655.453 -7.49)"/>
        <path class="gocWordFront" d="M770.921,7.617h1.313V8.835h-1.313v5.756c0,.522.569.553,1.313.426v1.171a5,5,0,0,1-1.439.1,1.28,1.28,0,0,1-1.2-1.17V8.835h-1.154V7.617h1.154V5.372h1.328Z" transform="translate(-668.441 -4.193)"/>
        <path class="gocWordFront" d="M511.574,44.571V56.114h-1.154V55.15a4.878,4.878,0,0,1-1.139.995,2.781,2.781,0,0,1-1.423.317,4.088,4.088,0,0,1-1.661-.333,4.268,4.268,0,0,1-2.008-3.589,5.132,5.132,0,0,1,1.06-3.907,3.226,3.226,0,0,1,2.434-1.075,3.444,3.444,0,0,1,1.8.507,1.861,1.861,0,0,1,.727.744h.032V44.571Zm-3.479,10.641a2.006,2.006,0,0,0,1.6-.9,4.732,4.732,0,0,0-.079-4.6,2.1,2.1,0,0,0-1.645-.79,2,2,0,0,0-1.74.807,4.656,4.656,0,0,0,.127,4.727A1.952,1.952,0,0,0,508.095,55.212Z" transform="translate(-504.159 -28.56)"/>
        <path class="gocWordFront" d="M534.285,61.4v-.887h-.032a2.6,2.6,0,0,1-.917.9,3.49,3.49,0,0,1-1.676.349,3.9,3.9,0,0,1-1.328-.191,2.585,2.585,0,0,1-1.313-1.865V53.1h1.328v5.866a1.426,1.426,0,0,0,.634,1.328,1.563,1.563,0,0,0,.742.221,2.437,2.437,0,0,0,.933-.094,2.586,2.586,0,0,0,1.629-2.816V53.1h1.328v8.3Z" transform="translate(-519.613 -33.86)"/>
        <path class="gocWordFront" d="M571.353,47.816a3.157,3.157,0,0,0-3.083-2.42,3.248,3.248,0,0,0-2.483,1.107,6.423,6.423,0,0,0,0,7.21,3.246,3.246,0,0,0,2.483,1.109c1.692,0,2.735-1.06,3.32-3.259h1.518c-.49,2.64-2.292,4.617-4.917,4.586A5.114,5.114,0,0,1,565,54.964a6.7,6.7,0,0,1-1.835-4.855A6.83,6.83,0,0,1,565,45.254a5.111,5.111,0,0,1,3.194-1.186c2.435-.031,4.016,1.409,4.7,3.748Z" transform="translate(-540.836 -28.247)"/>
        <path class="gocWordFront" d="M599.935,59.743a.615.615,0,0,0,.632.49.677.677,0,0,0,.3-.047V61.23a3.253,3.253,0,0,1-1.028.142,1.41,1.41,0,0,1-1.233-1.2,4.576,4.576,0,0,1-2.641,1.2c-1.85,0-3-.965-2.893-2.594a2.209,2.209,0,0,1,1.739-2.165,22.2,22.2,0,0,1,3.068-.491c.174-.031.664-.19.664-.633v-.979c-.111-.586-1.266-.856-2.151-.856a1.5,1.5,0,0,0-1.691,1.535h-1.25l.048-.729a2.5,2.5,0,0,1,1.375-1.628,3.762,3.762,0,0,1,1.708-.364,5.773,5.773,0,0,1,1.423.142c1.044.238,1.9.775,1.929,1.6Zm-1.376-2.8c-1.075.428-2.562.4-3.336.745a1.39,1.39,0,0,0-.79,1.121,1.332,1.332,0,0,0,1.454,1.423,2.685,2.685,0,0,0,2.672-1.627Z" transform="translate(-559.425 -33.469)"/>
        <path class="gocWordFront" d="M618.818,52.7v1.044h.032a2.6,2.6,0,0,1,.917-.9,2.752,2.752,0,0,1,1.645-.38,4.263,4.263,0,0,1,1.36.222,2.278,2.278,0,0,1,1.312,1.865v6.452h-1.327V55.233a1.512,1.512,0,0,0-1.661-1.566c-1.107,0-2.308.7-2.277,2.926v4.412H617.49V52.7Z" transform="translate(-574.608 -33.467)"/>
        <path class="gocWordFront" d="M646.406,59.743a.614.614,0,0,0,.632.49.678.678,0,0,0,.3-.047V61.23a3.257,3.257,0,0,1-1.028.142,1.411,1.411,0,0,1-1.234-1.2,4.574,4.574,0,0,1-2.64,1.2c-1.85,0-3-.965-2.894-2.594a2.21,2.21,0,0,1,1.74-2.165,22.2,22.2,0,0,1,3.068-.491c.174-.031.664-.19.664-.633v-.979c-.11-.586-1.265-.856-2.15-.856a1.5,1.5,0,0,0-1.691,1.535h-1.249l.047-.729a2.508,2.508,0,0,1,1.376-1.628,3.762,3.762,0,0,1,1.708-.364,5.776,5.776,0,0,1,1.423.142c1.044.238,1.9.775,1.929,1.6Zm-1.376-2.8c-1.075.428-2.562.4-3.336.745a1.391,1.391,0,0,0-.791,1.121,1.333,1.333,0,0,0,1.455,1.423A2.685,2.685,0,0,0,645.03,58.6Z" transform="translate(-588.312 -33.469)"/>
        <path class="gocWordFront" d="M669.542,44.571V56.114h-1.154V55.15a4.863,4.863,0,0,1-1.139.995,2.78,2.78,0,0,1-1.423.317,4.091,4.091,0,0,1-1.661-.333,4.267,4.267,0,0,1-2.008-3.589,5.128,5.128,0,0,1,1.06-3.907,3.226,3.226,0,0,1,2.435-1.075,3.441,3.441,0,0,1,1.8.507,1.867,1.867,0,0,1,.728.744h.031V44.571Zm-3.48,10.641a2.006,2.006,0,0,0,1.6-.9,4.729,4.729,0,0,0-.079-4.6,2.1,2.1,0,0,0-1.644-.79,2,2,0,0,0-1.74.807,4.655,4.655,0,0,0,.127,4.727A1.951,1.951,0,0,0,666.063,55.212Z" transform="translate(-602.356 -28.56)"/>
        <path class="gocWordFront" d="M692.877,59.743a.615.615,0,0,0,.633.49.681.681,0,0,0,.3-.047V61.23a3.259,3.259,0,0,1-1.028.142,1.41,1.41,0,0,1-1.234-1.2,4.577,4.577,0,0,1-2.641,1.2c-1.85,0-3-.965-2.894-2.594a2.21,2.21,0,0,1,1.74-2.165,22.2,22.2,0,0,1,3.067-.491c.174-.031.664-.19.664-.633v-.979c-.11-.586-1.265-.856-2.151-.856a1.5,1.5,0,0,0-1.692,1.535h-1.249l.047-.729a2.5,2.5,0,0,1,1.375-1.628,3.768,3.768,0,0,1,1.708-.364,5.775,5.775,0,0,1,1.423.142c1.044.238,1.9.775,1.929,1.6Zm-1.375-2.8c-1.076.428-2.562.4-3.337.745a1.394,1.394,0,0,0-.791,1.121,1.334,1.334,0,0,0,1.456,1.423A2.685,2.685,0,0,0,691.5,58.6Z" transform="translate(-617.2 -33.469)"/>
    </g>
    <g transform="translate(0 0.942)">
        <rect class="gocFlagFront" width="13.184" height="26.843"/>
        <g transform="translate(17.273 1.97)">
            <path class="gocFlagFront" d="M57.247,13.529,59.133,9.7,61,13.39c.234.389.422.358.795.17l1.605-.795-1.044,5.16c-.219,1.01.359,1.307.981.621l2.29-2.446.607,1.387c.2.42.514.358.921.281l2.368-.5-.795,2.99-.016.062c-.093.389-.28.717.156.9l.842.42-4.877,4.129c-.5.513-.327.67-.139,1.245l.45,1.39L60.6,27.581c-.56-.142-.95-.142-.967.312l.188,5.219H58.447l.187-5.2c0-.516-.389-.5-1.309-.312l-4.207.812.546-1.39c.187-.528.235-.886-.188-1.245l-4.985-4.064.921-.562c.264-.2.28-.42.139-.874l-.935-3.039,2.4.515c.669.154.856,0,1.027-.373l.67-1.372,2.367,2.681c.422.5,1.013.17.826-.547l-1.137-5.594L56.53,13.56c.281.171.577.219.748-.108" transform="translate(-48.491 -9.696)"/>
        </g>
        <g transform="translate(42.359 0.025)">
            <rect class="gocFlagFront" width="13.183" height="26.844"/>
        </g>
    </g>
</svg>