<?xml version="1.0" encoding="utf-8"?>
<!-- Generator: Adobe Illustrator 24.1.2, SVG Export Plug-In . SVG Version: 6.00 Build 0)  -->
<svg version="1.1" id="Layer_1" xmlns="http://www.w3.org/2000/svg" xmlns:xlink="http://www.w3.org/1999/xlink" x="0px" y="0px"
	 viewBox="0 0 112 112" style="enable-background:new 0 0 112 112;" xml:space="preserve">
<style type="text/css">
	.st0{fill:url(#Icon_material-event_1_);}
</style>
<linearGradient id="Icon_material-event_1_" gradientUnits="userSpaceOnUse" x1="-623.1668" y1="439.0235" x2="-623.1668" y2="438.0235" gradientTransform="matrix(100.8 0 0 -112 62871.2031 49170.6484)">
	<stop  offset="0" style="stop-color:#252561"/>
	<stop  offset="1" style="stop-color:#151537"/>
</linearGradient>
<path id="Icon_material-event" class="st0" d="M83.99,61.62h-28v28h28V61.62z M78.39,0.02v11.2h-44.8V0.02h-11.2v11.2h-5.6
	c-6.16,0-11.15,5-11.14,11.15c0,0.02,0,0.03,0,0.05l-0.06,78.4c0,6.19,5.01,11.2,11.2,11.2h78.4c6.18-0.02,11.18-5.02,11.2-11.2
	v-78.4c-0.02-6.18-5.02-11.18-11.2-11.2h-5.6V0.02H78.39z M95.19,100.82h-78.4v-61.6h78.4V100.82z"/>
</svg>
