<?xml version="1.0" encoding="utf-8"?>
<!-- Generator: Adobe Illustrator 24.1.2, SVG Export Plug-In . SVG Version: 6.00 Build 0)  -->
<svg version="1.1" id="Layer_1" xmlns="http://www.w3.org/2000/svg" xmlns:xlink="http://www.w3.org/1999/xlink" x="0px" y="0px"
	 viewBox="0 0 112 112" style="enable-background:new 0 0 112 112;" xml:space="preserve">
<style type="text/css">
	.st0{fill:url(#Icon_awesome-hashtag_1_);}
</style>
<linearGradient id="Icon_awesome-hashtag_1_" gradientUnits="userSpaceOnUse" x1="55.992" y1="0.0155" x2="55.992" y2="112.0155">
	<stop  offset="0" style="stop-color:#252561"/>
	<stop  offset="1" style="stop-color:#151537"/>
</linearGradient>
<path id="Icon_awesome-hashtag" class="st0" d="M110.16,37.54l1.78-10c0.29-1.63-0.8-3.19-2.43-3.48c-0.17-0.03-0.35-0.05-0.53-0.05
	h-18.7l3.66-20.47c0.29-1.63-0.8-3.19-2.43-3.48c-0.17-0.03-0.35-0.05-0.53-0.05H80.83c-1.45,0-2.7,1.04-2.95,2.47l-3.85,21.53
	H49.38l3.66-20.47c0.29-1.63-0.8-3.19-2.43-3.48c-0.17-0.03-0.35-0.05-0.53-0.05H39.92c-1.45,0-2.7,1.04-2.95,2.47l-3.84,21.53
	H13.35c-1.46,0-2.7,1.05-2.95,2.48l-1.78,10c-0.28,1.63,0.81,3.19,2.44,3.47c0.17,0.03,0.34,0.04,0.51,0.04h18.7l-5.71,32H4.78
	c-1.45,0-2.7,1.04-2.95,2.47l-1.79,10c-0.29,1.63,0.8,3.19,2.43,3.48c0.17,0.03,0.35,0.05,0.53,0.05h18.7l-3.65,20.47
	c-0.29,1.63,0.8,3.19,2.43,3.48c0.17,0.03,0.35,0.05,0.53,0.05h10.16c1.45,0,2.7-1.04,2.95-2.47l3.85-21.53h24.66l-3.66,20.47
	c-0.29,1.63,0.8,3.19,2.43,3.48c0.17,0.03,0.35,0.05,0.53,0.05h10.16c1.45,0,2.7-1.04,2.95-2.47l3.84-21.53h19.78
	c1.45,0,2.7-1.04,2.95-2.47l1.78-10c0.29-1.63-0.8-3.19-2.43-3.48c-0.17-0.03-0.35-0.05-0.53-0.05h-18.7l5.71-32h19.78
	C108.66,40.01,109.91,38.97,110.16,37.54L110.16,37.54z M65.47,72.02H40.81l5.71-32h24.66L65.47,72.02z"/>
</svg>
