<?xml version="1.0" encoding="utf-8"?>
<!-- Generator: Adobe Illustrator 24.2.3, SVG Export Plug-In . SVG Version: 6.00 Build 0)  -->
<svg version="1.1" id="Capa_1" xmlns="http://www.w3.org/2000/svg" xmlns:xlink="http://www.w3.org/1999/xlink" x="0px" y="0px"
	 viewBox="0 0 512 512" style="enable-background:new 0 0 512 512;" xml:space="preserve">
<style type="text/css">
	.st0{fill:#FFFFFF;}
</style>
<g>
	<g>
		<path class="st0" d="M387.4,109.5l-21.6,13.3c34.5,15,64.3,38.2,79,67.9c38.3,77.6-38.7,168.1-188.8,168.1S28.8,268.4,67.2,190.8
			c25.4-51.5,97.8-84.6,170.7-88.9l-1.1,18.5c-55.8,4.7-108,31.5-122.4,70.4C93.9,246.1,154.7,304.4,256,304.4
			s162.1-58.3,141.6-113.6c-8.4-22.8-29.4-41.2-55.5-53.3l-25.9,16c17.3,8.9,30.3,21.9,34.1,37.3c8.7,35.2-32.9,68.9-94.4,68.9
			s-103.1-33.7-94.4-68.9c6.3-25.4,37.6-44,73.8-49.1l-1.6,25.5c-13.7,4.6-23.8,13.1-25.1,23.6c-2.1,16.8,19.1,31.6,47.2,31.6
			s49.3-14.8,47.2-31.6c-1.3-10.5-11.3-19.1-25.1-23.6l-5.1-82.1H256c-94.3,0-195,39.1-236.1,105.6
			c-63,102.1,25.3,236.1,236.1,236.1s299.1-134,236.1-236.1C469.6,154.3,430.6,126.9,387.4,109.5z"/>
	</g>
</g>
</svg>
