<svg version="1" xmlns="http://www.w3.org/2000/svg" width="1365.333" height="1365.333" viewBox="0 0 1024.000000 1024.000000"><path d="M497.9.5c-.2.2-2.9.6-5.9.9-7.7.8-18 2.7-24.5 4.7-1.6.5-5.9 1.8-9.5 2.8-8.8 2.6-24.2 8.3-31.5 11.7-3.3 1.5-6.2 2.8-6.5 2.9-1.7.3-8.6 4.1-9.2 4.9-.4.6-.8.8-.8.5 0-.6-7.4 3.2-22 11.3-10.7 6-32.3 19.8-32.8 21-.2.5-.8.8-1.3.8-.8 0-10.6 6.6-11.9 8-.3.3-2.2 1.6-4.2 3-2.1 1.4-3.8 2.8-3.8 3.2 0 .5-.5.8-1.2.8-.6 0-1.8.7-2.7 1.5-.9.8-7.4 6.1-14.6 11.7-7.1 5.6-13.2 10.5-13.5 10.8-.3.3-2.3 2-4.5 3.9-4.6 3.9-15.2 13.3-20.7 18.4-2.1 1.9-3.8 3.9-3.8 4.5 0 .5 1.7 1.4 3.8 2 2 .6 8.2 2.7 13.7 4.7s10.9 3.8 12 4c1.1.3 2.9.9 4 1.4 1.1.6 4 1.7 6.5 2.5s7.5 2.6 11.3 4c3.7 1.4 6.7 2.3 6.7 1.9 0-.3.6-.1 1.3.4.6.6 3.7 1.8 6.7 2.7 3 1 6.4 2.1 7.5 2.6 1.1.5 4 1.6 6.5 2.4 3.7 1.2 39.5 13.6 43.8 15.1.7.2 1.3.4 1.5.4.1 0 2.5.8 5.2 1.9 2.8 1.1 8.6 3.2 13 4.6 4.4 1.5 8.9 3.1 10 3.6 1.1.4 5 1.8 8.8 3.1 3.7 1.3 6.7 2.9 6.7 3.6 0 .7-.3 1.3-.7 1.3-.5 0-1.9 1.7-3.3 3.8-1.4 2-2.7 3.9-3 4.2-1.5 1.4-8 15.3-9.8 21-3.1 9.7-3.6 13.3-3.6 27 0 12.6 1.7 22.3 5.1 29.9.8 1.8 1.1 3.6.6 4-.4.4-3.9 1.7-7.8 3-3.8 1.3-7.9 2.7-9 3.1-1.1.5-10.1 3.6-20 7s-22.5 7.7-28 9.6c-5.5 2-10.4 3.7-11 3.8-.5.2-1.8.6-2.7 1-.9.4-2.2.9-3 1-.7.2-2 .6-2.8.9-1.5.6-16.2 5.7-34 11.7-5.2 1.8-9.6 3.4-9.8 3.5-.3.3 8.6 3.5 11.3 4.1.6.2 5.5 1.9 11 3.9s10.7 3.8 11.5 4c.8.2 1.6.4 1.8.5.1.2.5.3 1 .5.4.1 1.4.4 2.2.8.8.3 4.4 1.5 8 2.7 3.6 1.2 7.4 2.5 8.5 3 1.1.4 6.3 2.2 11.5 4 5.2 1.7 10.2 3.4 11 3.7.8.4 1.8.7 2.3.8.4.2.9.4 1.2.5.3.1.9.3 1.4.4.5 0 1.3.4 1.7.9.4.4 1.6.7 2.6.7s2.6.4 3.6.9c1.7 1 4.8 2.2 6.7 2.7.6.1 6.4 2.1 13 4.4 6.6 2.3 17.2 6 23.5 8.1 6.3 2.2 12.4 4.4 13.5 4.8 1.1.5 6.7 2.5 12.5 4.4 5.8 1.9 19.7 6.7 31 10.7 11.3 3.9 21 7.2 21.5 7.2 1.6 0 4.5-.9 12.5-3.8 13.8-4.9 38.5-13.5 41.5-14.4 1.7-.4 8.1-2.6 14.3-4.9 6.1-2.2 11.2-3.8 11.2-3.4 0 .3.6.1 1.3-.4.6-.6 8.2-3.4 16.7-6.2 8.5-2.9 16.4-5.6 17.5-6.1 2.3-.9 5.8-2.1 6.5-2.2.4 0 3.1-.9 9.5-3.4 1.1-.4 2.5-.8 3-1 2.6-.7 38.3-13.1 39.1-13.6.5-.3 7.4-2.6 15.4-5.2s15.9-5.4 17.7-6.2c1.7-.8 3.8-1.4 4.6-1.4.9 0 1.8-.4 2.1-.9.6-.9-3.2-2.3-23.9-9.2-4.9-1.7-9.7-3.3-10.5-3.6-3.4-1.3-20.6-7.4-22-7.7-.8-.2-2.8-1-4.5-1.6-1.6-.6-3.9-1.4-5-1.6-1.1-.2-2.9-.8-4-1.4-2.1-1-21.7-7.8-25-8.7-1.1-.2-2.9-.9-4-1.3-1.9-.9-28.5-10-29-10-.2 0 .6-2.8 1.7-6.3 3.2-9.7 4.7-20.3 4.3-31.2-.3-9.9-.6-12.1-2.6-20-1.7-6.9-8.7-23-11.4-26.2-.5-.7-1.6-1.9-2.2-2.7-.7-.8-1.3-2-1.3-2.6 0-.5-.4-1-.9-1s-1.1-.6-1.4-1.4c-.4-1 1.4-2 6.6-3.7 4-1.2 8.1-2.7 9.2-3.3 1.1-.5 2.7-1.1 3.6-1.3.9-.1 2.7-.7 4-1.2 1.3-.5 2.6-.9 2.9-1 .3 0 3.7-1.3 7.5-2.7 3.9-1.4 7.5-2.7 8-2.8.6-.1 1.5-.4 2-.8.6-.3 3.9-1.5 7.5-2.6 3.6-1.2 11.7-4 18-6.2 6.3-2.3 13.1-4.7 15-5.2 1.9-.6 4-1.3 4.5-1.6.6-.4 1.5-.7 2-.8 1.1-.2 35.2-12.1 37.5-13.1.8-.3 1.8-.7 2.2-.7.3-.1 1-.4 1.4-.9.4-.4 1.5-.7 2.4-.7 1 0 4.9-1.3 8.8-2.9 3.9-1.6 7.3-2.7 7.6-2.4.3.3 1.1.1 1.8-.4.7-.6 4.3-2 8-3.2 3.7-1.3 7-2.7 7.3-3.2.6-.9-.4-2-11.9-12.3-10.4-9.2-11.9-10.5-14.9-12.9-1.6-1.2-3.6-2.9-4.5-3.8-1.4-1.3-10.3-8.4-28.7-22.7-.5-.4-3.2-2.3-6-4.2-2.7-1.9-5.2-3.8-5.5-4.1-1.1-1.2-25-16.9-25.8-16.9-.5 0-1.5-.7-2.2-1.5-.7-.8-2.4-2.1-3.9-2.8-7.2-3.8-19.6-11.2-19.9-11.9-.2-.4-.8-.8-1.4-.8-.5 0-6.7-2.9-13.6-6.3-13.1-6.6-31.5-14.3-41.2-17.2-3-.9-6.6-2.1-8-2.6-3.4-1.1-13.7-3.7-18-4.4-1.9-.3-6-1-9-1.6-5.2-1-37.3-2.2-38.1-1.4z"/><path d="M825.4 164.9c-.8.7-10.3 3.8-14.2 4.6-.9.2-7 2.2-13.4 4.4-6.5 2.2-11.8 3.8-11.8 3.5 0-.2-1.3.2-3 1.1-1.6.8-3.1 1.5-3.2 1.4-.3-.2-41.9 13.1-54.3 17.3-3.3 1.1-6.4 2.1-7 2.2-.5.1-7.5 2.3-15.5 4.9-8 2.6-19.7 6.4-26 8.4-6.3 2-14 4.5-17 5.5-3 1.1-6.2 2.1-7 2.3-.8.2-4.4 1.3-8 2.5-7 2.3-8.7 2.8-11 3-1.4.1 3.9 2.8 7 3.5.8.2 21.3 7 45.5 15 24.2 8.1 44.5 14.8 45 14.9.6.2 1.7.6 2.5.9.8.3 14.1 4.7 29.5 9.8 15.4 5 36.1 11.8 45.9 15.1l17.9 6 2.6-2c4.2-3.1 7.4-9.4 10.2-20.2.8-3.4 1.1-5.1 2.8-18.4.9-6.5.6-44.8-.3-51.1-2.5-16.4-4.9-24.5-8.9-29.7-3.3-4.2-6.7-6.2-8.3-4.9zM192.2 167.7c-5.6 5.7-8.9 15.3-11 32.8-.9 7.8-.9 45.3 0 53 1.3 10.3 1.7 12.5 3.4 19 .5 1.9 3.3 9 4.5 11.6.8 1.5 2.7 3.6 4.5 4.8l3.1 2.1 42.4-14c23.3-7.7 51.4-17 62.4-20.6 11-3.6 20.7-6.8 21.5-7.1.8-.4 1.7-.7 2-.8.3 0 3-.9 6-2s5.7-2 6-2c3.8-.9 9.8-2.9 10.8-3.7.6-.6 1.2-.8 1.2-.4 0 .3 1.7 0 3.8-.8 2-.8 4.6-1.7 5.7-2.2 1.1-.4 2.5-.8 3-1 .6-.1 6-1.9 12-3.9 6.1-2 11.7-3.8 12.5-4 .8-.2 1.7-.4 2-.5.3-.1.9-.2 1.3-.1.5.1.6-.3.3-.8s-4.5-2.1-9.4-3.6c-4.8-1.4-9.6-3-10.7-3.5-1.1-.5-5.4-1.8-9.5-3s-8.4-2.5-9.5-3c-1.1-.4-4.2-1.5-7-2.4-9.6-3-33.1-10.6-47-15.2-7.7-2.5-14.4-4.7-15-4.8-1.3-.3-8.5-2.6-10.5-3.3-.8-.4-1.7-.7-2-.8-3.9-1-22-6.8-23.5-7.5-4.5-1.9-46.7-15-48.5-15-1.1 0-3.3 1.2-4.8 2.7zM281.8 339.8c.9 1.5 1.9 2.9 2.2 3.2.3.3 2.2 2.7 4.1 5.5 1.8 2.7 4 5.6 4.6 6.5 1.1 1.3 30.9 41.9 35.1 47.8 3.8 5.4 7.2 9.8 8.4 11.2 2.6 2.9 6.3 9.5 5.9 10.5-.4 1.3-.7 3-1.5 8.8-.4 2.7-.9 5.6-1 6.5-.2 1-.7 3.9-1 6.5-.4 2.7-.9 5.7-1.1 6.7-.2.9-.6 3.3-.8 5.1-1 6.3-2.1 13.4-2.2 13.9-.2.8-1.8 11.3-2.1 13.5-.1 1.1-.3 2.2-.4 2.5-.3.7-1 5.2-2.6 17.5-.1 1.1-.3 2-.4 2-.3 0-.9 3.7-1.5 8.5-.3 2.5-.7 5.2-1 6-.2.8-.6 3.5-.9 6-.3 2.5-.8 5.6-1.1 6.9-.2 1.2-.7 4.2-.9 6.5-.3 2.2-.8 5.2-1.1 6.6-.3 1.4-.8 4.5-1.1 7-.2 2.5-.7 5.2-.9 6-.3.8-.7 3.6-1 6.2-.3 2.5-.8 5.7-1.1 6.9-.2 1.3-.6 4-.9 5.9-.3 1.9-.7 4.4-.9 5.5-.2 1.1-.7 4.5-1.1 7.5-.4 3-.9 6.4-1.2 7.5-1.1 5.4-1.5 7.3-1.7 10.5-.2 1.9-.6 5.1-1 7-1.2 7-1.7 9.6-2.2 13.5-.3 2.2-.9 6.2-1.4 9-.5 2.7-1.2 6.8-1.5 9-.3 2.3-.8 5.2-1 6.5-.3 1.4-.8 4.5-1.1 7-.6 5-1.1 8.2-1.9 12-.5 2.6-1.6 9.7-2 14-.2 1.4-.4 2.5-.5 2.5-.1 0-.3.9-.4 2-.3 2.1-1.4 9.5-2.1 13.6-.2 1.3-.6 4-.9 5.9-.3 1.9-.7 4.4-1 5.5-.3 1.8-1.4 9.1-2.1 14-.6 3.6-4.5 28.9-5 32-.3 1.6-.8 4.6-1.1 6.5-.2 1.9-.9 6-1.4 9-.5 3-1.2 7.3-1.5 9.5-.3 2.3-.8 5.2-1 6.5-.3 1.4-.8 4.5-1 7-.3 2.5-.8 5.2-1 6-.2.8-.7 3.4-1 5.7-1.1 8-1.4 9.8-1.9 12.3-.3 1.4-.8 4.6-1.1 7.1-.3 2.5-.8 5.6-1 7-.3 1.3-.7 3.5-.9 4.9-.3 1.4-.8 4.5-1.1 7-.3 2.5-.7 5.4-.9 6.5-.7 3.7-1.9 11-2.1 12.5-.1.8-.6 4.1-1 7.3l-.7 5.7 3.1 1.1c1.7.6 3.1 1.5 3.1 2s.7.9 1.5.9c.9 0 2.8.9 4.3 1.9C286.3 894 302 903 303 903c.6 0 1 .4 1 1 0 .5.5 1 1.1 1 .8 0 18.1 9.7 31.9 18 .8.5 8 4.6 15.9 9.2s16.3 9.4 18.5 10.7c37.9 22 48.8 28.1 49.7 28.1.5 0 .9.4.9 1 0 .5.4 1 .9 1s5.5 2.7 11 6c5.6 3.3 10.3 6 10.5 6 .2 0 3.3 1.7 6.7 3.8 3.5 2.1 7.6 4.4 9.2 5.1 1.5.8 2.7 1.8 2.7 2.3 0 .4.5.8 1.1.8.6 0 4 1.7 7.6 3.7 3.6 2.1 8.4 4.9 10.6 6.2 2.3 1.3 5.3 3 6.7 3.9 1.4.9 4.3 2.6 6.5 3.8 2.2 1.1 5.6 3.1 7.5 4.2 9.1 5.5 8.9 5.5 11.5 3.8 1.3-.9 4.1-2.5 6.2-3.7 10.1-5.7 51.2-29.4 54.5-31.5 2.1-1.3 4-2.4 4.3-2.4.2 0 3.3-1.7 6.7-3.8 3.5-2.1 7-4.2 7.8-4.6.8-.4 2.4-1.2 3.5-1.9s6.3-3.6 11.5-6.6c5.2-3 10.3-6.1 11.4-7 1-.9 1.9-1.4 2-1.2 0 .3 1.2-.2 2.6-1.1 7.1-4.5 62.2-35.8 62.9-35.8.5 0 1.1-.3 1.3-.8.3-.6 7.3-4.9 20.5-12.3 4.8-2.8 8.7-5 18.7-10.8 4.9-2.8 9.3-5.1 9.7-5.1.5 0 .9-.4.9-.9s1-1.3 2.3-1.8c1.2-.4 4.6-2.2 7.5-3.8 4.9-2.8 5.3-3.2 5.1-6.5-.2-1.9-.5-3.9-.7-4.4-.3-.5-.6-2.3-.8-4-.4-4.3-1.2-10-2.6-17.1-.6-3.3-1.2-7.1-1.3-8.5-.1-1.4-.5-3.6-.9-5-.3-1.4-.8-4.5-1.1-7-.2-2.5-.7-5.6-.9-7-.3-1.4-.8-4.1-1-6-.3-1.9-.7-4.6-1-6-.4-2.2-2.1-13.2-3.1-20-.2-1.4-.6-3.9-.9-5.5-.3-1.7-.8-5-1.1-7.5-.3-2.5-.8-5.2-1-6-.3-.8-.7-3.1-.9-5-.6-4.1-1.5-10.5-2.2-14-.2-1.4-.9-5.4-1.4-9-.5-3.6-1.1-7.4-1.4-8.5-.3-1.8-1.5-9.6-2.2-15-.1-1.1-.3-2-.4-2-.1 0-.3-1.1-.5-2.5-.6-4.9-1.6-11.6-2.6-16.3-.5-2.7-.7-5.3-.3-5.8.3-.5.1-.9-.3-.9-.5 0-.9-.8-.9-1.8-.1-2.3-1.4-12.3-1.9-14.2-.2-.8-.6-3.5-.9-6-.3-2.5-.9-5.6-1.2-7-.3-1.4-.7-3.6-.8-5-.3-2.7-1.6-10.3-2.2-13.5-.3-1.1-.6-3.8-.8-6-.2-2.2-.6-4.7-.9-5.5-.3-.8-.6-2.2-.6-3-.1-1.7-.8-6.2-1.1-7-.1-.3-.2-.8-.2-1.2.1-.3-.6-4.6-1.4-9.5-1.7-9.9-2-11.7-3-18.8-.3-2.8-.8-5.9-1.1-7-.2-1.1-1-6.3-1.8-11.5-1.5-9.6-2.1-13.5-2.9-18-.4-2.1-1.8-11-3.1-20-.3-1.4-.7-4.5-1-6.9-.3-2.3-.7-4.6-.9-5-.2-.3-.7-3.1-1-6.2-.4-3.1-.9-6.7-1.2-8-.3-1.3-.7-3.8-.9-5.4-.2-1.7-.6-4.4-.9-6-.3-1.7-1-6.2-1.6-10-.6-3.9-1.3-8.4-1.6-10-1-5.2-1.4-7.9-1.8-11.5-.3-1.9-.7-4.9-1-6.5-.3-1.7-1-6.2-1.6-10-.6-3.9-1.3-8.4-1.6-10-.6-3.2-.9-4.8-1.8-11-.7-5-1.4-9.4-1.9-12-.4-1.8 2.4-6.5 6.1-10.3.6-.8 1.7-2.3 2.3-3.4.6-1.1 1.7-2.7 2.4-3.6 1.3-1.6 25.3-33.7 29.3-39.1.9-1.3 2.3-3 3-3.7.6-.7 1.2-1.7 1.2-2.2 0-.6.3-1.2.8-1.4 1.7-.8 18.3-24 16.6-23.4-1.5.6-9 3.1-12.4 4.1-.3.1-1.6.6-3 1.2-1.4.5-6.1 2.2-10.5 3.7s-8.9 3.1-10 3.6c-1.1.5-2.9 1.1-4 1.3-1.1.3-7.8 2.6-15 5.2-7.1 2.6-13.7 4.8-14.5 5-.8.2-2.8.9-4.5 1.6-1.6.6-3.4 1.3-4 1.5-.5.1-9.5 3.2-20 6.9-46 16.1-56.1 19.6-57.9 20-1 .2-2.4.9-3.2 1.6-.8.6-1.4.9-1.4.6 0-.3-2.7.5-6 1.8s-6 2.1-6 1.9c0-.2-1.3.2-3 1.1-1.6.8-3.3 1.6-3.7 1.6-1.2.2-2.2.5-11.3 3.8-12.3 4.4-26.3 9.2-27.5 9.4-.5.2-1.4.5-2 .8-1.3.8-7.6 2.8-10.4 3.4-1.2.2-7.2-1.4-13.4-3.6-6.2-2.3-12.1-4.3-13.2-4.6-1.1-.2-2.9-.9-4-1.4-1.1-.5-7.4-2.7-14-4.9-6.6-2.3-12.8-4.5-13.7-5-1-.6-2.7-1-3.7-1-1.1 0-2.3-.5-2.6-1-.3-.6-1.4-1-2.4-1s-3.2-.7-4.9-1.5c-1.7-.9-3.9-1.8-4.9-2-1-.1-4.8-1.5-8.6-2.9-3.7-1.4-6.8-2.5-7-2.5-.3 0-2.8-.8-8.2-2.8-2.7-1-5.3-1.8-5.7-1.8-.3 0-1-.3-1.4-.8-.4-.4-1.3-.7-2-.7s-2.5-.5-4.1-1.2c-1.5-.6-3.2-1.2-3.8-1.4-.5-.1-4.8-1.6-9.5-3.4-4.7-1.7-9.8-3.5-11.5-4-1.6-.4-8.8-2.9-16-5.5-7.1-2.5-15-5.3-17.5-6.1-2.5-.8-5.4-1.9-6.5-2.4-2.3-1-39.3-13.9-41.5-14.5-.8-.2-2.8-.9-4.5-1.5-1.6-.7-4.2-1.6-5.7-2l-2.7-.8 1.7 2.6z"/></svg>