<?xml version="1.0" encoding="utf-8"?>
<!-- Generator: Adobe Illustrator 23.1.0, SVG Export Plug-In . SVG Version: 6.00 Build 0)  -->
<svg version="1.1" id="Layer_1" xmlns="http://www.w3.org/2000/svg" xmlns:xlink="http://www.w3.org/1999/xlink" x="0px" y="0px"
	 viewBox="0 0 4320 484.3" style="enable-background:new 0 0 4320 484.3;" xml:space="preserve">
<style type="text/css">
	.st0{fill:#ED1C24;}
</style>
<path d="M3176.3,65.1c-1.4-22.4-8-65.1-79.6-65.1c-49.2,0-70.2,31.1-70.2,63c0,35.5,30.4,44.9,43.4,47.8l42,9.4
	c33.3,8,43.4,14.5,43.4,36.2c0,29-33.3,34-53.6,34c-26.1,0-56.5-10.9-56.5-47.8h-26.1c0,18.8,3.6,36.2,21,51.4
	c8.7,8,23.9,19.5,61.5,19.5c34.7,0,79.6-13,79.6-61.5c0-32.6-20.3-48.5-46.3-54.3l-57.9-13c-11.6-2.9-23.9-8.7-23.9-26.1
	c0-31.1,29-35.5,46.3-35.5c23.2,0,49.2,10.1,50.7,41.3L3176.3,65.1L3176.3,65.1z M3268.2,81.8V61.5h-23.9v-42H3219v42h-20.3v21h20.3
	v97.7c0,18.1,5.1,31.8,30.4,31.8c2.9,0,9.4-1.4,18.8-2.2v-19.5h-8.7c-5.1,0-15.2,0-15.2-11.6v-97L3268.2,81.8L3268.2,81.8z
	 M3315.3,106.4c1.4-11.6,5.8-29,34-29c23.9,0,34.7,8.7,34.7,23.9c0,14.5-7.2,17.4-13,17.4l-41.3,5.1c-41.3,5.1-44.9,34-44.9,46.3
	c0,25.3,19.5,42.7,46.3,42.7c29,0,44.2-13.8,53.6-23.9c0.7,11.6,4.3,22.4,26.1,22.4c5.8,0,9.4-1.4,13.8-2.9v-16.6
	c-2.9,0.7-5.8,1.4-8,1.4c-5.1,0-8-2.9-8-8.7V98.4c0-38.4-43.4-41.3-55-41.3c-36.9,0-60.1,13.8-61.5,49.2L3315.3,106.4L3315.3,106.4z
	 M3383.3,158.5c0,19.5-22.4,34.7-46.3,34.7c-18.8,0-26.8-9.4-26.8-26.1c0-18.8,19.5-22.4,31.9-23.9c31.1-4.3,36.9-6.5,41.3-9.4
	L3383.3,158.5L3383.3,158.5z M3504.9,81.8V61.5H3481v-42h-24.6v42h-20.3v21h20.3v97.7c0,18.1,5.1,31.8,29.7,31.8
	c2.9,0,9.4-1.4,18.8-2.2v-19.5h-8.7c-5.1,0-15.2,0-15.2-11.6v-97L3504.9,81.8L3504.9,81.8z M3554.9,61.5h-24.6v148.4h24.6V61.5
	L3554.9,61.5z M3554.9,34V5.8h-24.6V34H3554.9L3554.9,34z M3701.1,103.5c0-7.2-3.6-46.3-56.5-46.3c-29,0-56.5,14.5-56.5,47.1
	c0,20.3,13.8,31.1,34,36.2l29,7.2c21,5.1,29.7,9.4,29.7,21c0,16.6-15.9,23.9-34,23.9c-35.5,0-38.4-18.8-39.1-30.4h-23.9
	c0.7,18.1,5.1,52.1,63.7,52.1c33.3,0,58.6-18.8,58.6-49.2c0-20.3-10.9-31.9-42-39.1l-25.3-6.5c-19.5-5.1-26.8-8-26.8-19.5
	c0-18.1,21.7-21,29.7-21c31.9,0,34.7,15.9,35.5,24.6L3701.1,103.5L3701.1,103.5z M3788.7,81.8V61.5h-23.9v-42h-24.6v42h-20.3v21
	h20.3v97.7c0,18.1,5.1,31.8,30.4,31.8c2.9,0,9.4-1.4,18.8-2.2v-19.5h-8.7c-5.1,0-15.2,0-15.2-11.6v-97L3788.7,81.8L3788.7,81.8z
	 M3838.6,61.5h-25.3v148.4h25.3V61.5L3838.6,61.5z M3838.6,34V5.8h-25.3V34H3838.6L3838.6,34z M3997.9,61.5h-23.2v21h-0.7
	c-5.8-8.7-17.4-25.3-44.2-25.3c-39.8,0-62.3,32.6-62.3,73.8c0,35.5,14.5,83.2,65.1,83.2c19.5,0,33.3-9.4,39.1-20.3h0.7v74.6h24.6
	L3997.9,61.5L3997.9,61.5z M3974,142.6c0,39.8-24.6,49.9-40.5,49.9c-27.5,0-39.8-24.6-39.8-57.2c0-18.8,2.2-55.7,40.5-55.7
	C3970.4,79.6,3974,118,3974,142.6L3974,142.6z M4154.2,209.9V61.5h-24.6v81.8c0,21.7-9.4,49.2-40.5,49.2c-15.9,0-29-8-29-32.6V61.5
	h-25.3v106.4c0,35.5,26.1,46.3,48.5,46.3c23.9,0,36.9-9.4,47.1-26.8l0.7,0.7v21.7L4154.2,209.9L4154.2,209.9z M4293.2,162.9
	c-0.7,10.9-14.5,29-38.4,29c-29,0-43.4-18.1-43.4-48.5H4320c0-52.8-21-86.9-63.7-86.9c-49.2,0-70.9,36.9-70.9,82.5
	c0,42.7,24.6,74.6,66.6,74.6c23.9,0,33.3-5.8,40.5-10.1c18.8-12.3,25.3-33.3,26.1-40.5L4293.2,162.9L4293.2,162.9z M4211.4,123.8
	c0-23.2,18.1-44.2,41.3-44.2c30.4,0,39.8,21,41.3,44.2L4211.4,123.8L4211.4,123.8z M3197.3,335.9c-3.6-34-31.1-66.6-84-66.6
	c-59.4,0-94.8,43.4-94.8,106.4c0,78.2,45.6,108.6,91.9,108.6c15.2,0,77.5-3.6,89-80.3h-26.8c-9.4,47.1-40.5,55.7-57.9,55.7
	c-50.7,0-67.3-36.9-67.3-84.7c0-53.6,29.7-81.1,66.6-81.1c19.5,0,49.2,6.5,57.2,42L3197.3,335.9L3197.3,335.9z M3251.6,375.7
	c1.4-11.6,5.8-29,34-29c23.9,0,34.7,8.7,34.7,23.9c0,14.5-7.2,16.6-13,17.4l-41.3,5.1c-41.3,5.1-44.9,34-44.9,46.3
	c0,25.3,19.5,42.7,46.3,42.7c29,0,44.2-13.8,53.6-23.9c0.7,11.6,4.3,22.4,26.1,22.4c5.8,0,9.4-1.4,13.8-2.9v-18.1
	c-2.9,0.7-5.8,1.4-8,1.4c-5.1,0-8-2.9-8-8.7v-84.7c0-38.4-43.4-41.3-55-41.3c-36.9,0-60.1,13.8-61.5,49.2L3251.6,375.7L3251.6,375.7
	z M3320.3,427.1c0,19.5-22.4,34.7-45.6,34.7c-18.8,0-26.8-9.4-26.8-26.1c0-18.8,19.5-22.4,31.9-23.9c31.1-4.3,36.9-6.5,41.3-9.4
	L3320.3,427.1L3320.3,427.1z M3508.6,377.9c0-42-29-51.4-52.1-51.4c-25.3,0-39.8,17.4-44.9,25.3h-0.7v-21h-23.9v148.4h24.6v-81.1
	c0-40.5,25.3-49.2,39.1-49.2c24.6,0,31.9,13,31.9,39.1v91.2h25.3L3508.6,377.9L3508.6,377.9z M3567.2,375.7c1.4-11.6,5.8-29,34-29
	c23.9,0,34.7,8.7,34.7,23.9c0,14.5-7.2,16.6-13,17.4l-41.3,5.1c-41.3,5.1-44.9,34-44.9,46.3c0,25.3,19.5,42.7,46.3,42.7
	c29,0,44.2-13.8,53.6-23.9c0.7,11.6,4.3,22.4,26.1,22.4c5.8,0,9.4-1.4,13.8-2.9v-18.1c-2.9,0.7-5.8,1.4-8,1.4c-5.1,0-8-2.9-8-8.7
	v-84.7c0-38.4-43.4-41.3-55-41.3c-36.9,0-60.1,13.8-61.5,49.2L3567.2,375.7L3567.2,375.7z M3636,427.1c0,19.5-22.4,34.7-46.3,34.7
	c-18.8,0-26.8-9.4-26.8-26.1c0-18.8,19.5-22.4,31.9-23.9c31.1-4.3,36.9-6.5,41.3-9.4L3636,427.1L3636,427.1z M3826.3,275.1h-24.6
	v74.6l-0.7,2.2c-5.8-8.7-17.4-25.3-44.2-25.3c-39.1,0-61.5,32.6-61.5,73.8c0,35.5,14.5,83.2,65.1,83.2c14.5,0,31.9-4.3,42-24.6h0.7
	v20.3h23.9L3826.3,275.1L3826.3,275.1z M3719.9,403.9c0-18.8,2.2-55.7,40.5-55.7c36.2,0,39.8,39.1,39.8,63
	c0,39.8-24.6,49.9-40.5,49.9C3732.9,461.1,3719.9,436.5,3719.9,403.9L3719.9,403.9z M3882.8,375.7c1.4-11.6,5.8-29,34-29
	c23.9,0,34.7,8.7,34.7,23.9c0,14.5-7.2,16.6-13,17.4l-41.3,5.1c-41.3,5.1-44.9,34-44.9,46.3c0,25.3,19.5,42.7,46.3,42.7
	c29,0,44.2-13.8,53.6-23.9c0.7,11.6,4.3,22.4,26.1,22.4c5.8,0,9.4-1.4,13.8-2.9v-18.1c-2.9,0.7-5.8,1.4-8,1.4c-5.1,0-8-2.9-8-8.7
	v-84.7c0-38.4-43.4-41.3-55-41.3c-36.9,0-60.1,13.8-61.5,49.2L3882.8,375.7L3882.8,375.7z M3951.6,427.1c0,19.5-22.4,34.7-46.3,34.7
	c-18.8,0-26.8-9.4-26.8-26.1c0-18.8,19.5-22.4,31.9-23.9c31.1-4.3,36.9-6.5,41.3-9.4L3951.6,427.1L3951.6,427.1z"/>
<path d="M1592.5,65.1c-1.4-22.4-8-65.1-79.6-65.1c-49.2,0-70.2,31.1-70.2,63c0,35.5,30.4,44.9,43.4,47.8l42,9.4
	c33.3,8,43.4,14.5,43.4,36.2c0,29-33.3,34-53.6,34c-26.1,0-56.5-10.9-56.5-47.8h-26.1c0,18.8,3.6,36.2,21,51.4
	c9.4,8,23.9,19.5,61.5,19.5c34.7,0,79.6-13,79.6-61.5c0-32.6-19.5-48.5-46.3-54.3l-57.9-13c-12.3-2.9-23.9-8.7-23.9-26.1
	c0-31.1,29-35.5,46.3-35.5c23.2,0,49.2,10.1,50.7,41.3L1592.5,65.1L1592.5,65.1z M1684.4,81.8V61.5h-23.9v-42h-25.3v42h-20.3v21
	h20.3v97.7c0,18.1,5.1,31.8,30.4,31.8c2.9,0,9.4-1.4,18.8-2.2v-19.5h-8.7c-5.1,0-15.2,0-15.2-11.6v-97L1684.4,81.8L1684.4,81.8z
	 M1730.8,106.4c1.4-11.6,5.8-29,34-29c23.9,0,34.7,8.7,34.7,23.9c0,14.5-7.2,17.4-13,17.4l-41.3,5.1c-41.3,5.1-44.9,34-44.9,46.3
	c0,25.3,19.5,42.7,46.3,42.7c29,0,44.2-13.8,53.6-23.9c0.7,11.6,4.3,22.4,26.1,22.4c5.8,0,9.4-1.4,13.8-2.9v-16.6
	c-2.9,0.7-5.8,1.4-8,1.4c-5.1,0-8-2.9-8-8.7V98.4c0-38.4-43.4-41.3-55-41.3c-36.9,0-60.1,13.8-61.5,49.2L1730.8,106.4L1730.8,106.4z
	 M1799.5,158.5c0,19.5-22.4,34.7-45.6,34.7c-18.8,0-26.8-9.4-26.8-26.1c0-18.8,19.5-22.4,31.9-23.9c31.1-4.3,36.9-6.5,41.3-9.4
	L1799.5,158.5L1799.5,158.5z M1921.1,81.8V61.5h-23.9v-42h-24.6v42h-20.3v21h20.3v97.7c0,18.1,5.1,31.8,30.4,31.8
	c2.9,0,9.4-1.4,18.8-2.2v-19.5h-8.7c-5.1,0-15.2,0-15.2-11.6v-97L1921.1,81.8L1921.1,81.8z M1971.1,61.5h-25.3v148.4h25.3V61.5
	L1971.1,61.5z M1971.1,34V5.8h-25.3V34H1971.1L1971.1,34z M2116.6,103.5c0-7.2-3.6-46.3-56.5-46.3c-29,0-56.5,14.5-56.5,47.1
	c0,20.3,13.8,31.1,34,36.2l29,7.2c21,5.1,29.7,9.4,29.7,21c0,16.6-15.9,23.9-34,23.9c-35.5,0-38.4-18.8-39.1-30.4h-23.9
	c0.7,18.1,5.1,52.1,63.7,52.1c33.3,0,58.6-18.8,58.6-49.2c0-20.3-10.9-31.9-42-39.1l-24.6-6.5c-19.5-5.1-26.8-8-26.8-19.5
	c0-18.1,21.7-21,29.7-21c31.9,0,34.7,15.9,35.5,24.6L2116.6,103.5L2116.6,103.5z M2204.9,81.8V61.5H2181v-42h-24.6v42h-20.3v21h20.3
	v97.7c0,18.1,5.1,31.8,30.4,31.8c2.9,0,9.4-1.4,18.8-2.2v-19.5h-8.7c-5.1,0-15.2,0-15.2-11.6v-97L2204.9,81.8L2204.9,81.8z
	 M2254.8,61.5h-24.6v148.4h24.6V61.5L2254.8,61.5z M2254.8,34V5.8h-24.6V34H2254.8L2254.8,34z M2409,111.5
	c-2.2-26.1-16.6-54.3-55.7-54.3c-49.2,0-70.9,36.9-70.9,82.5c0,42.7,24.6,74.6,66.6,74.6c43.4,0,57.9-33.3,60.8-56.5h-23.9
	c-4.3,22.4-18.8,35.5-35.5,35.5c-34,0-40.5-31.9-40.5-57.2c0-26.1,10.1-55.7,40.5-55.7c21,0,31.9,11.6,35.5,31.9L2409,111.5
	L2409,111.5z M2542.9,103.5c0-7.2-3.6-46.3-56.5-46.3c-29,0-56.5,14.5-56.5,47.1c0,20.3,13.8,31.1,34,36.2l29,7.2
	c21,5.1,29.7,9.4,29.7,21c0,16.6-15.9,23.9-34,23.9c-35.5,0-38.4-18.8-39.1-30.4h-23.9c0.7,18.1,5.1,52.1,63.7,52.1
	c33.3,0,58.6-18.8,58.6-49.2c0-20.3-10.9-31.9-42-39.1l-25.3-6.5c-19.5-5.1-26.8-8-26.8-19.5c0-18.1,21.7-21,29.7-21
	c31.9,0,34.7,15.9,35.5,24.6L2542.9,103.5L2542.9,103.5z M1613.5,335.9c-3.6-34-31.1-66.6-84-66.6c-59.4,0-94.8,43.4-94.8,106.4
	c0,78.2,45.6,108.6,91.9,108.6c15.2,0,77.5-3.6,89-80.3h-26.8c-9.4,47.1-40.5,55.7-57.9,55.7c-50.7,0-67.3-36.9-67.3-84.7
	c0-53.6,29.7-81.1,66.6-81.1c19.5,0,49.2,6.5,57.2,42L1613.5,335.9L1613.5,335.9z M1667.8,375.7c1.4-11.6,5.8-29,34-29
	c23.9,0,34.7,8.7,34.7,23.9c0,14.5-7.2,16.6-13,17.4l-41.3,5.1c-41.3,5.1-44.9,34-44.9,46.3c0,25.3,19.5,42.7,46.3,42.7
	c29,0,44.2-13.8,53.6-23.9c0.7,11.6,4.3,22.4,26.1,22.4c5.8,0,9.4-1.4,13.8-2.9v-18.1c-2.9,0.7-5.8,1.4-8,1.4c-5.1,0-8-2.9-8-8.7
	v-84.7c0-38.4-43.4-41.3-55-41.3c-36.9,0-60.1,13.8-61.5,49.2L1667.8,375.7L1667.8,375.7z M1735.8,427.1c0,19.5-22.4,34.7-46.3,34.7
	c-18.8,0-26.8-9.4-26.8-26.1c0-18.8,19.5-22.4,31.8-23.9c31.1-4.3,36.9-6.5,41.3-9.4L1735.8,427.1L1735.8,427.1z M1924,377.9
	c0-42-29-51.4-52.1-51.4c-25.3,0-39.1,17.4-44.9,25.3h-0.7v-21h-23.9v148.4h24.6v-81.1c0-40.5,25.3-49.2,39.1-49.2
	c24.6,0,31.9,13,31.9,39.1v91.2h24.6L1924,377.9L1924,377.9z M1983.4,375.7c1.4-11.6,5.8-29,34-29c23.9,0,34.7,8.7,34.7,23.9
	c0,14.5-7.2,16.6-13,17.4l-41.3,5.1c-41.3,5.1-44.9,34-44.9,46.3c0,25.3,19.5,42.7,46.3,42.7c29,0,44.2-13.8,53.6-23.9
	c0.7,11.6,4.3,22.4,26.1,22.4c5.8,0,9.4-1.4,13.8-2.9v-18.1c-2.9,0.7-5.8,1.4-8,1.4c-5.1,0-8-2.9-8-8.7v-84.7
	c0-38.4-43.4-41.3-55-41.3c-36.9,0-60.1,13.8-61.5,49.2L1983.4,375.7L1983.4,375.7z M2051.4,427.1c0,19.5-22.4,34.7-46.3,34.7
	c-18.8,0-26.8-9.4-26.8-26.1c0-18.8,19.5-22.4,31.8-23.9c31.1-4.3,36.9-6.5,41.3-9.4L2051.4,427.1L2051.4,427.1z M2241.8,275.1
	h-24.6v74.6l-0.7,2.2c-5.8-8.7-17.4-25.3-44.2-25.3c-39.1,0-61.5,32.6-61.5,73.8c0,35.5,14.5,83.2,65.1,83.2
	c14.5,0,31.1-4.3,42-24.6h0.7v20.3h23.9L2241.8,275.1L2241.8,275.1z M2136.1,403.9c0-18.8,2.2-55.7,40.5-55.7
	c36.2,0,39.8,39.1,39.8,63c0,39.8-24.6,49.9-40.5,49.9C2149.1,461.1,2136.1,436.5,2136.1,403.9L2136.1,403.9z M2299,375.7
	c1.4-11.6,5.8-29,34-29c23.9,0,34.7,8.7,34.7,23.9c0,14.5-7.2,16.6-13,17.4l-41.3,5.1c-41.3,5.1-44.9,34-44.9,46.3
	c0,25.3,19.5,42.7,46.3,42.7c29,0,44.2-13.8,53.6-23.9c0.7,11.6,4.3,22.4,26.1,22.4c5.8,0,9.4-1.4,13.8-2.9v-18.1
	c-2.9,0.7-5.8,1.4-8,1.4c-5.1,0-8-2.9-8-8.7v-84.7c0-38.4-43.4-41.3-55-41.3c-36.9,0-60.1,13.8-61.5,49.2L2299,375.7L2299,375.7z
	 M2367,427.1c0,19.5-22.4,34.7-46.3,34.7c-18.8,0-26.8-9.4-26.8-26.1c0-18.8,19.5-22.4,31.9-23.9c31.1-4.3,36.9-6.5,41.3-9.4
	L2367,427.1L2367,427.1z"/>
<g id="Flag">
	<g>
		<g>
			<path class="st0" d="M491.5,447.3c0,0-2.2-81.8-2.2-90.5c0-8.7,6.5-10.9,15.2-8.7s85.4,17.4,85.4,17.4s-6.5-17.4-10.9-28.2
				c-4.3-13,2.2-15.2,4.3-17.4c2.2-2.2,85.4-73.1,85.4-73.1l-13-6.5c-8.7-4.3-6.5-10.9-4.3-15.2c0-4.3,13-51.4,13-51.4
				s-34.7,6.5-43.4,8.7c-6.5,0-8.7-2.2-10.9-6.5c-2.2-4.3-10.9-26.1-10.9-26.1s-43.4,47.1-43.4,49.2c-8.7,6.5-17.4,2.2-15.2-6.5
				c0-8.7,21.7-105.7,21.7-105.7s-23.9,15.2-30.4,19.5c-8.7,4.3-10.9,4.3-15.2-4.3c-4.3-6.5-32.6-64.4-32.6-64.4l0,0
				c0,0-30.4,57.9-32.6,64.4c-4.3,8.7-8.7,8.7-17.4,4.3c-6.5-4.3-30.4-19.5-30.4-19.5s21.7,97,21.7,105.7c2.2,8.7-6.5,13-13,6.5
				c-2.2-2.2-45.6-49.2-45.6-49.2s-8.7,21.7-10.9,26.1c-2.2,4.3-4.3,6.5-10.9,6.5c-8.7-2.2-45.6-8.7-45.6-8.7s15.2,47.1,17.4,51.4
				c0,4.3,2.2,10.9-6.5,15.2l-15.9,7.2c0,0,83.2,70.9,85.4,73.1s8.7,4.3,4.3,17.4c-4.3,10.9-10.9,28.2-10.9,28.2
				s78.9-15.2,85.4-17.4c8.7-2.2,15.2,0,15.2,8.7s-2.2,90.5-2.2,90.5L491.5,447.3L491.5,447.3z"/>
			<polygon class="st0" points="241.8,484.3 241.8,2.2 0,2.2 0,484.3 			"/>
			<polygon class="st0" points="963.5,484.3 963.5,2.2 721,2.2 721,484.3 			"/>
		</g>
	</g>
</g>
</svg>
