<svg xmlns="http://www.w3.org/2000/svg" width="960" height="704.001" viewBox="0 0 960 704.001"><defs><style>.a,.h,.l,.p,.r{fill:#fff;}.a,.b,.c,.d{opacity:0.04;}.b,.i,.n,.q,.s{fill:#e6e6e7;}.c,.f,.g,.k,.u{fill:#8595a5;}.d,.j,.m,.o,.t{fill:#1866ed;}.e{opacity:0;}.f,.o,.p,.q{opacity:0.4;}.g,.h,.i,.j{opacity:0.16;}.k,.l,.m,.n{opacity:0.24;}</style></defs><g transform="translate(-960)"><path class="a" d="M4069.2-4.449v32h-32Z" transform="translate(-2821.202 4.449)"/><path class="b" d="M3816,27a32,32,0,0,0,32-32h-32Z" transform="translate(-2632 5)"/><path class="a" d="M4069.2-4.449v32h-32Z" transform="translate(-2725.202 4.449)"/><path class="b" d="M3816,27a32,32,0,0,0,32-32h-32Z" transform="translate(-2535.999 5)"/><path class="c" d="M4069.2-4.449v32h-32Z" transform="translate(-2789.202 4.449)"/><path class="c" d="M4069.2-4.449v32h-32Z" transform="translate(-2693.202 4.449)"/><path class="d" d="M4069.21,245.051v-32h-32Z" transform="translate(-2821.209 -181.05)"/><path class="d" d="M4069.21,245.051v-32h-32Z" transform="translate(-2725.209 -181.05)"/><path class="d" d="M4069.2-4.449v32h-32Z" transform="translate(-2789.202 36.449)"/><path class="c" d="M0,32A32,32,0,0,0,32,0H0Z" transform="translate(1248 96) rotate(-90)"/><path class="d" d="M0,32A32,32,0,0,0,32,0H0Z" transform="translate(1280 96) rotate(-90)"/><path class="d" d="M0,32A32,32,0,0,0,32,0H0Z" transform="translate(1376 96) rotate(-90)"/><path class="c" d="M0,32A32,32,0,0,0,32,0H0Z" transform="translate(1440.001 96) rotate(-90)"/><path class="d" d="M0,32A32,32,0,0,0,32,0H0Z" transform="translate(1472.001 96) rotate(-90)"/><path class="d" d="M0,32A32,32,0,0,0,32,0H0Z" transform="translate(1568.001 96) rotate(-90)"/><g class="e"><path class="a" d="M4069.2-4.449v32h-32Z" transform="translate(-2917.203 4.449)"/><path class="d" d="M4069.21,245.051v-32h-32Z" transform="translate(-2917.209 -181.05)"/><path class="d" d="M4069.2-4.449v32h-32Z" transform="translate(-2885.203 36.449)"/><path class="b" d="M32,0V32H0Z" transform="translate(1152 95.999) rotate(180)"/><path class="c" d="M0,32A32,32,0,0,0,32,0H0Z" transform="translate(1152 96) rotate(-90)"/><path class="d" d="M0,32A32,32,0,0,0,32,0H0Z" transform="translate(1184 96) rotate(-90)"/><path class="b" d="M32,0V32H0Z" transform="translate(1248 95.999) rotate(180)"/><path class="c" d="M0,32A32,32,0,0,0,32,0H0Z" transform="translate(1152 96) rotate(90)"/><path class="a" d="M32,0V32H0Z" transform="translate(1184 128) rotate(-90)"/><path class="c" d="M0,32A32,32,0,0,0,32,0H0Z" transform="translate(1248 96) rotate(90)"/></g><path class="c" d="M0,32A32,32,0,0,0,32,0H0Z" transform="translate(1344 96) rotate(90)"/><path class="c" d="M0,32A32,32,0,0,0,32,0H0Z" transform="translate(1440.001 96) rotate(90)"/><g class="e"><path class="a" d="M4069.2-4.449v32h-32Z" transform="translate(-3013.203 4.449)"/><path class="b" d="M3816,27a32,32,0,0,0,32-32h-32Z" transform="translate(-2824 5)"/><path class="b" d="M3816,27a32,32,0,0,0,32-32h-32Z" transform="translate(-2728 5)"/><path class="c" d="M4069.2-4.449v32h-32Z" transform="translate(-2981.203 4.449)"/><path class="d" d="M4069.21,245.051v-32h-32Z" transform="translate(-3013.209 -181.05)"/><path class="d" d="M4069.2-4.449v32h-32Z" transform="translate(-2981.203 36.449)"/><path class="d" d="M0,32A32,32,0,0,0,32,0H0Z" transform="translate(992 96) rotate(-90)"/><path class="b" d="M32,0V32H0Z" transform="translate(1056 95.999) rotate(180)"/><path class="c" d="M0,32A32,32,0,0,0,32,0H0Z" transform="translate(1056 96) rotate(-90)"/><path class="d" d="M0,32A32,32,0,0,0,32,0H0Z" transform="translate(1088 96) rotate(-90)"/><path class="a" d="M32,0V32H0Z" transform="translate(992 128) rotate(-90)"/><path class="c" d="M0,32A32,32,0,0,0,32,0H0Z" transform="translate(1056 96) rotate(90)"/><path class="a" d="M32,0V32H0Z" transform="translate(1088 128) rotate(-90)"/><path class="b" d="M4069.2-4.449v32h-32Z" transform="translate(-3013.203 132.449)"/><path class="c" d="M4069.2-4.449v32h-32Z" transform="translate(-2981.203 132.449)"/><path class="d" d="M32,0V32H0Z" transform="translate(1120 159.999) rotate(180)"/><path class="b" d="M4069.2-4.449v32h-32Z" transform="translate(-2917.203 132.449)"/></g><path class="c" d="M4069.2-4.449v32h-32Z" transform="translate(-2885.203 132.449)"/><path class="d" d="M32,0V32H0Z" transform="translate(1216 159.999) rotate(180)"/><path class="c" d="M4069.2-4.449v32h-32Z" transform="translate(-2789.202 132.449)"/><path class="d" d="M32,0V32H0Z" transform="translate(1312 159.999) rotate(180)"/><path class="c" d="M4069.2-4.449v32h-32Z" transform="translate(-2597.202 132.449)"/><path class="d" d="M32,0V32H0Z" transform="translate(1600.001 159.999) rotate(180)"/><path class="a" d="M4069.2-4.449v32h-32Z" transform="translate(-2917.203 164.449)"/><path class="b" d="M3816,27a32,32,0,0,0,32-32h-32Z" transform="translate(-2728 165)"/><path class="c" d="M4069.2-4.449v32h-32Z" transform="translate(-2885.203 164.449)"/><path class="c" d="M4069.2-4.449v32h-32Z" transform="translate(-2789.202 164.449)"/><path class="c" d="M4069.2-4.449v32h-32Z" transform="translate(-2597.202 164.449)"/><path class="c" d="M4069.2-4.449v32h-32Z" transform="translate(-2501.202 164.449)"/><path class="d" d="M4069.2-4.449v32h-32Z" transform="translate(-2981.203 196.449)"/><path class="d" d="M4069.21,245.051v-32h-32Z" transform="translate(-2821.209 -21.049)"/><path class="d" d="M4069.21,245.051v-32h-32Z" transform="translate(-2725.209 -21.049)"/><path class="d" d="M4069.2-4.449v32h-32Z" transform="translate(-2789.202 196.449)"/><path class="d" d="M4069.21,245.051v-32h-32Z" transform="translate(-2533.209 -21.049)"/><path class="d" d="M4069.2-4.449v32h-32Z" transform="translate(-2597.202 196.449)"/><path class="d" d="M4069.2-4.449v32h-32Z" transform="translate(-2501.202 196.449)"/><path class="c" d="M0,32A32,32,0,0,0,32,0H0Z" transform="translate(1152 256) rotate(-90)"/><path class="b" d="M32,0V32H0Z" transform="translate(1248 255.999) rotate(180)"/><path class="d" d="M0,32A32,32,0,0,0,32,0H0Z" transform="translate(1376 256) rotate(-90)"/><path class="b" d="M32,0V32H0Z" transform="translate(1440 255.999) rotate(180)"/><path class="b" d="M32,0V32H0Z" transform="translate(1536 255.999) rotate(180)"/><path class="c" d="M0,32A32,32,0,0,0,32,0H0Z" transform="translate(1536.001 256) rotate(-90)"/><path class="d" d="M0,32A32,32,0,0,0,32,0H0Z" transform="translate(1568.001 256) rotate(-90)"/><path class="a" d="M32,0V32H0Z" transform="translate(1184 288) rotate(-90)"/><path class="c" d="M0,32A32,32,0,0,0,32,0H0Z" transform="translate(1248 256) rotate(90)"/><path class="a" d="M32,0V32H0Z" transform="translate(1280 288) rotate(-90)"/><path class="b" d="M4069.2-4.449v32h-32Z" transform="translate(-2917.203 292.45)"/><g class="e"><path class="c" d="M4069.2-4.449v32h-32Z" transform="translate(-2981.203 164.449)"/><path class="d" d="M4069.21,245.051v-32h-32Z" transform="translate(-3013.209 -21.049)"/><path class="d" d="M4069.21,245.051v-32h-32Z" transform="translate(-2917.209 -21.049)"/><path class="d" d="M4069.2-4.449v32h-32Z" transform="translate(-2885.203 196.449)"/><path class="c" d="M0,32A32,32,0,0,0,32,0H0Z" transform="translate(1152 256) rotate(90)"/><path class="c" d="M4069.2-4.449v32h-32Z" transform="translate(-2885.203 292.45)"/></g><path class="d" d="M32,0V32H0Z" transform="translate(1216 320) rotate(180)"/><path class="d" d="M32,0V32H0Z" transform="translate(1312 320) rotate(180)"/><path class="b" d="M4069.2-4.449v32h-32Z" transform="translate(-2725.202 292.45)"/><path class="d" d="M32,0V32H0Z" transform="translate(1408 320) rotate(180)"/><path class="b" d="M4069.2-4.449v32h-32Z" transform="translate(-2629.202 292.45)"/><path class="c" d="M4069.2-4.449v32h-32Z" transform="translate(-2597.202 292.45)"/><path class="d" d="M32,0V32H0Z" transform="translate(1504 320) rotate(180)"/><path class="c" d="M4069.2-4.449v32h-32Z" transform="translate(-2501.202 292.45)"/><path class="d" d="M32,0V32H0Z" transform="translate(1600.001 320) rotate(180)"/><path class="c" d="M4069.2-4.449v32h-32Z" transform="translate(-2885.203 324.45)"/><path class="a" d="M4069.2-4.449v32h-32Z" transform="translate(-2725.202 324.45)"/><g class="e"><path class="b" d="M4069.2-4.449v32h-32Z" transform="translate(-2821.202 132.449)"/><path class="a" d="M4069.2-4.449v32h-32Z" transform="translate(-2821.202 164.449)"/><path class="a" d="M4069.2-4.449v32h-32Z" transform="translate(-2725.202 164.449)"/><path class="b" d="M3816,27a32,32,0,0,0,32-32h-32Z" transform="translate(-2535.999 165)"/><path class="c" d="M4069.2-4.449v32h-32Z" transform="translate(-2693.202 164.449)"/><path class="b" d="M3816,27a32,32,0,0,0,32-32h-32Z" transform="translate(-2343.999 165)"/><path class="d" d="M4069.21,245.051v-32h-32Z" transform="translate(-2629.209 -21.049)"/><path class="d" d="M4069.2-4.449v32h-32Z" transform="translate(-2693.202 196.449)"/><path class="c" d="M0,32A32,32,0,0,0,32,0H0Z" transform="translate(1248 256) rotate(-90)"/><path class="b" d="M32,0V32H0Z" transform="translate(1344 255.999) rotate(180)"/><path class="c" d="M0,32A32,32,0,0,0,32,0H0Z" transform="translate(1440.001 256) rotate(-90)"/><path class="d" d="M0,32A32,32,0,0,0,32,0H0Z" transform="translate(1472.001 256) rotate(-90)"/><path class="c" d="M0,32A32,32,0,0,0,32,0H0Z" transform="translate(1344 256) rotate(90)"/><path class="a" d="M32,0V32H0Z" transform="translate(1376 288) rotate(-90)"/><path class="b" d="M4069.2-4.449v32h-32Z" transform="translate(-2533.202 292.45)"/><path class="b" d="M3816,27a32,32,0,0,0,32-32h-32Z" transform="translate(-2535.999 325)"/><path class="a" d="M4069.2-4.449v32h-32Z" transform="translate(-2629.202 324.45)"/><path class="b" d="M3816,27a32,32,0,0,0,32-32h-32Z" transform="translate(-2439.999 325)"/></g><path class="c" d="M4069.2-4.449v32h-32Z" transform="translate(-2597.202 324.45)"/><g class="e"><path class="a" d="M4069.2-4.449v32h-32Z" transform="translate(-2629.202 4.449)"/><path class="b" d="M3816,27a32,32,0,0,0,32-32h-32Z" transform="translate(-2439.999 5)"/><path class="a" d="M4069.2-4.449v32h-32Z" transform="translate(-2533.202 4.449)"/><path class="b" d="M3816,27a32,32,0,0,0,32-32h-32Z" transform="translate(-2343.999 5)"/><path class="c" d="M4069.2-4.449v32h-32Z" transform="translate(-2597.202 4.449)"/><path class="b" d="M3816,27a32,32,0,0,0,32-32h-32Z" transform="translate(-2247.999 5)"/><path class="c" d="M4069.2-4.449v32h-32Z" transform="translate(-2501.202 4.449)"/><path class="d" d="M4069.21,245.051v-32h-32Z" transform="translate(-2629.209 -181.05)"/><path class="d" d="M4069.2-4.449v32h-32Z" transform="translate(-2693.202 36.449)"/><path class="d" d="M4069.21,245.051v-32h-32Z" transform="translate(-2533.209 -181.05)"/><path class="d" d="M4069.2-4.449v32h-32Z" transform="translate(-2597.202 36.449)"/><path class="d" d="M4069.2-4.449v32h-32Z" transform="translate(-2501.202 36.449)"/><path class="b" d="M32,0V32H0Z" transform="translate(1344 95.999) rotate(180)"/><path class="b" d="M32,0V32H0Z" transform="translate(1440 95.999) rotate(180)"/><path class="b" d="M32,0V32H0Z" transform="translate(1536 95.999) rotate(180)"/><path class="c" d="M0,32A32,32,0,0,0,32,0H0Z" transform="translate(1536.001 96) rotate(-90)"/><path class="a" d="M32,0V32H0Z" transform="translate(1376 128) rotate(-90)"/><path class="a" d="M32,0V32H0Z" transform="translate(1472.001 128) rotate(-90)"/><path class="c" d="M0,32A32,32,0,0,0,32,0H0Z" transform="translate(1536.001 96) rotate(90)"/><path class="a" d="M32,0V32H0Z" transform="translate(1568.001 128) rotate(-90)"/><path class="b" d="M4069.2-4.449v32h-32Z" transform="translate(-2725.202 132.449)"/><path class="c" d="M4069.2-4.449v32h-32Z" transform="translate(-2693.202 132.449)"/><path class="d" d="M32,0V32H0Z" transform="translate(1504 159.999) rotate(180)"/><path class="b" d="M4069.2-4.449v32h-32Z" transform="translate(-2533.202 132.449)"/><path class="c" d="M4069.2-4.449v32h-32Z" transform="translate(-2501.202 132.449)"/><path class="a" d="M4069.2-4.449v32h-32Z" transform="translate(-2629.202 164.449)"/><path class="b" d="M3816,27a32,32,0,0,0,32-32h-32Z" transform="translate(-2439.999 165)"/><path class="c" d="M0,32A32,32,0,0,0,32,0H0Z" transform="translate(1344 256) rotate(-90)"/><path class="c" d="M0,32A32,32,0,0,0,32,0H0Z" transform="translate(1536.001 256) rotate(90)"/><path class="c" d="M4069.2-4.449v32h-32Z" transform="translate(-2693.202 324.45)"/><path class="b" d="M3816,27a32,32,0,0,0,32-32h-32Z" transform="translate(-2247.999 325)"/></g><path class="c" d="M4069.2-4.449v32h-32Z" transform="translate(-2501.202 324.45)"/><path class="d" d="M4069.21,245.051v-32h-32Z" transform="translate(-2917.209 138.951)"/><path class="d" d="M4069.21,245.051v-32h-32Z" transform="translate(-2725.209 138.951)"/><g class="e"><path class="d" d="M0,32A32,32,0,0,0,32,0H0Z" transform="translate(1088 256) rotate(-90)"/><path class="b" d="M32,0V32H0Z" transform="translate(1152 255.999) rotate(180)"/><path class="a" d="M32,0V32H0Z" transform="translate(1088 288) rotate(-90)"/><path class="d" d="M32,0V32H0Z" transform="translate(1120 320) rotate(180)"/><path class="b" d="M4069.2-4.449v32h-32Z" transform="translate(-2821.202 292.45)"/><path class="c" d="M4069.2-4.449v32h-32Z" transform="translate(-2789.202 292.45)"/><path class="b" d="M3816,27a32,32,0,0,0,32-32h-32Z" transform="translate(-2728 325)"/><path class="a" d="M4069.2-4.449v32h-32Z" transform="translate(-2821.202 324.45)"/><path class="b" d="M3816,27a32,32,0,0,0,32-32h-32Z" transform="translate(-2632 325)"/><path class="c" d="M4069.2-4.449v32h-32Z" transform="translate(-2789.202 324.45)"/><path class="d" d="M4069.21,245.051v-32h-32Z" transform="translate(-2821.209 138.951)"/><path class="d" d="M4069.2-4.449v32h-32Z" transform="translate(-2885.203 356.45)"/><path class="d" d="M4069.2-4.449v32h-32Z" transform="translate(-2789.202 356.45)"/></g><path class="d" d="M4069.21,245.051v-32h-32Z" transform="translate(-2629.209 138.951)"/><path class="d" d="M4069.21,245.051v-32h-32Z" transform="translate(-2533.209 138.951)"/><path class="d" d="M4069.2-4.449v32h-32Z" transform="translate(-2597.202 356.45)"/><path class="d" d="M0,32A32,32,0,0,0,32,0H0Z" transform="translate(1088 416.001) rotate(-90)"/><path class="b" d="M32,0V32H0Z" transform="translate(1152 416) rotate(180)"/><path class="c" d="M0,32A32,32,0,0,0,32,0H0Z" transform="translate(1152 416.001) rotate(-90)"/><path class="d" d="M0,32A32,32,0,0,0,32,0H0Z" transform="translate(1184 416.001) rotate(-90)"/><path class="c" d="M0,32A32,32,0,0,0,32,0H0Z" transform="translate(1248 416.001) rotate(-90)"/><path class="d" d="M0,32A32,32,0,0,0,32,0H0Z" transform="translate(1280 416.001) rotate(-90)"/><path class="c" d="M0,32A32,32,0,0,0,32,0H0Z" transform="translate(1344 416.001) rotate(-90)"/><path class="d" d="M0,32A32,32,0,0,0,32,0H0Z" transform="translate(1376 416.001) rotate(-90)"/><path class="c" d="M0,32A32,32,0,0,0,32,0H0Z" transform="translate(1440.001 416.001) rotate(-90)"/><path class="d" d="M0,32A32,32,0,0,0,32,0H0Z" transform="translate(1472.001 416.001) rotate(-90)"/><path class="b" d="M32,0V32H0Z" transform="translate(1536 416) rotate(180)"/><path class="c" d="M0,32A32,32,0,0,0,32,0H0Z" transform="translate(1536.001 416.001) rotate(-90)"/><path class="d" d="M0,32A32,32,0,0,0,32,0H0Z" transform="translate(1568.001 416.001) rotate(-90)"/><path class="a" d="M32,0V32H0Z" transform="translate(1088 448) rotate(-90)"/><path class="a" d="M32,0V32H0Z" transform="translate(1184 448) rotate(-90)"/><path class="c" d="M0,32A32,32,0,0,0,32,0H0Z" transform="translate(1248 416.001) rotate(90)"/><path class="a" d="M32,0V32H0Z" transform="translate(1280 448) rotate(-90)"/><path class="c" d="M0,32A32,32,0,0,0,32,0H0Z" transform="translate(1344 416.001) rotate(90)"/><path class="a" d="M32,0V32H0Z" transform="translate(1376 448) rotate(-90)"/><path class="c" d="M0,32A32,32,0,0,0,32,0H0Z" transform="translate(1440.001 416.001) rotate(90)"/><path class="c" d="M0,32A32,32,0,0,0,32,0H0Z" transform="translate(1536.001 416.001) rotate(90)"/><path class="a" d="M32,0V32H0Z" transform="translate(1568.001 448) rotate(-90)"/><path class="c" d="M4069.2-4.449v32h-32Z" transform="translate(-2981.203 452.45)"/><path class="d" d="M32,0V32H0Z" transform="translate(1120 480) rotate(180)"/><path class="b" d="M4069.2-4.449v32h-32Z" transform="translate(-2917.203 452.45)"/><path class="d" d="M32,0V32H0Z" transform="translate(1408 480) rotate(180)"/><path class="d" d="M32,0V32H0Z" transform="translate(1504 480) rotate(180)"/><path class="c" d="M4069.2-4.449v32h-32Z" transform="translate(-2501.202 452.45)"/><path class="a" d="M4069.2-4.449v32h-32Z" transform="translate(-2437.203 4.449)"/><path class="c" d="M0,32A32,32,0,0,0,32,0H0Z" transform="translate(1632 96) rotate(90)"/><path class="a" d="M4069.2-4.449v32h-32Z" transform="translate(-2437.203 164.449)"/><path class="d" d="M4069.21,245.051v-32h-32Z" transform="translate(-2437.209 -21.049)"/><path class="b" d="M32,0V32H0Z" transform="translate(1632 255.999) rotate(180)"/><path class="c" d="M0,32A32,32,0,0,0,32,0H0Z" transform="translate(1632 256) rotate(90)"/><path class="b" d="M4069.2-4.449v32h-32Z" transform="translate(-2437.203 292.45)"/><path class="d" d="M4069.21,245.051v-32h-32Z" transform="translate(-2437.209 138.951)"/><path class="b" d="M32,0V32H0Z" transform="translate(1632 416) rotate(180)"/><path class="c" d="M0,32A32,32,0,0,0,32,0H0Z" transform="translate(1632 416.001) rotate(90)"/><path class="b" d="M4069.2-4.449v32h-32Z" transform="translate(-2437.203 452.45)"/><path class="c" d="M4069.2-4.449v32h-32Z" transform="translate(-2405.203 4.449)"/><path class="d" d="M4069.2-4.449v32h-32Z" transform="translate(-2405.203 36.449)"/><path class="c" d="M0,32A32,32,0,0,0,32,0H0Z" transform="translate(1632 96) rotate(-90)"/><path class="c" d="M4069.2-4.449v32h-32Z" transform="translate(-2405.203 132.449)"/><path class="c" d="M4069.2-4.449v32h-32Z" transform="translate(-2405.203 164.449)"/><path class="d" d="M4069.2-4.449v32h-32Z" transform="translate(-2405.203 196.449)"/><path class="c" d="M0,32A32,32,0,0,0,32,0H0Z" transform="translate(1632 256) rotate(-90)"/><path class="c" d="M4069.2-4.449v32h-32Z" transform="translate(-2405.203 292.45)"/><path class="c" d="M4069.2-4.449v32h-32Z" transform="translate(-2405.203 324.45)"/><path class="d" d="M4069.2-4.449v32h-32Z" transform="translate(-2405.203 356.45)"/><path class="c" d="M0,32A32,32,0,0,0,32,0H0Z" transform="translate(1632 416.001) rotate(-90)"/><path class="c" d="M4069.2-4.449v32h-32Z" transform="translate(-2405.203 452.45)"/><path class="b" d="M3816,27a32,32,0,0,0,32-32h-32Z" transform="translate(-2152 5)"/><path class="d" d="M0,32A32,32,0,0,0,32,0H0Z" transform="translate(1664 96) rotate(-90)"/><path class="a" d="M32,0V32H0Z" transform="translate(1664 128) rotate(-90)"/><path class="d" d="M32,0V32H0Z" transform="translate(1696 159.999) rotate(180)"/><path class="b" d="M3816,27a32,32,0,0,0,32-32h-32Z" transform="translate(-2152 165)"/><path class="d" d="M0,32A32,32,0,0,0,32,0H0Z" transform="translate(1664 256) rotate(-90)"/><path class="d" d="M32,0V32H0Z" transform="translate(1696 320) rotate(180)"/><path class="b" d="M3816,27a32,32,0,0,0,32-32h-32Z" transform="translate(-2152 325)"/><path class="a" d="M32,0V32H0Z" transform="translate(1664 448) rotate(-90)"/><path class="d" d="M32,0V32H0Z" transform="translate(1696 480) rotate(180)"/><path class="d" d="M4069.21,245.051v-32h-32Z" transform="translate(-2341.209 -181.05)"/><path class="b" d="M32,0V32H0Z" transform="translate(1728 95.999) rotate(180)"/><path class="b" d="M4069.2-4.449v32h-32Z" transform="translate(-2341.203 132.449)"/><path class="d" d="M4069.21,245.051v-32h-32Z" transform="translate(-2341.209 -21.049)"/><path class="b" d="M32,0V32H0Z" transform="translate(1728 255.999) rotate(180)"/><path class="c" d="M0,32A32,32,0,0,0,32,0H0Z" transform="translate(1728 256) rotate(90)"/><path class="b" d="M4069.2-4.449v32h-32Z" transform="translate(-2341.203 292.45)"/><path class="a" d="M4069.2-4.449v32h-32Z" transform="translate(-2341.203 324.45)"/><path class="d" d="M4069.21,245.051v-32h-32Z" transform="translate(-2341.209 138.951)"/><path class="b" d="M32,0V32H0Z" transform="translate(1728 416) rotate(180)"/><path class="c" d="M0,32A32,32,0,0,0,32,0H0Z" transform="translate(1728 416.001) rotate(90)"/><path class="b" d="M4069.2-4.449v32h-32Z" transform="translate(-2341.203 452.45)"/><path class="c" d="M4069.2-4.449v32h-32Z" transform="translate(-2309.203 4.449)"/><path class="d" d="M4069.2-4.449v32h-32Z" transform="translate(-2309.203 36.449)"/><path class="c" d="M0,32A32,32,0,0,0,32,0H0Z" transform="translate(1728 96) rotate(-90)"/><path class="c" d="M4069.2-4.449v32h-32Z" transform="translate(-2309.203 132.449)"/><path class="c" d="M4069.2-4.449v32h-32Z" transform="translate(-2309.203 164.449)"/><path class="d" d="M4069.2-4.449v32h-32Z" transform="translate(-2309.203 196.449)"/><path class="c" d="M0,32A32,32,0,0,0,32,0H0Z" transform="translate(1728 256) rotate(-90)"/><path class="c" d="M4069.2-4.449v32h-32Z" transform="translate(-2309.203 292.45)"/><path class="c" d="M4069.2-4.449v32h-32Z" transform="translate(-2309.203 324.45)"/><path class="c" d="M0,32A32,32,0,0,0,32,0H0Z" transform="translate(1728 416.001) rotate(-90)"/><path class="c" d="M4069.2-4.449v32h-32Z" transform="translate(-2309.203 452.45)"/><path class="b" d="M3816,27a32,32,0,0,0,32-32h-32Z" transform="translate(-2056 5)"/><path class="d" d="M0,32A32,32,0,0,0,32,0H0Z" transform="translate(1760 96) rotate(-90)"/><path class="d" d="M32,0V32H0Z" transform="translate(1792 159.999) rotate(180)"/><path class="a" d="M32,0V32H0Z" transform="translate(1760 288) rotate(-90)"/><path class="d" d="M32,0V32H0Z" transform="translate(1792 320) rotate(180)"/><path class="b" d="M3816,27a32,32,0,0,0,32-32h-32Z" transform="translate(-2056 325)"/><path class="d" d="M0,32A32,32,0,0,0,32,0H0Z" transform="translate(1760 416.001) rotate(-90)"/><path class="a" d="M32,0V32H0Z" transform="translate(1760 448) rotate(-90)"/><path class="d" d="M32,0V32H0Z" transform="translate(1792 480) rotate(180)"/><path class="d" d="M4069.21,245.051v-32h-32Z" transform="translate(-2245.209 -181.05)"/><path class="b" d="M32,0V32H0Z" transform="translate(1824 95.999) rotate(180)"/><path class="c" d="M0,32A32,32,0,0,0,32,0H0Z" transform="translate(1824 96) rotate(90)"/><path class="b" d="M4069.2-4.449v32h-32Z" transform="translate(-2245.203 132.449)"/><path class="a" d="M4069.2-4.449v32h-32Z" transform="translate(-2245.203 164.449)"/><path class="d" d="M4069.21,245.051v-32h-32Z" transform="translate(-2245.209 -21.049)"/><path class="b" d="M32,0V32H0Z" transform="translate(1824 255.999) rotate(180)"/><path class="c" d="M0,32A32,32,0,0,0,32,0H0Z" transform="translate(1824 256) rotate(90)"/><path class="b" d="M4069.2-4.449v32h-32Z" transform="translate(-2245.203 292.45)"/><path class="d" d="M4069.21,245.051v-32h-32Z" transform="translate(-2245.209 138.951)"/><path class="b" d="M32,0V32H0Z" transform="translate(1824 416) rotate(180)"/><path class="c" d="M0,32A32,32,0,0,0,32,0H0Z" transform="translate(1824 416.001) rotate(90)"/><path class="c" d="M4069.2-4.449v32h-32Z" transform="translate(-2213.203 4.449)"/><path class="c" d="M0,32A32,32,0,0,0,32,0H0Z" transform="translate(1824 96) rotate(-90)"/><path class="c" d="M4069.2-4.449v32h-32Z" transform="translate(-2213.203 132.449)"/><path class="c" d="M4069.2-4.449v32h-32Z" transform="translate(-2213.203 164.449)"/><path class="d" d="M4069.2-4.449v32h-32Z" transform="translate(-2213.203 196.449)"/><path class="c" d="M0,32A32,32,0,0,0,32,0H0Z" transform="translate(1824 256) rotate(-90)"/><path class="c" d="M4069.2-4.449v32h-32Z" transform="translate(-2213.203 292.45)"/><path class="c" d="M4069.2-4.449v32h-32Z" transform="translate(-2213.203 324.45)"/><path class="d" d="M4069.2-4.449v32h-32Z" transform="translate(-2213.203 356.45)"/><path class="c" d="M4069.2-4.449v32h-32Z" transform="translate(-2213.203 452.45)"/><path class="b" d="M3816,27a32,32,0,0,0,32-32h-32Z" transform="translate(-1960 5)"/><path class="d" d="M0,32A32,32,0,0,0,32,0H0Z" transform="translate(1856 96) rotate(-90)"/><path class="d" d="M32,0V32H0Z" transform="translate(1888 159.999) rotate(180)"/><path class="d" d="M0,32A32,32,0,0,0,32,0H0Z" transform="translate(1856 256) rotate(-90)"/><path class="d" d="M32,0V32H0Z" transform="translate(1888 320) rotate(180)"/><path class="b" d="M3816,27a32,32,0,0,0,32-32h-32Z" transform="translate(-1960 325)"/><path class="d" d="M0,32A32,32,0,0,0,32,0H0Z" transform="translate(1856 416.001) rotate(-90)"/><path class="a" d="M32,0V32H0Z" transform="translate(1856 448) rotate(-90)"/><path class="d" d="M32,0V32H0Z" transform="translate(1888 480) rotate(180)"/><path class="a" d="M4069.2-4.449v32h-32Z" transform="translate(-2149.203 4.449)"/><path class="d" d="M4069.21,245.051v-32h-32Z" transform="translate(-2149.209 -181.05)"/><path class="b" d="M32,0V32H0Z" transform="translate(1920 95.999) rotate(180)"/><path class="c" d="M0,32A32,32,0,0,0,32,0H0Z" transform="translate(1920 96) rotate(90)"/><path class="b" d="M4069.2-4.449v32h-32Z" transform="translate(-2149.203 132.449)"/><path class="a" d="M4069.2-4.449v32h-32Z" transform="translate(-2149.203 164.449)"/><path class="d" d="M4069.21,245.051v-32h-32Z" transform="translate(-2149.209 -21.049)"/><path class="b" d="M32,0V32H0Z" transform="translate(1920 255.999) rotate(180)"/><path class="c" d="M0,32A32,32,0,0,0,32,0H0Z" transform="translate(1920 256) rotate(90)"/><path class="b" d="M4069.2-4.449v32h-32Z" transform="translate(-2149.203 292.45)"/><path class="a" d="M4069.2-4.449v32h-32Z" transform="translate(-2149.203 324.45)"/><path class="d" d="M4069.21,245.051v-32h-32Z" transform="translate(-2149.209 138.951)"/><path class="c" d="M0,32A32,32,0,0,0,32,0H0Z" transform="translate(1920 416.001) rotate(90)"/><path class="b" d="M4069.2-4.449v32h-32Z" transform="translate(-2149.203 452.45)"/><g class="e"><path class="d" d="M0,32A32,32,0,0,0,32,0H0Z" transform="translate(992 256) rotate(-90)"/><path class="b" d="M32,0V32H0Z" transform="translate(1056 255.999) rotate(180)"/><path class="c" d="M0,32A32,32,0,0,0,32,0H0Z" transform="translate(1056 256) rotate(-90)"/><path class="a" d="M32,0V32H0Z" transform="translate(992 288) rotate(-90)"/><path class="c" d="M0,32A32,32,0,0,0,32,0H0Z" transform="translate(1056 256) rotate(90)"/><path class="d" d="M32,0V32H0Z" transform="translate(1024 320) rotate(180)"/><path class="b" d="M4069.2-4.449v32h-32Z" transform="translate(-3013.203 292.45)"/><path class="c" d="M4069.2-4.449v32h-32Z" transform="translate(-2981.203 292.45)"/><path class="a" d="M4069.2-4.449v32h-32Z" transform="translate(-3013.203 324.45)"/><path class="b" d="M3816,27a32,32,0,0,0,32-32h-32Z" transform="translate(-2824 325)"/><path class="c" d="M4069.2-4.449v32h-32Z" transform="translate(-2981.203 324.45)"/><path class="d" d="M4069.21,245.051v-32h-32Z" transform="translate(-3013.209 138.951)"/><path class="d" d="M4069.2-4.449v32h-32Z" transform="translate(-2981.203 356.45)"/><path class="d" d="M0,32A32,32,0,0,0,32,0H0Z" transform="translate(992 416.001) rotate(-90)"/><path class="c" d="M0,32A32,32,0,0,0,32,0H0Z" transform="translate(1056 416.001) rotate(-90)"/><path class="a" d="M32,0V32H0Z" transform="translate(992 448) rotate(-90)"/><path class="c" d="M0,32A32,32,0,0,0,32,0H0Z" transform="translate(1056 416.001) rotate(90)"/><path class="d" d="M32,0V32H0Z" transform="translate(1024 480) rotate(180)"/><path class="b" d="M4069.2-4.449v32h-32Z" transform="translate(-3013.203 452.45)"/><path class="a" d="M4069.2-4.449v32h-32Z" transform="translate(-3013.203 484.449)"/><path class="b" d="M3816,27a32,32,0,0,0,32-32h-32Z" transform="translate(-2824 485)"/></g><path class="a" d="M4069.2-4.449v32h-32Z" transform="translate(-2917.203 484.449)"/><path class="b" d="M3816,27a32,32,0,0,0,32-32h-32Z" transform="translate(-2728 485)"/><path class="c" d="M4069.2-4.449v32h-32Z" transform="translate(-2981.203 484.449)"/><path class="b" d="M3816,27a32,32,0,0,0,32-32h-32Z" transform="translate(-2632 485)"/><path class="c" d="M4069.2-4.449v32h-32Z" transform="translate(-2885.203 484.449)"/><path class="a" d="M4069.2-4.449v32h-32Z" transform="translate(-2629.202 484.449)"/><path class="b" d="M3816,27a32,32,0,0,0,32-32h-32Z" transform="translate(-2439.999 485)"/><path class="c" d="M4069.2-4.449v32h-32Z" transform="translate(-2693.202 484.449)"/><path class="a" d="M4069.2-4.449v32h-32Z" transform="translate(-2533.202 484.449)"/><path class="b" d="M3816,27a32,32,0,0,0,32-32h-32Z" transform="translate(-2343.999 485)"/><path class="c" d="M4069.2-4.449v32h-32Z" transform="translate(-2597.202 484.449)"/><path class="b" d="M3816,27a32,32,0,0,0,32-32h-32Z" transform="translate(-2247.999 485)"/><path class="c" d="M4069.2-4.449v32h-32Z" transform="translate(-2501.202 484.449)"/><path class="d" d="M4069.21,245.051v-32h-32Z" transform="translate(-3013.209 298.95)"/><path class="d" d="M4069.21,245.051v-32h-32Z" transform="translate(-2917.209 298.95)"/><path class="d" d="M4069.21,245.051v-32h-32Z" transform="translate(-2821.209 298.95)"/><path class="d" d="M4069.21,245.051v-32h-32Z" transform="translate(-2725.209 298.95)"/><path class="d" d="M4069.2-4.449v32h-32Z" transform="translate(-2789.202 516.449)"/><path class="d" d="M4069.21,245.051v-32h-32Z" transform="translate(-2629.209 298.95)"/><path class="d" d="M4069.2-4.449v32h-32Z" transform="translate(-2693.202 516.449)"/><path class="d" d="M4069.21,245.051v-32h-32Z" transform="translate(-2533.209 298.95)"/><path class="d" d="M4069.2-4.449v32h-32Z" transform="translate(-2501.202 516.449)"/><path class="d" d="M0,32A32,32,0,0,0,32,0H0Z" transform="translate(1184 576) rotate(-90)"/><path class="c" d="M0,32A32,32,0,0,0,32,0H0Z" transform="translate(1344 576) rotate(-90)"/><path class="d" d="M0,32A32,32,0,0,0,32,0H0Z" transform="translate(1376 576) rotate(-90)"/><path class="b" d="M32,0V32H0Z" transform="translate(1440 575.999) rotate(180)"/><path class="c" d="M0,32A32,32,0,0,0,32,0H0Z" transform="translate(1440.001 576) rotate(-90)"/><path class="d" d="M0,32A32,32,0,0,0,32,0H0Z" transform="translate(1472.001 576) rotate(-90)"/><path class="c" d="M0,32A32,32,0,0,0,32,0H0Z" transform="translate(1536.001 576) rotate(-90)"/><path class="d" d="M0,32A32,32,0,0,0,32,0H0Z" transform="translate(1568.001 576) rotate(-90)"/><path class="c" d="M0,32A32,32,0,0,0,32,0H0Z" transform="translate(1248 576) rotate(90)"/><path class="c" d="M0,32A32,32,0,0,0,32,0H0Z" transform="translate(1440.001 576) rotate(90)"/><path class="a" d="M32,0V32H0Z" transform="translate(1472.001 608) rotate(-90)"/><path class="c" d="M0,32A32,32,0,0,0,32,0H0Z" transform="translate(1536.001 576) rotate(90)"/><g class="e"><path class="c" d="M4069.2-4.449v32h-32Z" transform="translate(-3077.203 4.449)"/><path class="d" d="M4069.2-4.449v32h-32Z" transform="translate(-3077.203 36.449)"/><path class="c" d="M0,32A32,32,0,0,0,32,0H0Z" transform="translate(960 96) rotate(-90)"/><path class="c" d="M4069.2-4.449v32h-32Z" transform="translate(-3077.203 132.449)"/><path class="c" d="M4069.2-4.449v32h-32Z" transform="translate(-3077.203 164.449)"/><path class="d" d="M4069.2-4.449v32h-32Z" transform="translate(-3077.203 196.449)"/><path class="c" d="M0,32A32,32,0,0,0,32,0H0Z" transform="translate(960 256) rotate(-90)"/><path class="c" d="M4069.2-4.449v32h-32Z" transform="translate(-3077.203 452.45)"/><path class="d" d="M4069.2-4.449v32h-32Z" transform="translate(-3077.203 516.449)"/><path class="c" d="M0,32A32,32,0,0,0,32,0H0Z" transform="translate(960 576) rotate(-90)"/><path class="c" d="M4069.2-4.449v32h-32Z" transform="translate(-3077.203 612.449)"/></g><path class="c" d="M4069.2-4.449v32h-32Z" transform="translate(-2885.203 612.449)"/><path class="d" d="M32,0V32H0Z" transform="translate(1216 639.999) rotate(180)"/><path class="d" d="M32,0V32H0Z" transform="translate(1312 639.999) rotate(180)"/><path class="d" d="M32,0V32H0Z" transform="translate(1408 639.999) rotate(180)"/><path class="c" d="M4069.2-4.449v32h-32Z" transform="translate(-2597.202 612.449)"/><path class="d" d="M32,0V32H0Z" transform="translate(1504 639.999) rotate(180)"/><path class="b" d="M4069.2-4.449v32h-32Z" transform="translate(-2533.202 612.449)"/><path class="c" d="M4069.2-4.449v32h-32Z" transform="translate(-2501.202 612.449)"/><path class="d" d="M32,0V32H0Z" transform="translate(1600.001 639.999) rotate(180)"/><path class="d" d="M4069.21,245.051v-32h-32Z" transform="translate(-2437.209 298.95)"/><path class="b" d="M32,0V32H0Z" transform="translate(1632 575.999) rotate(180)"/><path class="c" d="M0,32A32,32,0,0,0,32,0H0Z" transform="translate(1632 576) rotate(90)"/><path class="c" d="M4069.2-4.449v32h-32Z" transform="translate(-2405.203 484.449)"/><path class="d" d="M4069.2-4.449v32h-32Z" transform="translate(-2405.203 516.449)"/><path class="c" d="M0,32A32,32,0,0,0,32,0H0Z" transform="translate(1632 576) rotate(-90)"/><path class="c" d="M4069.2-4.449v32h-32Z" transform="translate(-2405.203 612.449)"/><path class="a" d="M32,0V32H0Z" transform="translate(1664 608) rotate(-90)"/><path class="d" d="M32,0V32H0Z" transform="translate(1696 639.999) rotate(180)"/><path class="a" d="M4069.2-4.449v32h-32Z" transform="translate(-2341.203 484.449)"/><path class="d" d="M4069.21,245.051v-32h-32Z" transform="translate(-2341.209 298.95)"/><path class="b" d="M32,0V32H0Z" transform="translate(1728 575.999) rotate(180)"/><path class="c" d="M0,32A32,32,0,0,0,32,0H0Z" transform="translate(1728 576) rotate(90)"/><path class="b" d="M4069.2-4.449v32h-32Z" transform="translate(-2341.203 612.449)"/><path class="c" d="M4069.2-4.449v32h-32Z" transform="translate(-2309.203 484.449)"/><path class="c" d="M0,32A32,32,0,0,0,32,0H0Z" transform="translate(1728 576) rotate(-90)"/><path class="c" d="M4069.2-4.449v32h-32Z" transform="translate(-2309.203 612.449)"/><path class="b" d="M3816,27a32,32,0,0,0,32-32h-32Z" transform="translate(-2056 485)"/><path class="d" d="M0,32A32,32,0,0,0,32,0H0Z" transform="translate(1760 576) rotate(-90)"/><path class="a" d="M32,0V32H0Z" transform="translate(1760 608) rotate(-90)"/><path class="a" d="M4069.2-4.449v32h-32Z" transform="translate(-2245.203 484.449)"/><path class="d" d="M4069.21,245.051v-32h-32Z" transform="translate(-2245.209 298.95)"/><path class="b" d="M32,0V32H0Z" transform="translate(1824 575.999) rotate(180)"/><path class="c" d="M0,32A32,32,0,0,0,32,0H0Z" transform="translate(1824 576) rotate(90)"/><path class="b" d="M4069.2-4.449v32h-32Z" transform="translate(-2245.203 612.449)"/><path class="c" d="M4069.2-4.449v32h-32Z" transform="translate(-2213.203 484.449)"/><path class="d" d="M4069.2-4.449v32h-32Z" transform="translate(-2213.203 516.449)"/><path class="c" d="M0,32A32,32,0,0,0,32,0H0Z" transform="translate(1824 576) rotate(-90)"/><path class="c" d="M4069.2-4.449v32h-32Z" transform="translate(-2213.203 612.449)"/><path class="b" d="M3816,27a32,32,0,0,0,32-32h-32Z" transform="translate(-1960 485)"/><path class="d" d="M0,32A32,32,0,0,0,32,0H0Z" transform="translate(1856 576) rotate(-90)"/><path class="d" d="M32,0V32H0Z" transform="translate(1888 639.999) rotate(180)"/><path class="a" d="M4069.2-4.449v32h-32Z" transform="translate(-2149.203 484.449)"/><path class="d" d="M4069.21,245.051v-32h-32Z" transform="translate(-2149.209 298.95)"/><path class="b" d="M32,0V32H0Z" transform="translate(1920 575.999) rotate(180)"/><path class="c" d="M0,32A32,32,0,0,0,32,0H0Z" transform="translate(1920 576) rotate(90)"/><path class="b" d="M4069.2-4.449v32h-32Z" transform="translate(-2149.203 612.449)"/><path class="b" d="M3816,27a32,32,0,0,0,32-32h-32Z" transform="translate(-2632 645)"/><path class="f" d="M4069.2-4.449v32h-32Z" transform="translate(-2885.203 644.449)"/><path class="g" d="M4069.2-4.449v32h-32Z" transform="translate(-2885.203 4.449)"/><path class="g" d="M0,32A32,32,0,0,0,32,0H0Z" transform="translate(1440.001 256) rotate(90)"/><path class="g" d="M4069.2-4.449v32h-32Z" transform="translate(-2693.202 292.45)"/><path class="h" d="M4069.2-4.449v32h-32Z" transform="translate(-2917.203 324.45)"/><path class="i" d="M32,0V32H0Z" transform="translate(1056 416) rotate(180)"/><path class="h" d="M32,0V32H0Z" transform="translate(1472.001 448) rotate(-90)"/><path class="h" d="M4069.2-4.449v32h-32Z" transform="translate(-2341.203 4.449)"/><path class="h" d="M4069.2-4.449v32h-32Z" transform="translate(-2245.203 4.449)"/><path class="g" d="M4069.2-4.449v32h-32Z" transform="translate(-2789.202 484.449)"/><path class="g" d="M0,32A32,32,0,0,0,32,0H0Z" transform="translate(1152 576) rotate(-90)"/><path class="j" d="M32,0V32H0Z" transform="translate(1120 639.999) rotate(180)"/><path class="h" d="M4069.2-4.449v32h-32Z" transform="translate(-2725.202 644.449)"/><path class="a" d="M4069.2-4.449v32h-32Z" transform="translate(-2629.202 644.449)"/><g class="e"><path class="c" d="M4069.2-4.449v32h-32Z" transform="translate(-2885.203 452.45)"/><path class="d" d="M32,0V32H0Z" transform="translate(1216 480) rotate(180)"/><path class="b" d="M4069.2-4.449v32h-32Z" transform="translate(-2821.202 452.45)"/><path class="c" d="M4069.2-4.449v32h-32Z" transform="translate(-2789.202 452.45)"/><path class="d" d="M32,0V32H0Z" transform="translate(1312 480) rotate(180)"/><path class="b" d="M4069.2-4.449v32h-32Z" transform="translate(-2725.202 452.45)"/><path class="a" d="M4069.2-4.449v32h-32Z" transform="translate(-2821.202 484.449)"/><path class="a" d="M4069.2-4.449v32h-32Z" transform="translate(-2725.202 484.449)"/><path class="b" d="M3816,27a32,32,0,0,0,32-32h-32Z" transform="translate(-2535.999 485)"/><path class="b" d="M32,0V32H0Z" transform="translate(1248 575.999) rotate(180)"/><path class="d" d="M0,32A32,32,0,0,0,32,0H0Z" transform="translate(1280 576) rotate(-90)"/><path class="b" d="M32,0V32H0Z" transform="translate(1344 575.999) rotate(180)"/><path class="a" d="M32,0V32H0Z" transform="translate(1280 608) rotate(-90)"/><path class="c" d="M0,32A32,32,0,0,0,32,0H0Z" transform="translate(1344 576) rotate(90)"/><path class="b" d="M4069.2-4.449v32h-32Z" transform="translate(-2821.202 612.449)"/><path class="c" d="M4069.2-4.449v32h-32Z" transform="translate(-2789.202 612.449)"/><path class="b" d="M4069.2-4.449v32h-32Z" transform="translate(-2725.202 612.449)"/><path class="a" d="M4069.2-4.449v32h-32Z" transform="translate(-2821.202 644.449)"/><path class="b" d="M3816,27a32,32,0,0,0,32-32h-32Z" transform="translate(-2535.999 645)"/><path class="c" d="M4069.2-4.449v32h-32Z" transform="translate(-2789.202 644.449)"/><path class="b" d="M3816,27a32,32,0,0,0,32-32h-32Z" transform="translate(-2439.999 645)"/></g><path class="c" d="M4069.2-4.449v32h-32Z" transform="translate(-2693.202 644.449)"/><path class="k" d="M0,32A32,32,0,0,0,32,0H0Z" transform="translate(1344 96) rotate(-90)"/><path class="l" d="M32,0V32H0Z" transform="translate(1280 128) rotate(-90)"/><path class="m" d="M32,0V32H0Z" transform="translate(1408 159.999) rotate(180)"/><path class="n" d="M4069.2-4.449v32h-32Z" transform="translate(-2629.202 132.449)"/><path class="m" d="M0,32A32,32,0,0,0,32,0H0Z" transform="translate(1184 256) rotate(-90)"/><path class="l" d="M32,0V32H0Z" transform="translate(1568.001 288) rotate(-90)"/><path class="n" d="M32,0V32H0Z" transform="translate(1440 416) rotate(180)"/><path class="k" d="M4069.2-4.449v32h-32Z" transform="translate(-2597.202 452.45)"/><path class="l" d="M4069.2-4.449v32h-32Z" transform="translate(-2437.203 324.45)"/><path class="l" d="M4069.2-4.449v32h-32Z" transform="translate(-2341.203 164.449)"/><path class="m" d="M4069.2-4.449v32h-32Z" transform="translate(-2309.203 356.45)"/><path class="k" d="M0,32A32,32,0,0,0,32,0H0Z" transform="translate(1824 416.001) rotate(-90)"/><path class="l" d="M32,0V32H0Z" transform="translate(1856 288) rotate(-90)"/><path class="n" d="M32,0V32H0Z" transform="translate(1920 416) rotate(180)"/><path class="m" d="M4069.2-4.449v32h-32Z" transform="translate(-2885.203 516.449)"/><path class="k" d="M0,32A32,32,0,0,0,32,0H0Z" transform="translate(1248 576) rotate(-90)"/><path class="n" d="M32,0V32H0Z" transform="translate(1536 575.999) rotate(180)"/><path class="l" d="M32,0V32H0Z" transform="translate(1184 608) rotate(-90)"/><path class="k" d="M4069.2-4.449v32h-32Z" transform="translate(-2693.202 612.449)"/><path class="l" d="M4069.2-4.449v32h-32Z" transform="translate(-2437.203 484.449)"/><path class="l" d="M4069.2-4.449v32h-32Z" transform="translate(-2533.202 644.449)"/><path class="b" d="M3816,27a32,32,0,0,0,32-32h-32Z" transform="translate(-2343.999 645)"/><path class="c" d="M4069.2-4.449v32h-32Z" transform="translate(-2597.202 644.449)"/><path class="b" d="M3816,27a32,32,0,0,0,32-32h-32Z" transform="translate(-2247.999 645)"/><path class="c" d="M4069.2-4.449v32h-32Z" transform="translate(-2501.202 644.449)"/><g class="e"><path class="d" d="M32,0V32H0Z" transform="translate(1024 159.999) rotate(180)"/><path class="b" d="M3816,27a32,32,0,0,0,32-32h-32Z" transform="translate(-2824 165)"/><path class="c" d="M4069.2-4.449v32h-32Z" transform="translate(-3077.203 292.45)"/><path class="c" d="M4069.2-4.449v32h-32Z" transform="translate(-3077.203 324.45)"/><path class="d" d="M4069.2-4.449v32h-32Z" transform="translate(-3077.203 356.45)"/><path class="c" d="M0,32A32,32,0,0,0,32,0H0Z" transform="translate(960 416.001) rotate(-90)"/><path class="c" d="M4069.2-4.449v32h-32Z" transform="translate(-3077.203 484.449)"/><path class="d" d="M0,32A32,32,0,0,0,32,0H0Z" transform="translate(992 576) rotate(-90)"/><path class="b" d="M32,0V32H0Z" transform="translate(1056 575.999) rotate(180)"/><path class="c" d="M0,32A32,32,0,0,0,32,0H0Z" transform="translate(1056 576) rotate(-90)"/><path class="d" d="M0,32A32,32,0,0,0,32,0H0Z" transform="translate(1088 576) rotate(-90)"/><path class="b" d="M32,0V32H0Z" transform="translate(1152 575.999) rotate(180)"/><path class="a" d="M32,0V32H0Z" transform="translate(992 608) rotate(-90)"/><path class="c" d="M0,32A32,32,0,0,0,32,0H0Z" transform="translate(1056 576) rotate(90)"/><path class="a" d="M32,0V32H0Z" transform="translate(1088 608) rotate(-90)"/><path class="c" d="M0,32A32,32,0,0,0,32,0H0Z" transform="translate(1152 576) rotate(90)"/><path class="d" d="M32,0V32H0Z" transform="translate(1024 639.999) rotate(180)"/><path class="b" d="M4069.2-4.449v32h-32Z" transform="translate(-3013.203 612.449)"/><path class="c" d="M4069.2-4.449v32h-32Z" transform="translate(-2981.203 612.449)"/><path class="b" d="M4069.2-4.449v32h-32Z" transform="translate(-2917.203 612.449)"/><path class="a" d="M4069.2-4.449v32h-32Z" transform="translate(-3013.203 644.449)"/><path class="b" d="M3816,27a32,32,0,0,0,32-32h-32Z" transform="translate(-2824 645)"/><path class="c" d="M4069.2-4.449v32h-32Z" transform="translate(-3077.203 644.449)"/><path class="a" d="M4069.2-4.449v32h-32Z" transform="translate(-2917.203 644.449)"/><path class="b" d="M3816,27a32,32,0,0,0,32-32h-32Z" transform="translate(-2728 645)"/><path class="c" d="M4069.2-4.449v32h-32Z" transform="translate(-2981.203 644.449)"/><path class="d" d="M4069.21,245.051v-32h-32Z" transform="translate(-3013.209 458.95)"/><path class="d" d="M4069.2-4.449v32h-32Z" transform="translate(-3077.203 676.449)"/><path class="d" d="M4069.21,245.051v-32h-32Z" transform="translate(-2917.209 458.95)"/><path class="d" d="M4069.2-4.449v32h-32Z" transform="translate(-2981.203 676.449)"/></g><path class="d" d="M4069.21,245.051v-32h-32Z" transform="translate(-2821.209 458.95)"/><path class="d" d="M4069.2-4.449v32h-32Z" transform="translate(-2885.203 676.449)"/><path class="d" d="M4069.21,245.051v-32h-32Z" transform="translate(-2725.209 458.95)"/><path class="d" d="M4069.21,245.051v-32h-32Z" transform="translate(-2629.209 458.95)"/><path class="d" d="M4069.2-4.449v32h-32Z" transform="translate(-2693.202 676.449)"/><path class="d" d="M4069.21,245.051v-32h-32Z" transform="translate(-2533.209 458.95)"/><path class="o" d="M4069.2-4.449v32h-32Z" transform="translate(-2597.202 676.449)"/><path class="d" d="M4069.2-4.449v32h-32Z" transform="translate(-2501.202 676.449)"/><path class="a" d="M4069.2-4.449v32h-32Z" transform="translate(-2437.203 644.449)"/><path class="d" d="M4069.21,245.051v-32h-32Z" transform="translate(-2437.209 458.95)"/><path class="c" d="M4069.2-4.449v32h-32Z" transform="translate(-2405.203 644.449)"/><path class="d" d="M4069.2-4.449v32h-32Z" transform="translate(-2405.203 676.449)"/><path class="a" d="M4069.2-4.449v32h-32Z" transform="translate(-2341.203 644.449)"/><path class="d" d="M4069.21,245.051v-32h-32Z" transform="translate(-2341.209 458.95)"/><path class="c" d="M4069.2-4.449v32h-32Z" transform="translate(-2309.203 644.449)"/><path class="d" d="M4069.2-4.449v32h-32Z" transform="translate(-2309.203 676.449)"/><path class="b" d="M3816,27a32,32,0,0,0,32-32h-32Z" transform="translate(-2056 645)"/><path class="p" d="M4069.2-4.449v32h-32Z" transform="translate(-3013.203 164.449)"/><path class="q" d="M3816,27a32,32,0,0,0,32-32h-32Z" transform="translate(-2632 165)"/><path class="o" d="M0,32A32,32,0,0,0,32,0H0Z" transform="translate(1280 256) rotate(-90)"/><path class="p" d="M4069.2-4.449v32h-32Z" transform="translate(-2533.202 324.45)"/><path class="q" d="M32,0V32H0Z" transform="translate(1344 416) rotate(180)"/><path class="f" d="M0,32A32,32,0,0,0,32,0H0Z" transform="translate(1152 416.001) rotate(90)"/><path class="q" d="M4069.2-4.449v32h-32Z" transform="translate(-2629.202 452.45)"/><path class="q" d="M4069.2-4.449v32h-32Z" transform="translate(-2437.203 132.449)"/><path class="p" d="M32,0V32H0Z" transform="translate(1376 608) rotate(-90)"/><path class="p" d="M32,0V32H0Z" transform="translate(1568.001 608) rotate(-90)"/><path class="q" d="M4069.2-4.449v32h-32Z" transform="translate(-2629.202 612.449)"/><path class="q" d="M4069.2-4.449v32h-32Z" transform="translate(-2437.203 612.449)"/><path class="p" d="M32,0V32H0Z" transform="translate(1856 608) rotate(-90)"/><path class="p" d="M4069.2-4.449v32h-32Z" transform="translate(-2245.203 644.449)"/><path class="d" d="M4069.21,245.051v-32h-32Z" transform="translate(-2245.209 458.95)"/><path class="c" d="M4069.2-4.449v32h-32Z" transform="translate(-2213.203 644.449)"/><path class="d" d="M4069.2-4.449v32h-32Z" transform="translate(-2213.203 676.449)"/><path class="b" d="M3816,27a32,32,0,0,0,32-32h-32Z" transform="translate(-1960 645)"/><path class="a" d="M4069.2-4.449v32h-32Z" transform="translate(-2149.203 644.449)"/><path class="d" d="M4069.2-4.449v32h-32Z" transform="translate(-2789.202 676.449)"/><path class="r" d="M4069.2-4.449v32h-32Z" transform="translate(-2533.202 164.449)"/><path class="s" d="M3816,27a32,32,0,0,0,32-32h-32Z" transform="translate(-2247.999 165)"/><path class="r" d="M32,0V32H0Z" transform="translate(1472.001 288) rotate(-90)"/><path class="s" d="M3816,27a32,32,0,0,0,32-32h-32Z" transform="translate(-2343.999 325)"/><path class="t" d="M4069.2-4.449v32h-32Z" transform="translate(-2693.202 356.45)"/><path class="t" d="M4069.2-4.449v32h-32Z" transform="translate(-2501.202 356.45)"/><path class="s" d="M32,0V32H0Z" transform="translate(1248 416) rotate(180)"/><path class="u" d="M4069.2-4.449v32h-32Z" transform="translate(-2693.202 452.45)"/><path class="s" d="M4069.2-4.449v32h-32Z" transform="translate(-2533.202 452.45)"/><path class="t" d="M32,0V32H0Z" transform="translate(1600.001 480) rotate(180)"/><path class="t" d="M4069.21,245.051v-32h-32Z" transform="translate(-2437.209 -181.05)"/><path class="s" d="M32,0V32H0Z" transform="translate(1632 95.999) rotate(180)"/><path class="r" d="M32,0V32H0Z" transform="translate(1664 288) rotate(-90)"/><path class="t" d="M0,32A32,32,0,0,0,32,0H0Z" transform="translate(1664 416.001) rotate(-90)"/><path class="u" d="M0,32A32,32,0,0,0,32,0H0Z" transform="translate(1728 96) rotate(90)"/><path class="r" d="M32,0V32H0Z" transform="translate(1760 128) rotate(-90)"/><path class="s" d="M3816,27a32,32,0,0,0,32-32h-32Z" transform="translate(-2056 165)"/><path class="t" d="M0,32A32,32,0,0,0,32,0H0Z" transform="translate(1760 256) rotate(-90)"/><path class="r" d="M4069.2-4.449v32h-32Z" transform="translate(-2245.203 324.45)"/><path class="s" d="M4069.2-4.449v32h-32Z" transform="translate(-2245.203 452.45)"/><path class="t" d="M4069.2-4.449v32h-32Z" transform="translate(-2213.203 36.449)"/><path class="r" d="M32,0V32H0Z" transform="translate(1856 128) rotate(-90)"/><path class="s" d="M3816,27a32,32,0,0,0,32-32h-32Z" transform="translate(-1960 165)"/><path class="t" d="M4069.2-4.449v32h-32Z" transform="translate(-2981.203 516.449)"/><path class="t" d="M4069.2-4.449v32h-32Z" transform="translate(-2597.202 516.449)"/><path class="s" d="M3816,27a32,32,0,0,0,32-32h-32Z" transform="translate(-2152 485)"/><path class="t" d="M0,32A32,32,0,0,0,32,0H0Z" transform="translate(1664 576) rotate(-90)"/><path class="t" d="M4069.2-4.449v32h-32Z" transform="translate(-2309.203 516.449)"/><path class="t" d="M32,0V32H0Z" transform="translate(1792 639.999) rotate(180)"/><path class="s" d="M3816,27a32,32,0,0,0,32-32h-32Z" transform="translate(-2152 645)"/><path class="t" d="M4069.21,245.051v-32h-32Z" transform="translate(-2149.209 458.95)"/></g></svg>