<?xml version="1.0" encoding="utf-8"?>
<!-- Generator: Adobe Illustrator 23.0.3, SVG Export Plug-In . SVG Version: 6.00 Build 0)  -->
<svg version="1.1" id="Layer_1" xmlns="http://www.w3.org/2000/svg" xmlns:xlink="http://www.w3.org/1999/xlink" x="0px" y="0px"
	 viewBox="0 0 288.2 68.7" style="enable-background:new 0 0 288.2 68.7;" xml:space="preserve">
<style type="text/css">
	.st0{fill:#E33445;}
	.st1{fill:#FFFFFF;}
</style>
<g id="wmms" transform="translate(-1, -1)">
	<path class="st0" d="M274.9,1.4h10.5v20.9h-10.5V1.4z M256.8,11.9l-0.6,0.2c0,0,3.6,3,3.6,3.2c0.2,0.2,0.4,0.2,0.2,0.8
		c-0.2,0.6-0.4,1.2-0.4,1.2s3.2-0.6,3.6-0.8c0.4,0,0.6,0,0.6,0.4s-0.2,3.8-0.2,3.8h1c0,0-0.2-3.6-0.2-3.8c0-0.4,0.2-0.4,0.6-0.4
		s3.6,0.8,3.6,0.8s-0.2-0.8-0.4-1.2c-0.2-0.6,0-0.6,0.2-0.8s3.6-3.2,3.6-3.2l-0.6-0.2c-0.4-0.2-0.2-0.4-0.2-0.6
		c0-0.2,0.6-2.2,0.6-2.2s-1.6,0.4-1.8,0.4c-0.2,0-0.4,0-0.4-0.2s-0.4-1-0.4-1s-1.8,2-2,2.2c-0.4,0.4-0.8,0-0.6-0.4
		c0-0.4,1-4.6,1-4.6s-1,0.6-1.4,0.8c-0.4,0.2-0.6,0.2-0.6-0.2c-0.2-0.4-1.4-2.6-1.4-2.8c0,0-1.2,2.4-1.4,2.8
		c-0.2,0.4-0.4,0.4-0.6,0.2c-0.4-0.2-1.4-0.8-1.4-0.8s1,4.2,1,4.6s-0.2,0.6-0.6,0.4l-2-2.2c0,0-0.2,0.6-0.4,0.8
		c0,0.2-0.2,0.4-0.4,0.2c-0.4,0-2-0.4-2-0.4s0.6,2,0.8,2.2C257.2,11.3,257.2,11.7,256.8,11.9z M243.3,1.4h10.5v20.9h-10.5V1.4z"/>
	<path class="st1" d="M287.6,64.3c-0.8,1.8-2.4,2.4-3.4,2.4c-1.2,0-4.8-0.2-4.8-9.7c0,0,0-19.1,0-20.3c0-6.2-4.8-11.3-17.3-11.3
		c-13.5,0-13.7,6.6-13.7,8.3c-0.2,1.8,0.8,3.8,4.2,3.8c3,0,3.8-3.4,4.2-4.6c0.4-1.4,0.6-5.4,6-5.4c4.6,0,7.5,4,7.7,9.9
		c0,1,0,1.6,0,2.2c0,0.4,0,0.6,0,1l0,0l0,0v0.2c-0.4,2-1.4,3-3.2,3.8c-2.4,1.2-9.5,2.2-10.3,2.4c-2.8,0.6-10.7,2.6-10.5,10.9
		c0.2,8.1,8.3,10.9,13.9,10.7c5.4-0.2,8.7-2.4,10.1-3.6c0.8-0.6,0.8-0.6,1.4,0.2c0.8,0.8,3.4,3.4,9.7,3.4c6.4,0,7.3-3,7.7-4
		C289.4,63.8,288,63.2,287.6,64.3z M262.4,66.5c-5.6,0-7-4.6-7-7c0-2.2,1.2-6.8,6.8-10.1c0,0,2.6-1.6,7.7-3.6c0.2,0,0.4,0,0.4,0
		s0.2,0.2,0.2,0.4l0,0l0,0v0.2l0,0l0,0v0.2l0,0l0,0l0,0V55C270.5,61.6,267.3,66.5,262.4,66.5z M243.9,66.3
		c-0.8-0.2-5.8,0.4-5.8-14.9s0-48.1,0-48.1c0-0.6,0-2.2-1.8-2.2s-13.9,0.6-14.7,0.8c-0.8,0-1.4,1,0,1c1.4,0.2,7.9,0.6,7.9,11.3
		c0,5.2,0,10.5,0,14.3c0,0.2,0,0.4,0,0.4c0,0.4,0,0.6-0.2,0.8c0,0,0,0,0,0.2l0,0c-0.2,0.2-0.4,0-1-0.4c-1-0.8-5.6-3.6-11.5-3.6
		c-9.5,0-21.1,6.8-21.1,20.9c0,15.1,10.7,22.4,21.8,22.4c5.4,0,9.3-2.4,10.7-3.2c1.6-1,1.4-0.8,1.6,0.6c0.2,1,0,3,2.8,2.8
		c3-0.4,10.3-1.2,11.7-1.4C245.5,67.3,245.1,66.5,243.9,66.3z M218.9,66.9c-8.9,0-13.5-10.5-13.5-20.5c0-11.1,6.2-18.5,12.9-18.1
		c8.7,0.6,10.9,7.5,11.1,19.7c0,0.8,0,1.6,0,2.6C229.2,62.6,224.2,66.9,218.9,66.9z M195.4,64.3c-0.8,1.8-2.4,2.4-3.4,2.4
		c-1.2,0-4.8-0.2-4.8-9.7c0,0,0-19.1,0-20.3c0-6.2-4.8-11.3-17.3-11.3c-13.5,0-13.7,6.6-13.7,8.3c-0.2,1.8,0.8,3.8,4.2,3.8
		c3,0,3.8-3.4,4.2-4.6c0.4-1.4,0.6-5.4,6-5.4c4.6,0,7.7,4,7.7,10.1v0.2c0,0.2,0,0.4,0,0.4v0.6c0,0.2,0,0.6,0,0.8c-0.2,3-1,4-3.4,5.2
		s-9.5,2.2-10.3,2.4c-2.8,0.6-10.7,2.6-10.5,10.9c0.2,8.1,8.3,10.9,13.9,10.7c5.4-0.2,8.7-2.4,10.1-3.6c0.8-0.6,0.8-0.6,1.4,0.2
		c0.8,0.8,3.4,3.4,9.7,3.4c6.4,0,7.3-3,7.7-4C197.2,63.8,196,63.2,195.4,64.3z M170.4,66.5c-5.6,0-7-4.6-7-7c0-2.2,1.2-6.8,6.8-10.1
		c0,0,2.6-1.6,7.7-3.6c0.2,0,0.4,0,0.4,0V46l0,0l0,0c0,0.2,0,0.4,0,0.8v-0.2c0,0,0,0,0,0.2v8.5C178.2,61.6,175,66.5,170.4,66.5z
		 M151,66.3c-1.6-0.4-4.4-2.2-4.4-11.1V39.1c0-3.8,0.4-13.7-14.7-13.7c-7.9,0-12.3,4-12.7,4.2c-0.6,0.6-1,0.8-1.2-0.2
		c-0.2-0.8-0.6-2-0.8-2.8c-0.2-0.6-0.6-1.2-2-1s-10.3,1.6-11.9,2c-1.4,0.4-1,1,0,1.2s5.8,0.6,5.8,8.9s0,17.3,0,17.3
		c0,10.1-2,10.9-3.8,11.5c-2.4,0.6-1.2,1.4-0.2,1.4c0,0,17.9,0,18.3,0c1.2,0,1.8-1.2-0.6-1.6s-4.6-1.8-4.6-9.7c0-0.8,0-9.5,0-11.1
		c0-4.2-1-17.1,10.7-17.3c8.3-0.2,9.1,6.6,9.1,11.1v17.1c0,7-2,9.3-4.4,9.7c-2.2,0.4-1.8,1.4-0.6,1.4c0.4,0,18.7,0,18.7,0
		C152.7,67.9,153.7,66.9,151,66.3z M102.1,64.3c-0.8,1.8-2.4,2.4-3.4,2.4c-1.2,0-4.8-0.2-4.8-9.7c0,0,0-19.1,0-20.3
		c0-6.2-4.8-11.3-17.3-11.3c-13.5,0-13.7,6.6-13.7,8.3c-0.2,1.8,0.8,3.8,4.2,3.8c3,0,3.8-3.4,4.2-4.6c0.4-1.4,0.6-5.4,6-5.4
		c4.6,0,7.5,4,7.7,9.9c0,1,0,1.6,0,2.2c0,0.4,0,0.8-0.2,1v0.2l0,0c-0.4,2-1.4,3-3.2,3.8c-2.4,1.2-9.5,2.2-10.3,2.4
		c-2.8,0.6-10.7,2.6-10.5,10.9C61,66,69.1,68.8,74.7,68.6c5.4-0.2,8.7-2.4,10.1-3.6c0.8-0.6,0.8-0.6,1.4,0.2
		c0.8,0.8,3.4,3.4,9.7,3.4c6.4,0,7.3-3,7.7-4C103.9,63.8,102.5,63.2,102.1,64.3z M76.9,66.5c-5.6,0-7-4.6-7-7s1.2-6.8,6.8-10.1
		c0,0,2.6-1.6,7.7-3.6c0.2,0,0.4,0,0.4,0S85,46,85,46.2l0,0l0,0l0,0c0,0,0,0.2,0,0.4l0,0l0,0v0.2l0,0l0,0l0,0v8.5
		C85,61.6,81.8,66.5,76.9,66.5z M57.6,48.9c-2,6.4-5.8,16.9-19.7,17.3c-14.5,0.2-23.2-9.7-23.6-28C13.7,18.7,22.2,3.8,35.2,3.4
		c14.7-0.2,19.9,17.3,20.1,19.9c0.2,2,2.8,1.8,2.8-0.2c0-1-1.2-18.3-1.6-20.3s-2-1.2-2.4-0.4C54,3,54.4,1.8,53.6,3.6
		c-0.8,1.8-3,0.8-3.8,0.6c-2.4-1-7-3.4-14.5-3.2C18.1,1.4,0.6,14.1,1,36.3c0.4,21.5,17.7,33.6,33.8,33.4c14.7-0.2,23-9.5,25.4-20.1
		C61,46.9,58.4,46.3,57.6,48.9z"/>
</g>
</svg>
