<?xml version="1.0" encoding="utf-8"?>
<!-- Generator: Adobe Illustrator 16.0.3, SVG Export Plug-In . SVG Version: 6.00 Build 0)  -->
<!DOCTYPE svg PUBLIC "-//W3C//DTD SVG 1.1//EN" "http://www.w3.org/Graphics/SVG/1.1/DTD/svg11.dtd">
<svg version="1.1" id="Layer_1" xmlns="http://www.w3.org/2000/svg" xmlns:xlink="http://www.w3.org/1999/xlink" x="0px" y="0px"
	 width="4323.414px" height="1030.368px" viewBox="0 0 4323.414 1030.368"
	  xml:space="preserve">
<g id="wmms" transform="translate(-1, -1)">
	<path fill="#ED1C24" d="M4136.721,7.042h157.09v314.182h-157.09V7.042z M3864.832,164.133l-9.063,3.021
		c0,0,54.377,45.314,54.377,48.335c3.021,3.021,6.043,3.021,3.021,12.084c-3.021,9.063-6.042,18.126-6.042,18.126
		s48.335-9.063,54.378-12.084c6.041,0,9.063,0,9.063,6.042s-3.021,57.397-3.021,57.397h15.104c0,0-3.021-54.377-3.021-57.397
		c0-6.042,3.021-6.042,9.063-6.042s54.379,12.084,54.379,12.084s-3.021-12.084-6.043-18.126c-3.021-9.063,0-9.063,3.021-12.084
		c3.021-3.021,54.378-48.335,54.378-48.335l-9.063-3.021c-6.041-3.021-3.021-6.042-3.021-9.063s9.063-33.231,9.063-33.231
		s-24.168,6.042-27.188,6.042s-6.041,0-6.041-3.021s-6.043-15.105-6.043-15.105s-27.188,30.209-30.209,33.23
		c-6.042,6.042-12.084,0-9.063-6.042c0-6.042,15.104-69.482,15.104-69.482s-15.104,9.063-21.146,12.084s-9.063,3.021-9.063-3.021
		c-3.021-6.042-21.146-39.272-21.146-42.294c0,0-18.127,36.252-21.147,42.294s-6.042,6.042-9.063,3.021
		c-6.041-3.021-21.146-12.084-21.146-12.084s15.104,63.441,15.104,69.483s-3.021,9.063-9.063,6.042l-30.21-33.23
		c0,0-3.021,9.063-6.041,12.083c0,3.021-3.021,6.042-6.043,3.021c-6.041,0-30.209-6.042-30.209-6.042s9.063,30.209,12.084,33.23
		C3870.874,155.07,3870.874,161.112,3864.832,164.133z M3662.426,7.042h157.092v314.182h-157.092V7.042z"/>
	<path d="M4327.041,949.588c-12.083,27.188-36.251,36.25-51.355,36.25c-18.127,0-72.504-3.02-72.504-145.006
		c0,0,0-286.994,0-305.119c0-93.651-72.504-169.175-259.805-169.175c-202.404,0-205.426,99.692-205.426,123.86
		c-3.021,27.188,12.084,57.397,63.439,57.397c45.313,0,57.398-51.355,63.44-69.481c6.041-21.146,9.063-81.566,90.629-81.566
		c69.481,0,111.776,60.42,114.797,148.028c0,15.104,0,24.168,0,33.23c0,6.041,0,9.063,0,15.105l0,0l0,0v3.02
		c-6.041,30.211-21.146,45.314-48.335,57.398c-36.252,18.127-141.986,33.23-154.07,36.252
		c-42.294,9.063-160.111,39.271-157.091,163.133c3.021,120.84,123.858,163.133,208.447,160.113
		c81.565-3.021,129.901-36.252,151.049-54.379c12.084-9.063,12.084-9.063,21.146,3.021c12.084,12.084,51.357,51.357,145.008,51.357
		c96.672,0,108.756-45.316,114.797-60.42C4354.23,943.545,4333.084,934.483,4327.041,949.588z M3949.42,982.819
		c-84.588,0-105.734-69.482-105.734-105.734c0-33.23,18.125-102.715,102.713-151.049c0,0,39.272-24.168,114.797-54.379
		c3.021,0,6.043,0,6.043,0s3.021,3.021,3.021,6.043l0,0l0,0v3.02l0,0l0,0v3.021l0,0l0,0l0,0v126.881
		C4070.258,910.315,4021.923,982.819,3949.42,982.819z M3671.489,979.797c-12.084-3.021-87.608,6.041-87.608-223.553
		s0-722.014,0-722.014c0-9.063,0-33.231-27.188-33.231s-208.447,9.063-220.531,12.084c-12.084,0-21.146,15.105,0,15.105
		c21.146,3.021,117.818,9.063,117.818,169.175c0,78.545,0,157.091,0,214.489c0,3.021,0,6.043,0,6.043c0,6.041,0,9.063-3.021,12.082
		c0,0,0,0,0,3.021l0,0c-3.021,3.021-6.042,0-15.104-6.042c-15.105-12.084-84.588-54.378-172.196-54.378
		c-141.985,0-317.202,102.714-317.202,314.182c0,226.574,160.111,335.328,326.267,335.328c81.565,0,138.965-36.252,160.11-48.336
		c24.168-15.104,21.146-12.084,24.168,9.064c3.021,15.104,0,45.313,42.294,42.293c45.314-6.041,154.069-18.125,175.217-21.146
		C3695.657,994.903,3689.615,982.819,3671.489,979.797z M3296.888,988.86c-132.923,0-202.405-157.092-202.405-308.141
		c0-166.153,93.65-277.93,193.344-271.888c129.902,9.063,163.133,111.777,166.152,296.056c0,12.084,0,24.168,0,39.273
		C3450.958,925.42,3375.434,988.86,3296.888,988.86z M2943.434,949.588c-12.084,27.188-36.252,36.25-51.355,36.25
		c-18.126,0-72.504-3.02-72.504-145.006c0,0,0-286.994,0-305.119c0-93.651-72.503-169.175-259.804-169.175
		c-202.406,0-205.427,99.692-205.427,123.86c-3.021,27.188,12.084,57.397,63.439,57.397c45.314,0,57.398-51.355,63.439-69.481
		c6.043-21.146,9.063-81.566,90.631-81.566c69.481,0,114.797,60.42,114.797,151.049v3.021c0,3.02,0,6.041,0,6.041v9.063
		c0,3.021,0,9.064,0,12.084c-3.021,45.314-15.105,60.42-51.356,78.547c-36.252,18.125-141.986,33.23-154.07,36.252
		c-42.294,9.063-160.112,39.271-157.091,163.133c3.021,120.84,123.86,163.133,208.447,160.111
		c81.565-3.021,129.902-36.252,151.049-54.379c12.084-9.063,12.084-9.063,21.146,3.021c12.084,12.084,51.356,51.355,145.008,51.355
		c96.672,0,108.756-45.313,114.797-60.42C2970.623,943.545,2952.496,934.483,2943.434,949.588z M2568.832,982.819
		c-84.588,0-105.734-69.482-105.734-105.734c0-33.23,18.127-102.715,102.713-151.049c0,0,39.273-24.168,114.799-54.379
		c3.021,0,6.042,0,6.042,0v3.021l0,0l0,0c0,3.021,0,6.041,0,12.082v-3.02c0,0,0,0,0,3.02v126.883
		C2686.65,910.315,2638.314,982.819,2568.832,982.819z M2278.818,979.797c-24.168-6.043-66.462-33.23-66.462-166.154V571.965
		c0-57.398,6.042-205.427-220.531-205.427c-117.817,0-184.28,60.42-190.321,63.44c-9.063,9.063-15.104,12.084-18.126-3.021
		c-3.021-12.084-9.063-30.21-12.084-42.294c-3.021-9.063-9.063-18.126-30.21-15.104c-21.146,3.021-154.07,24.168-178.238,30.211
		c-21.146,6.041-15.104,15.104,0,18.125c15.105,3.021,87.609,9.063,87.609,132.924c0,123.857,0,259.803,0,259.803
		c0,151.049-30.211,163.133-57.398,172.197c-36.252,9.063-18.127,21.145-3.021,21.145c0,0,268.867,0,274.909,0
		c18.126,0,27.188-18.125-9.063-24.168c-36.251-6.041-69.482-27.188-69.482-145.006c0-12.084,0-141.986,0-166.154
		c0-63.439-15.104-256.783,160.112-259.804c123.86-3.021,135.944,99.691,135.944,166.154V831.77
		c0,105.734-30.21,138.965-66.462,145.008c-33.229,6.041-27.188,21.145-9.063,21.145c6.043,0,280.951,0,280.951,0
		C2302.986,1003.965,2318.091,988.86,2278.818,979.797z M1544.721,949.588c-12.084,27.188-36.252,36.25-51.357,36.25
		c-18.125,0-72.504-3.02-72.504-145.006c0,0,0-286.994,0-305.119c0-93.651-72.502-169.175-259.804-169.175
		c-202.405,0-205.427,99.692-205.427,123.86c-3.021,27.188,12.084,57.397,63.441,57.397c45.313,0,57.397-51.355,63.438-69.481
		c6.043-21.146,9.063-81.566,90.63-81.566c69.482,0,111.776,60.42,114.797,148.028c0,15.104,0,24.168,0,33.23
		c0,6.041,0,12.084-3.021,15.105v3.02l0,0c-6.042,30.211-21.146,45.314-48.336,57.398c-36.252,18.127-141.986,33.23-154.07,36.252
		c-42.293,9.063-160.11,39.271-157.09,163.133c3.021,120.84,123.858,163.133,208.446,160.113
		c81.566-3.021,129.902-36.252,151.05-54.379c12.084-9.063,12.084-9.063,21.146,3.021c12.084,12.084,51.357,51.357,145.008,51.357
		c96.672,0,108.756-45.316,114.797-60.42C1571.909,943.545,1550.762,934.483,1544.721,949.588z M1167.098,982.819
		c-84.588,0-105.733-69.482-105.733-105.734s18.126-102.715,102.713-151.049c0,0,39.272-24.168,114.798-54.379
		c3.021,0,6.042,0,6.042,0s3.021,3.021,3.021,6.043l0,0l0,0l0,0c0,0,0,3.02,0,6.041l0,0l0,0v3.021l0,0l0,0l0,0v126.881
		C1287.938,910.315,1239.602,982.819,1167.098,982.819z M877.084,719.993c-30.21,96.672-87.607,253.762-296.057,259.805
		c-217.51,3.021-347.412-145.008-353.454-419.916C218.51,266.846,345.392,43.294,541.755,37.252
		c220.532-3.021,299.077,259.804,302.099,299.076c3.021,30.21,42.293,27.188,42.293-3.021c0-15.104-18.125-274.909-24.168-305.119
		c-6.041-30.209-30.209-18.125-36.252-6.042c-3.021,9.063,3.021-9.063-9.063,18.126s-45.314,12.084-57.398,9.063
		C723.014,34.23,653.531-2.021,541.756,1C284.972,7.042,22.147,197.363,28.189,529.67
		c6.042,323.246,265.846,504.504,507.524,501.482c220.531-3.021,344.393-141.984,380.645-302.098
		C928.439,689.784,889.168,680.721,877.084,719.993z"/>
</g>
</svg>
