<?xml version="1.0" encoding="utf-8"?>
<!-- Generator: Adobe Illustrator 24.1.2, SVG Export Plug-In . SVG Version: 6.00 Build 0)  -->
<svg version="1.1" id="Layer_1" xmlns="http://www.w3.org/2000/svg" xmlns:xlink="http://www.w3.org/1999/xlink" x="0px" y="0px"
	 viewBox="0 0 112 112" style="enable-background:new 0 0 112 112;" xml:space="preserve">
<style type="text/css">
	.st0{fill:url(#Icon_awesome-flask_1_);}
</style>
<linearGradient id="Icon_awesome-flask_1_" gradientUnits="userSpaceOnUse" x1="-621.8618" y1="439.0235" x2="-621.8618" y2="438.0235" gradientTransform="matrix(97.9577 0 0 -112 60973.1914 49170.6563)">
	<stop  offset="0" style="stop-color:#009C88"/>
	<stop  offset="1" style="stop-color:#227069"/>
</linearGradient>
<path id="Icon_awesome-flask" class="st0" d="M103.71,88.28L78.07,47.05V14.02h1.75c2.89,0.01,5.24-2.33,5.25-5.22
	c0-0.01,0-0.02,0-0.03v-3.5c0.01-2.89-2.33-5.24-5.22-5.25c-0.01,0-0.02,0-0.03,0h-45.5c-2.89-0.01-5.24,2.33-5.25,5.22
	c0,0.01,0,0.02,0,0.03v3.5c-0.01,2.89,2.33,5.24,5.22,5.25c0.01,0,0.02,0,0.03,0h1.75v33.03L10.44,88.28
	c-4.53,7.29-2.29,16.87,5,21.4c2.45,1.52,5.27,2.33,8.15,2.34h66.98c8.58-0.02,15.51-7,15.49-15.58
	C106.04,93.56,105.23,90.73,103.71,88.28z M38.24,70.02l10.54-16.97c0.83-1.18,1.27-2.58,1.27-4.03v-35h14v35
	c0,1.44,0.44,2.84,1.27,4.03l10.54,16.97H38.24z"/>
</svg>
