<?xml version="1.0" encoding="utf-8"?>
<!-- Generator: Adobe Illustrator 23.0.3, SVG Export Plug-In . SVG Version: 6.00 Build 0)  -->
<svg version="1.1" id="Ñëîé_1" xmlns="http://www.w3.org/2000/svg" xmlns:xlink="http://www.w3.org/1999/xlink" x="0px" y="0px"
	 viewBox="0 0 321.2 212.7" enable-background="new 0 0 321.2 212.7" xml:space="preserve">
<g>
	<g>
		<g>
			<g>
				<g>
					<g>
						<g>
							
								<linearGradient id="SVGID_1_" gradientUnits="userSpaceOnUse" x1="2743.7556" y1="74.3172" x2="2872.7505" y2="74.3172" gradientTransform="matrix(1 0 0 1 -2743.7285 0)">
								<stop  offset="0" style="stop-color:#2E294E"/>
								<stop  offset="0.1537" style="stop-color:#332E52"/>
								<stop  offset="0.3348" style="stop-color:#413C5E"/>
								<stop  offset="0.5299" style="stop-color:#585472"/>
								<stop  offset="0.7348" style="stop-color:#78758D"/>
								<stop  offset="0.9454" style="stop-color:#A29FB0"/>
								<stop  offset="1" style="stop-color:#ADACBA"/>
							</linearGradient>
							<path fill="url(#SVGID_1_)" d="M129,61l-4.3,2.3l-43.3-25c-0.7-0.4-2-0.4-2.8,0.1L4,81.4c-0.7-0.4-4-2-4-2l1.6,4.1
								c0,0,0,0,0,0c0.1,0.2,0.2,0.4,0.4,0.5l45.6,26.3c0.7,0.4,2,0.4,2.8-0.1l76.4-44.1c0.3-0.2,0.6-0.4,0.6-0.7l0,0L129,61z"/>
							
								<linearGradient id="SVGID_2_" gradientUnits="userSpaceOnUse" x1="2787.0984" y1="70.0161" x2="2916.1621" y2="70.0161" gradientTransform="matrix(1 0 0 1 -2743.7285 0)">
								<stop  offset="0" style="stop-color:#ADACBA"/>
								<stop  offset="0.2501" style="stop-color:#B2B0BE"/>
								<stop  offset="0.5449" style="stop-color:#C0BFCA"/>
								<stop  offset="0.861" style="stop-color:#D7D6DD"/>
								<stop  offset="1" style="stop-color:#E4E3E8"/>
							</linearGradient>
							<path fill="url(#SVGID_2_)" d="M128.4,61.7l-78.3,45.2c-0.9,0.5-2.2,0.5-2.9,0.1L0.5,80c-0.7-0.4-0.6-1.2,0.2-1.7L79,33.2
								c0.9-0.5,2.2-0.5,2.9-0.1l46.7,27C129.3,60.4,129.2,61.2,128.4,61.7z"/>
							<path fill="#FFFFFF" d="M128.4,61.2l-78.3,45.2c-0.9,0.5-2.2,0.5-2.9,0.1l-46.7-27c-0.2-0.1-0.4-0.3-0.5-0.5
								c-0.1,0.4,0,0.7,0.5,1l46.7,27c0.7,0.4,2,0.4,2.9-0.1l78.3-45.2c0.6-0.3,0.8-0.8,0.7-1.2C128.9,60.8,128.7,61,128.4,61.2z"/>
							<path fill="#2E294E" d="M26.5,97.1v-0.9c0-0.1,0-0.1,0.1-0.1l3,1.7c0.1,0,0.1,0.1,0.1,0.2V99c0,0.1,0,0.1-0.1,0.1l-3-1.7
								C26.5,97.3,26.5,97.2,26.5,97.1z"/>
							<path fill="#2E294E" d="M31,99.7v-0.9c0-0.1,0-0.1,0.1-0.1l3,1.7c0.1,0,0.1,0.1,0.1,0.2v0.9c0,0.1,0,0.1-0.1,0.1l-3-1.7
								C31.1,99.9,31,99.8,31,99.7z"/>
							<g>
								<path fill="#9996A8" d="M26.8,86.2l65-37.5c0.4-0.3,1-0.3,1.4,0L116.4,62c0.3,0.2,0.3,0.7,0,0.9l-65,37.5
									c-0.4,0.3-1,0.3-1.4,0L26.8,87C26.5,86.8,26.5,86.3,26.8,86.2z"/>
								<path fill="#75728A" d="M26.8,87l0.2,0.1l64.8-37.4c0.4-0.3,1-0.3,1.4,0L116.2,63l0.2-0.1c0.3-0.2,0.3-0.7,0-0.9L93.3,48.6
									c-0.4-0.3-1-0.3-1.4,0l-65,37.5C26.5,86.3,26.5,86.8,26.8,87z"/>
								<g>
									<polygon fill="#C8EA61" points="95,52 35.1,86.6 32.1,85.4 92.5,50.5 									"/>
									<polygon fill="#C8EA61" points="101.2,55.6 48.2,86.1 45.7,84.7 98.7,54.1 									"/>
									<polygon fill="#C8EA61" points="105.2,57.9 42.8,93.9 40.3,92.4 102.7,56.4 									"/>
									<polygon fill="#C8EA61" points="109.2,60.2 46.8,96.2 44.3,94.8 106.7,58.7 									"/>
									<polygon fill="#C8EA61" points="113.2,62.5 50.8,98.5 48.3,97.1 110.7,61.1 									"/>
									<polygon fill="#C8EA61" points="35.1,86.6 32.6,88 30.1,86.6 32.6,85.1 									"/>
									<polygon fill="#C8EA61" points="51.2,84.4 38.8,91.6 36.2,90.1 48.8,82.9 									"/>
								</g>
							</g>
							<g>
								
									<linearGradient id="SVGID_3_" gradientUnits="userSpaceOnUse" x1="2778.7244" y1="60.0848" x2="2811.761" y2="60.0848" gradientTransform="matrix(1 0 0 1 -2743.7285 0)">
									<stop  offset="0" style="stop-color:#ADACBA"/>
									<stop  offset="0.2501" style="stop-color:#B2B0BE"/>
									<stop  offset="0.5449" style="stop-color:#C0BFCA"/>
									<stop  offset="0.861" style="stop-color:#D7D6DD"/>
									<stop  offset="1" style="stop-color:#E4E3E8"/>
								</linearGradient>
								<path fill="url(#SVGID_3_)" d="M50,69.3l17.5-10.1c0.7-0.4,0.7-1,0-1.4l-12-6.9c-0.7-0.4-1.8-0.4-2.5,0L35.5,61
									c-0.7,0.4-0.7,1,0,1.4l12,6.9C48.2,69.7,49.3,69.7,50,69.3z"/>
								<path fill="#75728A" d="M35.5,61.6L53,51.4c0.7-0.4,1.8-0.4,2.5,0l12,6.9c0.2,0.1,0.3,0.3,0.4,0.4c0.2-0.3,0-0.7-0.4-1
									l-12-6.9c-0.7-0.4-1.8-0.4-2.5,0L35.5,61c-0.5,0.3-0.6,0.7-0.4,1C35.2,61.8,35.3,61.7,35.5,61.6z"/>
							</g>
						</g>
					</g>
				</g>
			</g>
		</g>
		<g>
			
				<linearGradient id="SVGID_4_" gradientUnits="userSpaceOnUse" x1="2781.3076" y1="54.1313" x2="2872.6426" y2="54.1313" gradientTransform="matrix(1 0 0 1 -2743.7285 0)">
				<stop  offset="0" style="stop-color:#ADACBA"/>
				<stop  offset="0.2501" style="stop-color:#B2B0BE"/>
				<stop  offset="0.5449" style="stop-color:#C0BFCA"/>
				<stop  offset="0.861" style="stop-color:#D7D6DD"/>
				<stop  offset="1" style="stop-color:#E4E3E8"/>
			</linearGradient>
			<path fill="url(#SVGID_4_)" d="M128.9,59.8L119,1.1l0.8-0.3l-1.2-0.7l0,0C118.4,0,118,0,117.7,0.2L38.6,45.8
				c-0.6,0.4-1.1,1.3-1,2l10,59.2c0.1,0.3,0.2,0.5,0.4,0.6l0,0l1.2,0.7l0.2-1.1l-0.1,0l78.6-45.4C128.5,61.4,129,60.5,128.9,59.8z"
				/>
			
				<linearGradient id="SVGID_5_" gradientUnits="userSpaceOnUse" x1="2781.3081" y1="77.5546" x2="2796.9912" y2="77.5546" gradientTransform="matrix(1 0 0 1 -2743.7285 0)">
				<stop  offset="0" style="stop-color:#2E294E"/>
				<stop  offset="0.1537" style="stop-color:#332E52"/>
				<stop  offset="0.3348" style="stop-color:#413C5E"/>
				<stop  offset="0.5299" style="stop-color:#585472"/>
				<stop  offset="0.7348" style="stop-color:#78758D"/>
				<stop  offset="0.9454" style="stop-color:#A29FB0"/>
				<stop  offset="1" style="stop-color:#ADACBA"/>
			</linearGradient>
			<path fill="url(#SVGID_5_)" d="M39.1,47.4l-1.3-0.6c-0.1,0.3-0.2,0.7-0.2,1l10,59.2c0.1,0.3,0.2,0.5,0.4,0.6l0,0l1.2,0.7l0.2-1.1
				l-0.1,0l4-2.3L39.1,47.4z"/>
			<path fill="#2E294E" d="M129.1,62.5L50,108.2c-0.6,0.4-1.1,0.1-1.2-0.5l-10-59.2c-0.1-0.7,0.4-1.6,1-2l79.1-45.6
				c0.6-0.4,1.1-0.1,1.2,0.5l10,59.2C130.3,61.2,129.8,62.2,129.1,62.5z"/>
		</g>
	</g>
	<g>
		<g>
			<g>
				<g>
					<g>
						<g>
							
								<linearGradient id="SVGID_8_" gradientUnits="userSpaceOnUse" x1="135.5966" y1="74.3172" x2="264.5917" y2="74.3172" gradientTransform="matrix(-1 0 0 1 456.7947 0)">
								<stop  offset="0" style="stop-color:#2E294E"/>
								<stop  offset="0.1537" style="stop-color:#332E52"/>
								<stop  offset="0.3348" style="stop-color:#413C5E"/>
								<stop  offset="0.5299" style="stop-color:#585472"/>
								<stop  offset="0.7348" style="stop-color:#78758D"/>
								<stop  offset="0.9454" style="stop-color:#A29FB0"/>
								<stop  offset="1" style="stop-color:#ADACBA"/>
							</linearGradient>
							<path fill="url(#SVGID_8_)" d="M192.2,61l4.3,2.3l43.3-25c0.7-0.4,2-0.4,2.8,0.1l74.6,43.1c0.7-0.4,4-2,4-2l-1.6,4.1l0,0
								c-0.1,0.2-0.2,0.4-0.4,0.5l-45.6,26.3c-0.7,0.4-2,0.4-2.8-0.1l-76.4-44.1c-0.3-0.2-0.6-0.4-0.6-0.7l0,0L192.2,61z"/>
							
								<linearGradient id="SVGID_9_" gradientUnits="userSpaceOnUse" x1="178.9393" y1="70.0161" x2="308.0031" y2="70.0161" gradientTransform="matrix(-1 0 0 1 456.7947 0)">
								<stop  offset="0" style="stop-color:#ADACBA"/>
								<stop  offset="0.2501" style="stop-color:#B2B0BE"/>
								<stop  offset="0.5449" style="stop-color:#C0BFCA"/>
								<stop  offset="0.861" style="stop-color:#D7D6DD"/>
								<stop  offset="1" style="stop-color:#E4E3E8"/>
							</linearGradient>
							<path fill="url(#SVGID_9_)" d="M192.9,61.7l78.3,45.2c0.9,0.5,2.2,0.5,2.9,0.1l46.7-27c0.7-0.4,0.6-1.2-0.2-1.7l-78.3-45.2
								c-0.9-0.5-2.2-0.5-2.9-0.1l-46.7,27C191.9,60.4,192,61.2,192.9,61.7z"/>
							<path fill="#FFFFFF" d="M192.9,61.2l78.3,45.2c0.9,0.5,2.2,0.5,2.9,0.1l46.7-27c0.2-0.1,0.4-0.3,0.5-0.5c0.1,0.4,0,0.7-0.5,1
								L274,107c-0.7,0.4-2,0.4-2.9-0.1l-78.3-45.2c-0.6-0.3-0.8-0.8-0.7-1.2C192.3,60.8,192.5,61,192.9,61.2z"/>
							<path fill="#2E294E" d="M294.7,97.1v-0.9c0-0.1,0-0.1-0.1-0.1l-3,1.7c-0.1,0-0.1,0.1-0.1,0.2V99c0,0.1,0,0.1,0.1,0.1l3-1.7
								C294.7,97.3,294.7,97.2,294.7,97.1z"/>
							<path fill="#2E294E" d="M290.2,99.7v-0.9c0-0.1,0-0.1-0.1-0.1l-3,1.7c-0.1,0-0.1,0.1-0.1,0.2v0.9c0,0.1,0,0.1,0.1,0.1l3-1.7
								C290.2,99.9,290.2,99.8,290.2,99.7z"/>
							<g>
								<path fill="#9996A8" d="M294.4,86.2l-65-37.5c-0.4-0.3-1-0.3-1.4,0L204.8,62c-0.3,0.2-0.3,0.7,0,0.9l65,37.5
									c0.4,0.3,1,0.3,1.4,0L294.4,87C294.7,86.8,294.7,86.3,294.4,86.2z"/>
								<path fill="#75728A" d="M294.4,87l-0.2,0.1l-64.8-37.4c-0.4-0.3-1-0.3-1.4,0L205,63l-0.2-0.1c-0.3-0.2-0.3-0.7,0-0.9
									L228,48.6c0.4-0.3,1-0.3,1.4,0l65,37.5C294.7,86.3,294.7,86.8,294.4,87z"/>
								<g>
									<polygon fill="#C8EA61" points="226.2,52 286.1,86.6 289.1,85.4 228.7,50.5 									"/>
									<polygon fill="#C8EA61" points="220.1,55.6 273,86.1 275.6,84.7 222.6,54.1 									"/>
									<polygon fill="#C8EA61" points="216,57.9 278.4,93.9 280.9,92.4 218.6,56.4 									"/>
									<polygon fill="#C8EA61" points="212,60.2 274.4,96.2 276.9,94.8 214.5,58.7 									"/>
									<polygon fill="#C8EA61" points="208,62.5 270.4,98.5 272.9,97.1 210.5,61.1 									"/>
									<polygon fill="#C8EA61" points="286.1,86.6 288.6,88 291.1,86.6 288.6,85.1 									"/>
									<polygon fill="#C8EA61" points="270,84.4 282.5,91.6 285,90.1 272.4,82.9 									"/>
								</g>
							</g>
							<g>
								
									<linearGradient id="SVGID_10_" gradientUnits="userSpaceOnUse" x1="170.5654" y1="60.0848" x2="203.602" y2="60.0848" gradientTransform="matrix(-1 0 0 1 456.7947 0)">
									<stop  offset="0" style="stop-color:#ADACBA"/>
									<stop  offset="0.2501" style="stop-color:#B2B0BE"/>
									<stop  offset="0.5449" style="stop-color:#C0BFCA"/>
									<stop  offset="0.861" style="stop-color:#D7D6DD"/>
									<stop  offset="1" style="stop-color:#E4E3E8"/>
								</linearGradient>
								<path fill="url(#SVGID_10_)" d="M271.2,69.3l-17.5-10.1c-0.7-0.4-0.7-1,0-1.4l12-6.9c0.7-0.4,1.8-0.4,2.5,0L285.7,61
									c0.7,0.4,0.7,1,0,1.4l-12,6.9C273,69.7,271.9,69.7,271.2,69.3z"/>
								<path fill="#75728A" d="M285.7,61.6l-17.5-10.1c-0.7-0.4-1.8-0.4-2.5,0l-12,6.9c-0.2,0.1-0.3,0.3-0.4,0.4
									c-0.2-0.3,0-0.7,0.4-1l12-6.9c0.7-0.4,1.8-0.4,2.5,0L285.7,61c0.5,0.3,0.6,0.7,0.4,1C286.1,61.8,285.9,61.7,285.7,61.6z"/>
							</g>
						</g>
					</g>
				</g>
			</g>
		</g>
		<g>
			
				<linearGradient id="SVGID_11_" gradientUnits="userSpaceOnUse" x1="173.1486" y1="54.1313" x2="264.4837" y2="54.1313" gradientTransform="matrix(-1 0 0 1 456.7947 0)">
				<stop  offset="0" style="stop-color:#ADACBA"/>
				<stop  offset="0.2501" style="stop-color:#B2B0BE"/>
				<stop  offset="0.5449" style="stop-color:#C0BFCA"/>
				<stop  offset="0.861" style="stop-color:#D7D6DD"/>
				<stop  offset="1" style="stop-color:#E4E3E8"/>
			</linearGradient>
			<path fill="url(#SVGID_11_)" d="M192.3,59.8l9.9-58.7l-0.8-0.3l1.2-0.7l0,0c0.2-0.2,0.6-0.1,0.9,0.1l79.1,45.6
				c0.6,0.4,1.1,1.3,1,2l-10,59.2c-0.1,0.3-0.2,0.5-0.4,0.6l0,0l-1.2,0.7l-0.2-1.1l0.1,0l-78.6-45.4
				C192.7,61.4,192.2,60.5,192.3,59.8z"/>
			
				<linearGradient id="SVGID_12_" gradientUnits="userSpaceOnUse" x1="173.1491" y1="77.5546" x2="188.8323" y2="77.5546" gradientTransform="matrix(-1 0 0 1 456.7947 0)">
				<stop  offset="0" style="stop-color:#2E294E"/>
				<stop  offset="0.1537" style="stop-color:#332E52"/>
				<stop  offset="0.3348" style="stop-color:#413C5E"/>
				<stop  offset="0.5299" style="stop-color:#585472"/>
				<stop  offset="0.7348" style="stop-color:#78758D"/>
				<stop  offset="0.9454" style="stop-color:#A29FB0"/>
				<stop  offset="1" style="stop-color:#ADACBA"/>
			</linearGradient>
			<path fill="url(#SVGID_12_)" d="M282.2,47.4l1.3-0.6c0.1,0.3,0.2,0.7,0.2,1l-10,59.2c-0.1,0.3-0.2,0.5-0.4,0.6l0,0l-1.2,0.7
				l-0.2-1.1l0.1,0l-4-2.3L282.2,47.4z"/>
			<path fill="#2E294E" d="M192.1,62.5l79.1,45.6c0.6,0.4,1.1,0.1,1.2-0.5l10-59.2c0.1-0.7-0.4-1.6-1-2L202.3,0.9
				c-0.6-0.4-1.1-0.1-1.2,0.5l-10,59.2C191,61.2,191.5,62.2,192.1,62.5z"/>
		</g>
	</g>
	<g>
		<polygon fill="#ADACBA" points="160.6,132.2 87,89.7 160.6,47.2 234.2,89.7 		"/>
		<polygon fill="#2E294E" points="160.6,120.6 107.1,89.7 160.6,58.8 214.1,89.7 		"/>
		<polygon fill="#FFFFFF" points="160.6,60.9 212.3,90.7 214.1,89.7 160.6,58.8 107.1,89.7 108.9,90.7 		"/>
		<linearGradient id="SVGID_13_" gradientUnits="userSpaceOnUse" x1="197.4218" y1="141.4017" x2="197.4218" y2="91.0946">
			<stop  offset="0" style="stop-color:#ADACBA"/>
			<stop  offset="0.2501" style="stop-color:#B2B0BE"/>
			<stop  offset="0.5449" style="stop-color:#C0BFCA"/>
			<stop  offset="0.861" style="stop-color:#D7D6DD"/>
			<stop  offset="1" style="stop-color:#E4E3E8"/>
		</linearGradient>
		<polygon fill="url(#SVGID_13_)" points="234.2,89.7 234.2,113.8 160.6,156.3 160.6,132.2 		"/>
		<polygon fill="#C8EA61" points="87,89.7 87,113.8 160.6,156.3 160.6,132.2 		"/>
		<g opacity="0.51">
			<polygon fill="#2E294E" points="92,100.5 92,108.1 155.6,144.8 155.6,137.3 			"/>
		</g>
		<polygon fill="#FFFFFF" points="160.6,130.8 88.2,89 87,89.7 160.6,132.2 234.2,89.7 233,89 		"/>
		<polygon fill="#2E294E" points="223.2,106.6 223.2,110.9 171.7,140.6 171.7,136.3 		"/>
		<polygon opacity="0.51" fill="#2E294E" points="87,89.7 87,113.8 160.6,156.3 160.6,132.2 		"/>
		<polygon fill="#2CAEA5" points="139.1,130.9 125.8,123.2 125.8,124.8 139.1,132.5 		"/>
		<polygon fill="#2CAEA5" points="123.9,122.1 120.3,120 120.3,121.6 123.9,123.7 		"/>
		<polygon fill="#2CAEA5" points="106.9,112.3 99.6,108.1 99.6,109.7 106.9,113.9 		"/>
		<polygon fill="#2CAEA5" points="113.7,116.2 108.3,113.2 108.3,114.7 113.7,117.8 		"/>
		<polygon fill="#2CAEA5" points="118.7,119.1 115.1,117 115.1,118.6 118.7,120.7 		"/>
		<g>
			<g>
				<polygon fill="#2CAEA5" points="160.7,69.4 158.4,68 160.7,66.7 163,68 				"/>
				<polygon opacity="0.1" fill="#2CAEA5" points="165.4,72.1 163,70.7 165.4,69.4 167.7,70.7 				"/>
				<polygon opacity="0.4" fill="#2CAEA5" points="170,74.8 167.7,73.4 170,72.1 172.4,73.4 				"/>
				<polygon fill="#2CAEA5" points="174.7,77.5 172.4,76.1 174.7,74.8 177.1,76.1 				"/>
				<polygon opacity="0.4" fill="#2CAEA5" points="179.4,80.2 177.1,78.8 179.4,77.5 181.7,78.8 				"/>
				<polygon fill="#2CAEA5" points="184.1,82.9 181.7,81.5 184.1,80.2 186.4,81.5 				"/>
				<polygon fill="#2CAEA5" points="188.7,85.6 186.4,84.2 188.7,82.9 191.1,84.2 				"/>
				<polygon fill="#2CAEA5" points="193.4,88.3 191.1,86.9 193.4,85.6 195.8,86.9 				"/>
				<polygon opacity="0.1" fill="#2CAEA5" points="198.1,91 195.8,89.6 198.1,88.3 200.4,89.6 				"/>
			</g>
			<g>
				<polygon fill="#2CAEA5" points="156,72.1 153.7,70.8 156,69.4 158.3,70.8 				"/>
				<polygon fill="#2CAEA5" points="160.7,74.8 158.3,73.5 160.7,72.1 163,73.5 				"/>
				<polygon fill="#2CAEA5" points="165.3,77.5 163,76.2 165.3,74.8 167.7,76.2 				"/>
				<polygon fill="#2CAEA5" points="170,80.2 167.7,78.9 170,77.5 172.4,78.9 				"/>
				<polygon fill="#2CAEA5" points="174.7,82.9 172.4,81.6 174.7,80.2 177,81.6 				"/>
				<polygon fill="#2CAEA5" points="179.4,85.6 177,84.3 179.4,82.9 181.7,84.3 				"/>
				<polygon fill="#2CAEA5" points="184,88.3 181.7,86.9 184,85.6 186.4,86.9 				"/>
				<polygon fill="#2CAEA5" points="188.7,91 186.4,89.6 188.7,88.3 191.1,89.6 				"/>
				<polygon fill="#2CAEA5" points="193.4,93.7 191.1,92.3 193.4,91 195.7,92.3 				"/>
			</g>
			<g>
				<polygon fill="#2CAEA5" points="151.3,74.8 149,73.5 151.3,72.1 153.6,73.5 				"/>
				<polygon fill="#2CAEA5" points="156,77.5 153.6,76.2 156,74.8 158.3,76.2 				"/>
				<polygon fill="#2CAEA5" points="160.7,80.2 158.3,78.9 160.7,77.5 163,78.9 				"/>
				<polygon opacity="0.1" fill="#2CAEA5" points="165.3,82.9 163,81.6 165.3,80.2 167.7,81.6 				"/>
				<polygon opacity="0.4" fill="#2CAEA5" points="170,85.6 167.7,84.3 170,82.9 172.3,84.3 				"/>
				<polygon opacity="0.4" fill="#2CAEA5" points="174.7,88.3 172.3,87 174.7,85.6 177,87 				"/>
				<polygon fill="#2CAEA5" points="179.4,91 177,89.7 179.4,88.3 181.7,89.7 				"/>
				<polygon fill="#2CAEA5" points="184,93.7 181.7,92.4 184,91 186.4,92.4 				"/>
				<polygon fill="#2CAEA5" points="188.7,96.4 186.4,95.1 188.7,93.7 191,95.1 				"/>
			</g>
			<g>
				<polygon opacity="0.4" fill="#2CAEA5" points="146.6,77.5 144.3,76.2 146.6,74.8 148.9,76.2 				"/>
				<polygon opacity="0.4" fill="#2CAEA5" points="151.3,80.2 148.9,78.9 151.3,77.5 153.6,78.9 				"/>
				<polygon opacity="0.1" fill="#2CAEA5" points="156,82.9 153.6,81.6 156,80.2 158.3,81.6 				"/>
				<polygon fill="#2CAEA5" points="160.6,85.6 158.3,84.3 160.6,82.9 163,84.3 				"/>
				<polygon fill="#2CAEA5" points="165.3,88.3 163,87 165.3,85.6 167.6,87 				"/>
				<polygon fill="#2CAEA5" points="170,91 167.6,89.7 170,88.3 172.3,89.7 				"/>
				<polygon opacity="0.4" fill="#2CAEA5" points="174.7,93.7 172.3,92.4 174.7,91 177,92.4 				"/>
				<polygon fill="#2CAEA5" points="179.3,96.4 177,95.1 179.3,93.7 181.7,95.1 				"/>
				<polygon fill="#2CAEA5" points="184,99.1 181.7,97.8 184,96.4 186.3,97.8 				"/>
			</g>
			<g>
				<polygon fill="#2CAEA5" points="141.9,80.2 139.6,78.9 141.9,77.5 144.2,78.9 				"/>
				<polygon fill="#2CAEA5" points="146.6,82.9 144.2,81.6 146.6,80.2 148.9,81.6 				"/>
				<polygon fill="#2CAEA5" points="151.3,85.6 148.9,84.3 151.3,82.9 153.6,84.3 				"/>
				<polygon fill="#2CAEA5" points="155.9,88.3 153.6,87 155.9,85.6 158.3,87 				"/>
				<polygon fill="#2CAEA5" points="160.6,91 158.3,89.7 160.6,88.3 163,89.7 				"/>
				<polygon fill="#2CAEA5" points="165.3,93.7 163,92.4 165.3,91 167.6,92.4 				"/>
				<polygon fill="#2CAEA5" points="170,96.4 167.6,95.1 170,93.7 172.3,95.1 				"/>
				<polygon fill="#2CAEA5" points="174.6,99.1 172.3,97.8 174.6,96.4 177,97.8 				"/>
				<polygon fill="#2CAEA5" points="179.3,101.8 177,100.5 179.3,99.1 181.7,100.5 				"/>
			</g>
			<g>
				<polygon fill="#2CAEA5" points="137.2,82.9 134.9,81.6 137.2,80.2 139.6,81.6 				"/>
				<polygon fill="#2CAEA5" points="141.9,85.6 139.6,84.3 141.9,82.9 144.2,84.3 				"/>
				<polygon opacity="0.4" fill="#2CAEA5" points="146.6,88.3 144.2,87 146.6,85.6 148.9,87 				"/>
				<polygon fill="#2CAEA5" points="151.2,91 148.9,89.7 151.2,88.3 153.6,89.7 				"/>
				<polygon opacity="0.1" fill="#2CAEA5" points="155.9,93.7 153.6,92.4 155.9,91 158.3,92.4 				"/>
				<polygon fill="#2CAEA5" points="160.6,96.4 158.3,95.1 160.6,93.7 162.9,95.1 				"/>
				<polygon fill="#2CAEA5" points="165.3,99.1 162.9,97.8 165.3,96.4 167.6,97.8 				"/>
				<polygon fill="#2CAEA5" points="169.9,101.8 167.6,100.5 169.9,99.1 172.3,100.5 				"/>
				<polygon fill="#2CAEA5" points="174.6,104.5 172.3,103.2 174.6,101.8 177,103.2 				"/>
			</g>
			<g>
				<polygon fill="#2CAEA5" points="132.5,85.7 130.2,84.3 132.5,83 134.9,84.3 				"/>
				<polygon fill="#2CAEA5" points="137.2,88.4 134.9,87 137.2,85.7 139.5,87 				"/>
				<polygon opacity="0.4" fill="#2CAEA5" points="141.9,91.1 139.5,89.7 141.9,88.4 144.2,89.7 				"/>
				<polygon fill="#2CAEA5" points="146.5,93.8 144.2,92.4 146.5,91.1 148.9,92.4 				"/>
				<polygon fill="#2CAEA5" points="151.2,96.5 148.9,95.1 151.2,93.8 153.6,95.1 				"/>
				<polygon opacity="0.1" fill="#2CAEA5" points="155.9,99.2 153.6,97.8 155.9,96.5 158.2,97.8 				"/>
				<polygon opacity="0.4" fill="#2CAEA5" points="160.6,101.9 158.2,100.5 160.6,99.2 162.9,100.5 				"/>
				<polygon fill="#2CAEA5" points="165.3,104.5 162.9,103.2 165.3,101.9 167.6,103.2 				"/>
				<polygon opacity="0.1" fill="#2CAEA5" points="169.9,107.2 167.6,105.9 169.9,104.5 172.3,105.9 				"/>
			</g>
			<g>
				<polygon fill="#2CAEA5" points="127.8,88.4 125.5,87 127.8,85.7 130.2,87 				"/>
				<polygon opacity="0.4" fill="#2CAEA5" points="132.5,91.1 130.2,89.7 132.5,88.4 134.8,89.7 				"/>
				<polygon fill="#2CAEA5" points="137.2,93.8 134.8,92.4 137.2,91.1 139.5,92.4 				"/>
				<polygon fill="#2CAEA5" points="141.9,96.5 139.5,95.1 141.9,93.8 144.2,95.1 				"/>
				<polygon fill="#2CAEA5" points="146.5,99.2 144.2,97.8 146.5,96.5 148.9,97.8 				"/>
				<polygon fill="#2CAEA5" points="151.2,101.9 148.9,100.5 151.2,99.2 153.5,100.5 				"/>
				<polygon fill="#2CAEA5" points="155.9,104.6 153.5,103.2 155.9,101.9 158.2,103.2 				"/>
				<polygon opacity="0.4" fill="#2CAEA5" points="160.6,107.3 158.2,105.9 160.6,104.6 162.9,105.9 				"/>
				<polygon fill="#2CAEA5" points="165.2,110 162.9,108.6 165.2,107.3 167.6,108.6 				"/>
			</g>
			<g>
				<polygon fill="#2CAEA5" points="123.1,91.1 120.8,89.7 123.1,88.4 125.5,89.7 				"/>
				<polygon opacity="0.1" fill="#2CAEA5" points="127.8,93.8 125.5,92.4 127.8,91.1 130.1,92.4 				"/>
				<polygon fill="#2CAEA5" points="132.5,96.5 130.1,95.1 132.5,93.8 134.8,95.1 				"/>
				<polygon fill="#2CAEA5" points="137.2,99.2 134.8,97.8 137.2,96.5 139.5,97.8 				"/>
				<polygon fill="#2CAEA5" points="141.8,101.9 139.5,100.5 141.8,99.2 144.2,100.5 				"/>
				<polygon fill="#2CAEA5" points="146.5,104.6 144.2,103.2 146.5,101.9 148.8,103.2 				"/>
				<polygon opacity="0.4" fill="#2CAEA5" points="151.2,107.3 148.8,105.9 151.2,104.6 153.5,105.9 				"/>
				<polygon fill="#2CAEA5" points="155.9,110 153.5,108.6 155.9,107.3 158.2,108.6 				"/>
				<polygon fill="#2CAEA5" points="160.5,112.7 158.2,111.3 160.5,110 162.9,111.3 				"/>
			</g>
		</g>
	</g>
	<g>
		<polygon fill="#ADACBA" points="160.6,90.5 87,48 160.6,5.5 234.2,48 		"/>
		<polygon fill="#2E294E" points="160.6,78.9 107.1,48 160.6,17.1 214.1,48 		"/>
		<polygon fill="#FFFFFF" points="160.6,19.2 212.3,49 214.1,48 160.6,17.1 107.1,48 108.9,49 		"/>
		<linearGradient id="SVGID_14_" gradientUnits="userSpaceOnUse" x1="197.4218" y1="99.6876" x2="197.4218" y2="49.3804">
			<stop  offset="0" style="stop-color:#ADACBA"/>
			<stop  offset="0.2501" style="stop-color:#B2B0BE"/>
			<stop  offset="0.5449" style="stop-color:#C0BFCA"/>
			<stop  offset="0.861" style="stop-color:#D7D6DD"/>
			<stop  offset="1" style="stop-color:#E4E3E8"/>
		</linearGradient>
		<polygon fill="url(#SVGID_14_)" points="234.2,48 234.2,72.1 160.6,114.6 160.6,90.5 		"/>
		<polygon fill="#C8EA61" points="87,48 87,72.1 160.6,114.6 160.6,90.5 		"/>
		<g opacity="0.51">
			<polygon fill="#2E294E" points="92,58.8 92,66.4 155.6,103.1 155.6,95.5 			"/>
		</g>
		<polygon fill="#FFFFFF" points="160.6,89.1 88.2,47.3 87,48 160.6,90.5 234.2,48 233,47.3 		"/>
		<polygon fill="#2E294E" points="223.2,64.9 223.2,69.2 171.7,98.9 171.7,94.6 		"/>
		<polygon opacity="0.51" fill="#2E294E" points="87,48 87,72.1 160.6,114.6 160.6,90.5 		"/>
		<polygon fill="#2CAEA5" points="139.1,89.2 125.8,81.5 125.8,83.1 139.1,90.8 		"/>
		<polygon fill="#2CAEA5" points="123.9,80.4 120.3,78.3 120.3,79.9 123.9,82 		"/>
		<polygon fill="#2CAEA5" points="106.9,70.6 99.6,66.4 99.6,68 106.9,72.2 		"/>
		<polygon fill="#2CAEA5" points="113.7,74.5 108.3,71.4 108.3,73 113.7,76.1 		"/>
		<polygon fill="#2CAEA5" points="118.7,77.4 115.1,75.3 115.1,76.9 118.7,79 		"/>
		<g>
			<g>
				<polygon fill="#2CAEA5" points="160.7,27.7 158.4,26.3 160.7,25 163,26.3 				"/>
				<polygon opacity="0.1" fill="#2CAEA5" points="165.4,30.4 163,29 165.4,27.7 167.7,29 				"/>
				<polygon opacity="0.4" fill="#2CAEA5" points="170,33.1 167.7,31.7 170,30.4 172.4,31.7 				"/>
				<polygon fill="#2CAEA5" points="174.7,35.8 172.4,34.4 174.7,33.1 177.1,34.4 				"/>
				<polygon opacity="0.4" fill="#2CAEA5" points="179.4,38.5 177.1,37.1 179.4,35.8 181.7,37.1 				"/>
				<polygon fill="#2CAEA5" points="184.1,41.2 181.7,39.8 184.1,38.5 186.4,39.8 				"/>
				<polygon fill="#2CAEA5" points="188.7,43.9 186.4,42.5 188.7,41.2 191.1,42.5 				"/>
				<polygon fill="#2CAEA5" points="193.4,46.6 191.1,45.2 193.4,43.9 195.8,45.2 				"/>
				<polygon opacity="0.1" fill="#2CAEA5" points="198.1,49.3 195.8,47.9 198.1,46.6 200.4,47.9 				"/>
			</g>
			<g>
				<polygon fill="#2CAEA5" points="156,30.4 153.7,29 156,27.7 158.3,29 				"/>
				<polygon fill="#2CAEA5" points="160.7,33.1 158.3,31.7 160.7,30.4 163,31.7 				"/>
				<polygon fill="#2CAEA5" points="165.3,35.8 163,34.4 165.3,33.1 167.7,34.4 				"/>
				<polygon fill="#2CAEA5" points="170,38.5 167.7,37.1 170,35.8 172.4,37.1 				"/>
				<polygon fill="#2CAEA5" points="174.7,41.2 172.4,39.8 174.7,38.5 177,39.8 				"/>
				<polygon fill="#2CAEA5" points="179.4,43.9 177,42.5 179.4,41.2 181.7,42.5 				"/>
				<polygon fill="#2CAEA5" points="184,46.6 181.7,45.2 184,43.9 186.4,45.2 				"/>
				<polygon fill="#2CAEA5" points="188.7,49.3 186.4,47.9 188.7,46.6 191.1,47.9 				"/>
				<polygon fill="#2CAEA5" points="193.4,52 191.1,50.6 193.4,49.3 195.7,50.6 				"/>
			</g>
			<g>
				<polygon fill="#2CAEA5" points="151.3,33.1 149,31.7 151.3,30.4 153.6,31.7 				"/>
				<polygon fill="#2CAEA5" points="156,35.8 153.6,34.4 156,33.1 158.3,34.4 				"/>
				<polygon fill="#2CAEA5" points="160.7,38.5 158.3,37.1 160.7,35.8 163,37.1 				"/>
				<polygon opacity="0.1" fill="#2CAEA5" points="165.3,41.2 163,39.8 165.3,38.5 167.7,39.8 				"/>
				<polygon opacity="0.4" fill="#2CAEA5" points="170,43.9 167.7,42.5 170,41.2 172.3,42.5 				"/>
				<polygon opacity="0.4" fill="#2CAEA5" points="174.7,46.6 172.3,45.2 174.7,43.9 177,45.2 				"/>
				<polygon fill="#2CAEA5" points="179.4,49.3 177,47.9 179.4,46.6 181.7,47.9 				"/>
				<polygon fill="#2CAEA5" points="184,52 181.7,50.6 184,49.3 186.4,50.6 				"/>
				<polygon fill="#2CAEA5" points="188.7,54.7 186.4,53.3 188.7,52 191,53.3 				"/>
			</g>
			<g>
				<polygon opacity="0.4" fill="#2CAEA5" points="146.6,35.8 144.3,34.5 146.6,33.1 148.9,34.5 				"/>
				<polygon opacity="0.4" fill="#2CAEA5" points="151.3,38.5 148.9,37.2 151.3,35.8 153.6,37.2 				"/>
				<polygon opacity="0.1" fill="#2CAEA5" points="156,41.2 153.6,39.9 156,38.5 158.3,39.9 				"/>
				<polygon fill="#2CAEA5" points="160.6,43.9 158.3,42.6 160.6,41.2 163,42.6 				"/>
				<polygon fill="#2CAEA5" points="165.3,46.6 163,45.3 165.3,43.9 167.6,45.3 				"/>
				<polygon fill="#2CAEA5" points="170,49.3 167.6,48 170,46.6 172.3,48 				"/>
				<polygon opacity="0.4" fill="#2CAEA5" points="174.7,52 172.3,50.7 174.7,49.3 177,50.7 				"/>
				<polygon fill="#2CAEA5" points="179.3,54.7 177,53.4 179.3,52 181.7,53.4 				"/>
				<polygon fill="#2CAEA5" points="184,57.4 181.7,56.1 184,54.7 186.3,56.1 				"/>
			</g>
			<g>
				<polygon fill="#2CAEA5" points="141.9,38.5 139.6,37.2 141.9,35.8 144.2,37.2 				"/>
				<polygon fill="#2CAEA5" points="146.6,41.2 144.2,39.9 146.6,38.5 148.9,39.9 				"/>
				<polygon fill="#2CAEA5" points="151.3,43.9 148.9,42.6 151.3,41.2 153.6,42.6 				"/>
				<polygon fill="#2CAEA5" points="155.9,46.6 153.6,45.3 155.9,43.9 158.3,45.3 				"/>
				<polygon fill="#2CAEA5" points="160.6,49.3 158.3,48 160.6,46.6 163,48 				"/>
				<polygon fill="#2CAEA5" points="165.3,52 163,50.7 165.3,49.3 167.6,50.7 				"/>
				<polygon fill="#2CAEA5" points="170,54.7 167.6,53.4 170,52 172.3,53.4 				"/>
				<polygon fill="#2CAEA5" points="174.6,57.4 172.3,56.1 174.6,54.7 177,56.1 				"/>
				<polygon fill="#2CAEA5" points="179.3,60.1 177,58.8 179.3,57.4 181.7,58.8 				"/>
			</g>
			<g>
				<polygon fill="#2CAEA5" points="137.2,41.2 134.9,39.9 137.2,38.5 139.6,39.9 				"/>
				<polygon fill="#2CAEA5" points="141.9,43.9 139.6,42.6 141.9,41.2 144.2,42.6 				"/>
				<polygon opacity="0.4" fill="#2CAEA5" points="146.6,46.6 144.2,45.3 146.6,43.9 148.9,45.3 				"/>
				<polygon fill="#2CAEA5" points="151.2,49.3 148.9,48 151.2,46.6 153.6,48 				"/>
				<polygon opacity="0.1" fill="#2CAEA5" points="155.9,52 153.6,50.7 155.9,49.3 158.3,50.7 				"/>
				<polygon fill="#2CAEA5" points="160.6,54.7 158.3,53.4 160.6,52 162.9,53.4 				"/>
				<polygon fill="#2CAEA5" points="165.3,57.4 162.9,56.1 165.3,54.7 167.6,56.1 				"/>
				<polygon fill="#2CAEA5" points="169.9,60.1 167.6,58.8 169.9,57.4 172.3,58.8 				"/>
				<polygon fill="#2CAEA5" points="174.6,62.8 172.3,61.5 174.6,60.1 177,61.5 				"/>
			</g>
			<g>
				<polygon fill="#2CAEA5" points="132.5,43.9 130.2,42.6 132.5,41.2 134.9,42.6 				"/>
				<polygon fill="#2CAEA5" points="137.2,46.6 134.9,45.3 137.2,43.9 139.5,45.3 				"/>
				<polygon opacity="0.4" fill="#2CAEA5" points="141.9,49.3 139.5,48 141.9,46.6 144.2,48 				"/>
				<polygon fill="#2CAEA5" points="146.5,52 144.2,50.7 146.5,49.3 148.9,50.7 				"/>
				<polygon fill="#2CAEA5" points="151.2,54.7 148.9,53.4 151.2,52 153.6,53.4 				"/>
				<polygon opacity="0.1" fill="#2CAEA5" points="155.9,57.4 153.6,56.1 155.9,54.7 158.2,56.1 				"/>
				<polygon opacity="0.4" fill="#2CAEA5" points="160.6,60.1 158.2,58.8 160.6,57.4 162.9,58.8 				"/>
				<polygon fill="#2CAEA5" points="165.3,62.8 162.9,61.5 165.3,60.1 167.6,61.5 				"/>
				<polygon opacity="0.1" fill="#2CAEA5" points="169.9,65.5 167.6,64.2 169.9,62.8 172.3,64.2 				"/>
			</g>
			<g>
				<polygon fill="#2CAEA5" points="127.8,46.7 125.5,45.3 127.8,44 130.2,45.3 				"/>
				<polygon opacity="0.4" fill="#2CAEA5" points="132.5,49.3 130.2,48 132.5,46.7 134.8,48 				"/>
				<polygon fill="#2CAEA5" points="137.2,52 134.8,50.7 137.2,49.3 139.5,50.7 				"/>
				<polygon fill="#2CAEA5" points="141.9,54.7 139.5,53.4 141.9,52 144.2,53.4 				"/>
				<polygon fill="#2CAEA5" points="146.5,57.4 144.2,56.1 146.5,54.7 148.9,56.1 				"/>
				<polygon fill="#2CAEA5" points="151.2,60.1 148.9,58.8 151.2,57.4 153.5,58.8 				"/>
				<polygon fill="#2CAEA5" points="155.9,62.8 153.5,61.5 155.9,60.1 158.2,61.5 				"/>
				<polygon opacity="0.4" fill="#2CAEA5" points="160.6,65.5 158.2,64.2 160.6,62.8 162.9,64.2 				"/>
				<polygon fill="#2CAEA5" points="165.2,68.2 162.9,66.9 165.2,65.5 167.6,66.9 				"/>
			</g>
			<g>
				<polygon fill="#2CAEA5" points="123.1,49.4 120.8,48 123.1,46.7 125.5,48 				"/>
				<polygon opacity="0.1" fill="#2CAEA5" points="127.8,52.1 125.5,50.7 127.8,49.4 130.1,50.7 				"/>
				<polygon fill="#2CAEA5" points="132.5,54.8 130.1,53.4 132.5,52.1 134.8,53.4 				"/>
				<polygon fill="#2CAEA5" points="137.2,57.5 134.8,56.1 137.2,54.8 139.5,56.1 				"/>
				<polygon fill="#2CAEA5" points="141.8,60.2 139.5,58.8 141.8,57.5 144.2,58.8 				"/>
				<polygon fill="#2CAEA5" points="146.5,62.9 144.2,61.5 146.5,60.2 148.8,61.5 				"/>
				<polygon opacity="0.4" fill="#2CAEA5" points="151.2,65.6 148.8,64.2 151.2,62.9 153.5,64.2 				"/>
				<polygon fill="#2CAEA5" points="155.9,68.3 153.5,66.9 155.9,65.6 158.2,66.9 				"/>
				<polygon fill="#2CAEA5" points="160.5,71 158.2,69.6 160.5,68.3 162.9,69.6 				"/>
			</g>
		</g>
	</g>
	<g>
		<g>
			<g>
				<g>
					<g>
						<g>
							<g>
								
									<linearGradient id="SVGID_15_" gradientUnits="userSpaceOnUse" x1="2456.1445" y1="125.0323" x2="2549.0945" y2="125.0323" gradientTransform="matrix(1 0 0 1 -2278.6904 0)">
									<stop  offset="0" style="stop-color:#ADACBA"/>
									<stop  offset="0.2501" style="stop-color:#B2B0BE"/>
									<stop  offset="0.5449" style="stop-color:#C0BFCA"/>
									<stop  offset="0.861" style="stop-color:#D7D6DD"/>
									<stop  offset="1" style="stop-color:#E4E3E8"/>
								</linearGradient>
								<path fill="url(#SVGID_15_)" d="M270.4,130.8l-10.1-59.7l0.8-0.3l-1.2-0.7l0,0c-0.2-0.2-0.6-0.1-0.9,0.1l-80.5,46.5
									c-0.7,0.4-1.2,1.4-1,2l10.1,60.2c0.1,0.3,0.2,0.5,0.4,0.6l0,0l1.2,0.7l0.2-1.1l-0.1,0l80-46.2
									C270,132.5,270.5,131.5,270.4,130.8z"/>
								
									<linearGradient id="SVGID_16_" gradientUnits="userSpaceOnUse" x1="2456.1453" y1="148.8699" x2="2472.1057" y2="148.8699" gradientTransform="matrix(1 0 0 1 -2278.6904 0)">
									<stop  offset="0" style="stop-color:#2E294E"/>
									<stop  offset="0.1537" style="stop-color:#332E52"/>
									<stop  offset="0.3348" style="stop-color:#413C5E"/>
									<stop  offset="0.5299" style="stop-color:#585472"/>
									<stop  offset="0.7348" style="stop-color:#78758D"/>
									<stop  offset="0.9454" style="stop-color:#A29FB0"/>
									<stop  offset="1" style="stop-color:#ADACBA"/>
								</linearGradient>
								<path fill="url(#SVGID_16_)" d="M179,118.2l-1.3-0.6c-0.1,0.3-0.2,0.7-0.2,1l10.1,60.2c0.1,0.3,0.2,0.5,0.4,0.6l0,0l1.2,0.7
									l0.2-1.1l-0.1,0l4-2.3L179,118.2z"/>
								<path fill="#C8EA61" d="M270.6,133.6L190.1,180c-0.6,0.4-1.2,0.2-1.3-0.5l-10.1-60.2c-0.1-0.7,0.4-1.7,1-2l80.5-46.5
									c0.6-0.4,1.2-0.2,1.3,0.5l10.1,60.2C271.8,132.2,271.3,133.2,270.6,133.6z"/>
								<g opacity="0.51">
									<polygon fill="#2E294E" points="259.2,74.7 181.6,119.5 191.2,176.2 268.8,131.4 									"/>
								</g>
							</g>
							<g>
								
									<linearGradient id="SVGID_17_" gradientUnits="userSpaceOnUse" x1="2468.5977" y1="175.6659" x2="2599.8735" y2="175.6659" gradientTransform="matrix(1 0 0 1 -2278.6904 0)">
									<stop  offset="0" style="stop-color:#2E294E"/>
									<stop  offset="0.1537" style="stop-color:#332E52"/>
									<stop  offset="0.3348" style="stop-color:#413C5E"/>
									<stop  offset="0.5299" style="stop-color:#585472"/>
									<stop  offset="0.7348" style="stop-color:#78758D"/>
									<stop  offset="0.9454" style="stop-color:#A29FB0"/>
									<stop  offset="1" style="stop-color:#ADACBA"/>
								</linearGradient>
								<path fill="url(#SVGID_17_)" d="M321.2,162.1l-4.4,2.3l-44-25.4c-0.7-0.4-2-0.4-2.9,0.1l-75.9,43.8c-0.7-0.4-4-2-4-2
									l1.6,4.2c0,0,0,0,0,0c0.1,0.2,0.2,0.4,0.4,0.5l46.4,26.8c0.7,0.4,2,0.4,2.9-0.1l77.7-44.9c0.3-0.2,0.6-0.4,0.7-0.7l0,0
									L321.2,162.1z"/>
								
									<linearGradient id="SVGID_18_" gradientUnits="userSpaceOnUse" x1="2512.7068" y1="171.2887" x2="2644.0525" y2="171.2887" gradientTransform="matrix(1 0 0 1 -2278.6904 0)">
									<stop  offset="0" style="stop-color:#ADACBA"/>
									<stop  offset="0.2501" style="stop-color:#B2B0BE"/>
									<stop  offset="0.5449" style="stop-color:#C0BFCA"/>
									<stop  offset="0.861" style="stop-color:#D7D6DD"/>
									<stop  offset="1" style="stop-color:#E4E3E8"/>
								</linearGradient>
								<path fill="url(#SVGID_18_)" d="M320.5,162.8l-79.6,46c-0.9,0.5-2.2,0.6-2.9,0.1l-47.5-27.4c-0.8-0.4-0.7-1.2,0.2-1.7
									l79.6-46c0.9-0.5,2.2-0.6,2.9-0.1l47.5,27.4C321.5,161.5,321.4,162.3,320.5,162.8z"/>
								<path fill="#FFFFFF" d="M320.5,162.3l-79.6,46c-0.9,0.5-2.2,0.6-2.9,0.1L190.4,181c-0.2-0.1-0.4-0.3-0.5-0.5
									c-0.1,0.4,0,0.7,0.5,1l47.5,27.4c0.8,0.4,2.1,0.4,2.9-0.1l79.6-46c0.6-0.3,0.8-0.8,0.7-1.2
									C321.1,161.9,320.9,162.1,320.5,162.3z"/>
								<path fill="#2E294E" d="M216.8,198.8V198c0-0.1,0.1-0.1,0.1-0.1l3.1,1.8c0.1,0,0.1,0.1,0.1,0.2v0.9c0,0.1-0.1,0.1-0.1,0.1
									l-3.1-1.8C216.9,199,216.8,198.9,216.8,198.8z"/>
								<path fill="#2E294E" d="M221.4,201.5v-0.9c0-0.1,0.1-0.1,0.1-0.1l3.1,1.8c0.1,0,0.1,0.1,0.1,0.2v0.9c0,0.1-0.1,0.1-0.1,0.1
									l-3.1-1.8C221.5,201.7,221.4,201.6,221.4,201.5z"/>
								<path fill="#9996A8" d="M202.8,178.9l66.2-38.2c0.4-0.3,1-0.3,1.4,0l23.6,13.6c0.3,0.2,0.3,0.7,0,0.9l-66.2,38.2
									c-0.4,0.3-1,0.3-1.4,0l-23.6-13.6C202.4,179.6,202.4,179.1,202.8,178.9z"/>
								<path fill="#75728A" d="M202.8,179.8l0.2,0.1l65.9-38.1c0.4-0.3,1-0.3,1.4,0l23.3,13.5l0.2-0.1c0.3-0.2,0.3-0.7,0-0.9
									l-23.6-13.6c-0.4-0.3-1-0.3-1.4,0l-66.2,38.2C202.4,179.1,202.4,179.6,202.8,179.8z"/>
								<g>
									<polygon fill="#C8EA61" points="272.2,144.1 214.7,177.3 212.1,175.9 269.6,142.7 									"/>
									<polygon fill="#C8EA61" points="278.4,147.8 224.5,178.9 222,177.4 275.9,146.3 									"/>
									<polygon fill="#C8EA61" points="282.5,150.1 219,186.8 216.5,185.3 280,148.6 									"/>
									<polygon fill="#C8EA61" points="286.6,152.5 223.1,189.1 220.6,187.7 284,151 									"/>
									<polygon fill="#C8EA61" points="290.7,154.8 227.2,191.5 224.6,190 288.1,153.4 									"/>
									<polygon fill="#C8EA61" points="211.2,179.3 208.6,180.8 206.1,179.3 208.6,177.9 									"/>
									<polygon fill="#C8EA61" points="220.2,181.4 214.9,184.4 212.4,183 217.7,179.9 									"/>
								</g>
								
									<linearGradient id="SVGID_19_" gradientUnits="userSpaceOnUse" x1="2534.9502" y1="178.745" x2="2568.5708" y2="178.745" gradientTransform="matrix(1 0 0 1 -2278.6904 0)">
									<stop  offset="0" style="stop-color:#ADACBA"/>
									<stop  offset="0.2501" style="stop-color:#B2B0BE"/>
									<stop  offset="0.5449" style="stop-color:#C0BFCA"/>
									<stop  offset="0.861" style="stop-color:#D7D6DD"/>
									<stop  offset="1" style="stop-color:#E4E3E8"/>
								</linearGradient>
								<path fill="url(#SVGID_19_)" d="M271.5,188.1l17.8-10.3c0.7-0.4,0.7-1.1,0-1.5l-12.2-7c-0.7-0.4-1.8-0.4-2.5,0l-17.8,10.3
									c-0.7,0.4-0.7,1.1,0,1.5l12.2,7C269.7,188.6,270.8,188.6,271.5,188.1z"/>
								<path fill="#75728A" d="M256.8,180.2l17.8-10.3c0.7-0.4,1.8-0.4,2.5,0l12.2,7c0.2,0.1,0.4,0.3,0.4,0.4c0.2-0.4,0-0.7-0.4-1
									l-12.2-7c-0.7-0.4-1.8-0.4-2.5,0l-17.8,10.3c-0.5,0.3-0.6,0.7-0.4,1C256.4,180.5,256.6,180.4,256.8,180.2z"/>
							</g>
						</g>
						<g opacity="0.11">
							<defs>
								<polygon id="SVGID_7_" opacity="0.11" points="259.2,74.7 181.6,119.5 191.2,176.2 268.8,131.4 								"/>
							</defs>
							<clipPath id="SVGID_20_">
								<use xlink:href="#SVGID_7_"  overflow="visible"/>
							</clipPath>
							<g clip-path="url(#SVGID_20_)">
								
									<linearGradient id="SVGID_21_" gradientUnits="userSpaceOnUse" x1="2462.5251" y1="142.1763" x2="2593.8708" y2="142.1763" gradientTransform="matrix(1 0 0 1 -2278.6904 0)">
									<stop  offset="0" style="stop-color:#ADACBA"/>
									<stop  offset="0.2501" style="stop-color:#B2B0BE"/>
									<stop  offset="0.5449" style="stop-color:#C0BFCA"/>
									<stop  offset="0.861" style="stop-color:#D7D6DD"/>
									<stop  offset="1" style="stop-color:#E4E3E8"/>
								</linearGradient>
								<path fill="url(#SVGID_21_)" d="M270.3,133.7l-79.6,46c-0.9,0.5-2.2,0.6-2.9,0.1l-47.5-27.4c-0.8-0.4-0.7-1.2,0.2-1.7
									l79.6-46c0.9-0.5,2.2-0.6,2.9-0.1l47.5,27.4C271.3,132.4,271.2,133.2,270.3,133.7z"/>
								
									<linearGradient id="SVGID_22_" gradientUnits="userSpaceOnUse" x1="2453.8804" y1="132.5346" x2="2487.5012" y2="132.5346" gradientTransform="matrix(1 0 0 1 -2278.6904 0)">
									<stop  offset="0" style="stop-color:#ADACBA"/>
									<stop  offset="0.2501" style="stop-color:#B2B0BE"/>
									<stop  offset="0.5449" style="stop-color:#C0BFCA"/>
									<stop  offset="0.861" style="stop-color:#D7D6DD"/>
									<stop  offset="1" style="stop-color:#E4E3E8"/>
								</linearGradient>
								<path fill="url(#SVGID_22_)" d="M190.4,141.9l17.8-10.3c0.7-0.4,0.7-1.1,0-1.5l-12.2-7c-0.7-0.4-1.8-0.4-2.5,0l-17.8,10.3
									c-0.7,0.4-0.7,1.1,0,1.5l12.2,7C188.6,142.3,189.7,142.3,190.4,141.9z"/>
								<path fill="#75728A" d="M175.7,134l17.8-10.3c0.7-0.4,1.8-0.4,2.5,0l12.2,7c0.2,0.1,0.4,0.3,0.4,0.4c0.2-0.4,0-0.7-0.4-1
									l-12.2-7c-0.7-0.4-1.8-0.4-2.5,0l-17.8,10.3c-0.5,0.3-0.6,0.7-0.4,1C175.4,134.3,175.5,134.2,175.7,134z"/>
								<g>
									<path fill="#9996A8" d="M167.9,158l66.2-38.2c0.4-0.3,1-0.3,1.4,0l23.6,13.6c0.3,0.2,0.3,0.7,0,0.9l-66.2,38.2
										c-0.4,0.3-1,0.3-1.4,0l-23.6-13.6C167.5,158.7,167.5,158.2,167.9,158z"/>
									<path fill="#75728A" d="M167.9,158.9l0.2,0.1l65.9-38.1c0.4-0.3,1-0.3,1.4,0l23.3,13.5l0.2-0.1c0.3-0.2,0.3-0.7,0-0.9
										l-23.6-13.6c-0.4-0.3-1-0.3-1.4,0L167.9,158C167.5,158.2,167.5,158.7,167.9,158.9z"/>
									<g>
										<polygon fill="#C8EA61" points="252.9,132.5 195.2,165.8 197.5,167.1 255.2,133.9 										"/>
										<polygon fill="#C8EA61" points="246.8,129 192,160.7 194.3,162 249.1,130.3 										"/>
										<polygon fill="#C8EA61" points="187.9,163 182.8,166 185.1,167.3 190.2,164.3 										"/>
										<polygon fill="#C8EA61" points="192.4,167.4 188.9,169.5 191.1,170.8 194.7,168.8 										"/>
										<polygon fill="#C8EA61" points="243,126.8 179,163.8 181.3,165.1 245.3,128.1 										"/>
										<polygon fill="#C8EA61" points="239.2,124.6 175.2,161.6 177.5,162.9 241.5,126 										"/>
										<polygon fill="#C8EA61" points="235.4,122.4 171.4,159.4 173.7,160.7 237.7,123.8 										"/>
									</g>
								</g>
							</g>
						</g>
					</g>
				</g>
			</g>
			<g>
				<polygon fill="#2CAEA5" points="210.8,154.5 217.1,150.9 217.3,152 211,155.6 				"/>
				<polygon fill="#2CAEA5" points="218.1,150.3 221.5,148.4 221.7,149.5 218.3,151.4 				"/>
				<polygon fill="#2CAEA5" points="226.9,145.3 229.3,143.9 229.5,145 227,146.4 				"/>
				<polygon fill="#2CAEA5" points="225.1,146.3 225.9,145.8 226.1,146.9 225.2,147.4 				"/>
				<polygon fill="#2CAEA5" points="222.6,147.8 224.1,146.9 224.3,148 222.7,148.9 				"/>
				<polygon fill="#2CAEA5" points="215.8,146.2 218.3,144.8 218.5,145.9 216,147.3 				"/>
				<polygon fill="#2CAEA5" points="210,149.6 214.8,146.8 215,147.9 210.2,150.7 				"/>
				<g>
					<polygon fill="#2CAEA5" points="216.9,131.9 221.8,129.1 222,130.2 217.1,133 					"/>
					<polygon fill="#2CAEA5" points="214.4,133.3 216,132.5 216.2,133.6 214.6,134.4 					"/>
				</g>
				<polygon fill="#2CAEA5" points="217.8,136.9 222.6,134.1 222.8,135.2 217.9,138 				"/>
				<polygon fill="#2CAEA5" points="215.3,138.3 216.8,137.4 217,138.5 215.4,139.4 				"/>
				<polygon fill="#2CAEA5" points="213.4,110.4 204.2,115.7 204,114.6 213.2,109.3 				"/>
				<polygon fill="#2CAEA5" points="216.6,108.5 214.3,109.8 214.1,108.8 216.4,107.4 				"/>
				<polygon fill="#2CAEA5" points="232.6,107.5 223.5,112.8 223.3,111.7 232.4,106.4 				"/>
				<polygon fill="#2CAEA5" points="235.8,105.6 233.6,106.9 233.4,105.8 235.7,104.5 				"/>
				<polygon fill="#2CAEA5" points="207.1,116.7 204.7,118.2 204.5,117.1 206.9,115.6 				"/>
				<polygon fill="#2CAEA5" points="222.2,113.5 219.7,114.9 219.5,113.8 222,112.4 				"/>
				<polygon fill="#2CAEA5" points="212.9,113.4 208.1,116.2 207.9,115.1 212.7,112.3 				"/>
				<polygon fill="#2CAEA5" points="215.4,111.9 213.9,112.8 213.7,111.7 215.2,110.8 				"/>
				<polygon fill="#2CAEA5" points="221.3,108.6 216.4,111.4 216.2,110.3 221.1,107.5 				"/>
				<polygon fill="#2CAEA5" points="223.8,107.1 222.2,108 222.1,106.9 223.6,106 				"/>
				<polygon fill="#2CAEA5" points="221.8,111 219.3,112.4 219.1,111.4 221.6,109.9 				"/>
				<polygon fill="#2CAEA5" points="227.6,107.7 222.7,110.5 222.5,109.4 227.4,106.6 				"/>
				<polygon fill="#2CAEA5" points="230.1,106.2 228.5,107.1 228.3,106 229.9,105.1 				"/>
				<polygon fill="#2CAEA5" points="210.1,117.7 205.1,120.7 204.9,119.6 210,116.6 				"/>
				<polygon fill="#2CAEA5" points="214.8,115.1 211.1,117.2 210.9,116.1 214.6,114 				"/>
				<polygon fill="#2CAEA5" points="218.2,113.1 215.7,114.5 215.5,113.4 218,112 				"/>
				<polygon fill="#2CAEA5" points="242.2,102 237.1,104.9 236.9,103.8 242,100.9 				"/>
				<polygon fill="#2CAEA5" points="246.8,99.3 243.1,101.4 243,100.3 246.6,98.2 				"/>
				<polygon fill="#2CAEA5" points="250.2,97.3 247.8,98.7 247.6,97.7 250,96.2 				"/>
				<polygon fill="#2CAEA5" points="240.2,134.9 245.3,131.9 245.4,133 240.4,135.9 				"/>
				<polygon fill="#2CAEA5" points="235.6,137.5 239.2,135.4 239.4,136.5 235.8,138.6 				"/>
				<polygon fill="#2CAEA5" points="232.2,139.5 234.6,138.1 234.8,139.2 232.3,140.6 				"/>
				<polygon fill="#2CAEA5" points="238.5,138.6 243.6,135.6 243.8,136.7 238.7,139.7 				"/>
				<polygon fill="#2CAEA5" points="233.9,141.2 237.6,139.1 237.7,140.2 234.1,142.3 				"/>
				<polygon fill="#2CAEA5" points="230.5,143.2 232.9,141.8 233.1,142.9 230.7,144.3 				"/>
				<polygon fill="#2CAEA5" points="218.1,134 219.8,133 220,134.1 218.3,135.1 				"/>
				<polygon fill="#2CAEA5" points="214.9,135.8 217.1,134.5 217.3,135.6 215.1,136.9 				"/>
				<polygon fill="#2CAEA5" points="210.6,120.2 205.5,123.1 205.3,122 210.4,119.1 				"/>
				<polygon fill="#2CAEA5" points="215.2,117.5 211.5,119.6 211.4,118.6 215,116.4 				"/>
				<polygon fill="#2CAEA5" points="218.6,115.5 216.2,117 216,115.9 218.5,114.5 				"/>
				<polygon fill="#2CAEA5" points="207.7,124.6 205.9,125.6 205.8,124.5 207.5,123.5 				"/>
				<polygon fill="#2CAEA5" points="210.9,122.8 208.6,124.1 208.4,123 210.7,121.7 				"/>
				<polygon fill="#2CAEA5" points="215.5,120.1 211.8,122.2 211.6,121.1 215.3,119 				"/>
				<polygon fill="#2CAEA5" points="220.4,140.8 222.1,139.8 222.3,140.9 220.6,141.9 				"/>
				<polygon fill="#2CAEA5" points="217.2,142.7 219.5,141.4 219.6,142.5 217.4,143.8 				"/>
				<polygon fill="#2CAEA5" points="212.6,145.3 216.2,143.2 216.4,144.3 212.8,146.4 				"/>
				<polygon fill="#2CAEA5" points="223,136.8 226.7,134.7 226.8,135.8 223.2,137.9 				"/>
				<polygon fill="#2CAEA5" points="217.1,140 222,137.2 222.2,138.3 217.2,141.1 				"/>
				<polygon fill="#2CAEA5" points="214.6,141.5 216.1,140.6 216.3,141.7 214.8,142.6 				"/>
				<polygon fill="#2CAEA5" points="212.2,142.9 213.7,142 213.9,143.1 212.4,143.9 				"/>
				<g>
					<polygon fill="#2CAEA5" points="212.5,128.8 217.3,126 217.5,127.1 212.7,129.9 					"/>
					<polygon fill="#2CAEA5" points="210,130.2 211.5,129.3 211.7,130.4 210.2,131.3 					"/>
					<polygon fill="#2CAEA5" points="212.8,125.9 214.5,124.9 214.7,126 213,127 					"/>
					<polygon fill="#2CAEA5" points="218.9,127.9 220.6,126.9 220.8,128 219.1,129 					"/>
					<polygon fill="#2CAEA5" points="221.3,126.5 225.4,124.1 225.6,125.2 221.5,127.5 					"/>
					<polygon fill="#2CAEA5" points="226.1,123.7 228.6,122.3 228.8,123.3 226.3,124.8 					"/>
					<polygon fill="#2CAEA5" points="209.6,127.7 211.9,126.4 212.1,127.5 209.8,128.8 					"/>
					<g>
						<polygon fill="#2CAEA5" points="209.4,125.2 211.1,124.2 211.3,125.3 209.6,126.3 						"/>
						<polygon fill="#2CAEA5" points="206.2,127 208.4,125.7 208.6,126.8 206.4,128.1 						"/>
					</g>
					<polygon fill="#2CAEA5" points="216.4,129.3 217.9,128.4 218.1,129.5 216.6,130.4 					"/>
					<polygon fill="#2CAEA5" points="214,130.7 215.5,129.8 215.7,130.9 214.2,131.8 					"/>
				</g>
				<polygon fill="#2CAEA5" points="225.8,143.2 231,140.2 231.2,141.2 226,144.3 				"/>
				<polygon fill="#2CAEA5" points="219.9,146.6 224.8,143.7 225,144.8 220.1,147.7 				"/>
				<polygon fill="#2CAEA5" points="217.4,148 219,147.1 219.1,148.2 217.6,149.1 				"/>
				<polygon fill="#2CAEA5" points="215,149.4 216.6,148.5 216.8,149.6 215.2,150.5 				"/>
				<polygon fill="#2CAEA5" points="213.7,150.2 210.4,152.1 210.6,153.2 213.9,151.2 				"/>
			</g>
		</g>
		<g>
			<g>
				<g>
					<g>
						<g>
							<g>
								
									<linearGradient id="SVGID_23_" gradientUnits="userSpaceOnUse" x1="-152.0144" y1="125.0323" x2="-59.0644" y2="125.0323" gradientTransform="matrix(-1 0 0 1 -8.2432 0)">
									<stop  offset="0" style="stop-color:#ADACBA"/>
									<stop  offset="0.2501" style="stop-color:#B2B0BE"/>
									<stop  offset="0.5449" style="stop-color:#C0BFCA"/>
									<stop  offset="0.861" style="stop-color:#D7D6DD"/>
									<stop  offset="1" style="stop-color:#E4E3E8"/>
								</linearGradient>
								<path fill="url(#SVGID_23_)" d="M50.8,130.8l10.1-59.7l-0.8-0.3l1.2-0.7l0,0c0.2-0.2,0.6-0.1,0.9,0.1l80.5,46.5
									c0.7,0.4,1.2,1.4,1,2l-10.1,60.2c-0.1,0.3-0.2,0.5-0.4,0.6l0,0l-1.2,0.7l-0.2-1.1l0.1,0l-80-46.2
									C51.2,132.5,50.7,131.5,50.8,130.8z"/>
								
									<linearGradient id="SVGID_24_" gradientUnits="userSpaceOnUse" x1="-152.0138" y1="148.8699" x2="-136.0534" y2="148.8699" gradientTransform="matrix(-1 0 0 1 -8.2432 0)">
									<stop  offset="0" style="stop-color:#2E294E"/>
									<stop  offset="0.1537" style="stop-color:#332E52"/>
									<stop  offset="0.3348" style="stop-color:#413C5E"/>
									<stop  offset="0.5299" style="stop-color:#585472"/>
									<stop  offset="0.7348" style="stop-color:#78758D"/>
									<stop  offset="0.9454" style="stop-color:#A29FB0"/>
									<stop  offset="1" style="stop-color:#ADACBA"/>
								</linearGradient>
								<path fill="url(#SVGID_24_)" d="M142.3,118.2l1.3-0.6c0.1,0.3,0.2,0.7,0.2,1l-10.1,60.2c-0.1,0.3-0.2,0.5-0.4,0.6l0,0
									l-1.2,0.7l-0.2-1.1l0.1,0l-4-2.3L142.3,118.2z"/>
								<path fill="#C8EA61" d="M50.6,133.6l80.5,46.5c0.6,0.4,1.2,0.2,1.3-0.5l10.1-60.2c0.1-0.7-0.4-1.7-1-2L61,70.8
									c-0.6-0.4-1.2-0.2-1.3,0.5l-10.1,60.2C49.5,132.2,50,133.2,50.6,133.6z"/>
								<g opacity="0.51">
									<polygon fill="#2E294E" points="62,74.7 139.6,119.5 130,176.2 52.5,131.4 									"/>
								</g>
							</g>
							<g>
								
									<linearGradient id="SVGID_25_" gradientUnits="userSpaceOnUse" x1="-139.5613" y1="175.6659" x2="-8.2855" y2="175.6659" gradientTransform="matrix(-1 0 0 1 -8.2432 0)">
									<stop  offset="0" style="stop-color:#2E294E"/>
									<stop  offset="0.1537" style="stop-color:#332E52"/>
									<stop  offset="0.3348" style="stop-color:#413C5E"/>
									<stop  offset="0.5299" style="stop-color:#585472"/>
									<stop  offset="0.7348" style="stop-color:#78758D"/>
									<stop  offset="0.9454" style="stop-color:#A29FB0"/>
									<stop  offset="1" style="stop-color:#ADACBA"/>
								</linearGradient>
								<path fill="url(#SVGID_25_)" d="M0,162.1l4.4,2.3l44-25.4c0.7-0.4,2-0.4,2.9,0.1l75.9,43.8c0.7-0.4,4-2,4-2l-1.6,4.2
									c0,0,0,0,0,0c-0.1,0.2-0.2,0.4-0.4,0.5l-46.4,26.8c-0.7,0.4-2,0.4-2.9-0.1L2.3,167.4c-0.3-0.2-0.6-0.4-0.7-0.7l0,0L0,162.1z
									"/>
								
									<linearGradient id="SVGID_26_" gradientUnits="userSpaceOnUse" x1="-95.4522" y1="171.2887" x2="35.8935" y2="171.2887" gradientTransform="matrix(-1 0 0 1 -8.2432 0)">
									<stop  offset="0" style="stop-color:#ADACBA"/>
									<stop  offset="0.2501" style="stop-color:#B2B0BE"/>
									<stop  offset="0.5449" style="stop-color:#C0BFCA"/>
									<stop  offset="0.861" style="stop-color:#D7D6DD"/>
									<stop  offset="1" style="stop-color:#E4E3E8"/>
								</linearGradient>
								<path fill="url(#SVGID_26_)" d="M0.7,162.8l79.6,46c0.9,0.5,2.2,0.6,2.9,0.1l47.5-27.4c0.8-0.4,0.7-1.2-0.2-1.7l-79.6-46
									c-0.9-0.5-2.2-0.6-2.9-0.1L0.5,161.1C-0.2,161.5-0.2,162.3,0.7,162.8z"/>
								<path fill="#FFFFFF" d="M0.7,162.3l79.6,46c0.9,0.5,2.2,0.6,2.9,0.1l47.5-27.4c0.2-0.1,0.4-0.3,0.5-0.5c0.1,0.4,0,0.7-0.5,1
									l-47.5,27.4c-0.8,0.4-2.1,0.4-2.9-0.1l-79.6-46c-0.6-0.3-0.8-0.8-0.7-1.2C0.1,161.9,0.4,162.1,0.7,162.3z"/>
								<path fill="#2E294E" d="M104.4,198.8V198c0-0.1-0.1-0.1-0.1-0.1l-3.1,1.8c-0.1,0-0.1,0.1-0.1,0.2v0.9c0,0.1,0.1,0.1,0.1,0.1
									l3.1-1.8C104.3,199,104.4,198.9,104.4,198.8z"/>
								<path fill="#2E294E" d="M99.8,201.5v-0.9c0-0.1-0.1-0.1-0.1-0.1l-3.1,1.8c-0.1,0-0.1,0.1-0.1,0.2v0.9c0,0.1,0.1,0.1,0.1,0.1
									l3.1-1.8C99.7,201.7,99.8,201.6,99.8,201.5z"/>
								<path fill="#9996A8" d="M118.4,178.9l-66.2-38.2c-0.4-0.3-1-0.3-1.4,0l-23.6,13.6c-0.3,0.2-0.3,0.7,0,0.9l66.2,38.2
									c0.4,0.3,1,0.3,1.4,0l23.6-13.6C118.8,179.6,118.8,179.1,118.4,178.9z"/>
								<path fill="#75728A" d="M118.4,179.8l-0.2,0.1l-65.9-38.1c-0.4-0.3-1-0.3-1.4,0l-23.3,13.5l-0.2-0.1c-0.3-0.2-0.3-0.7,0-0.9
									l23.6-13.6c0.4-0.3,1-0.3,1.4,0l66.2,38.2C118.8,179.1,118.8,179.6,118.4,179.8z"/>
								<g>
									<polygon fill="#C8EA61" points="54.6,147.3 110.6,179.7 113,178.1 57.2,145.9 									"/>
									<polygon fill="#C8EA61" points="51,152.5 101.8,181.8 103.6,179.9 53.5,151 									"/>
									<polygon fill="#C8EA61" points="38.7,150.1 102.2,186.8 104.8,185.3 41.3,148.6 									"/>
									<polygon fill="#C8EA61" points="34.6,152.5 98.1,189.1 100.7,187.7 37.2,151 									"/>
									<polygon fill="#C8EA61" points="30.5,154.8 94,191.5 96.6,190 33.1,153.4 									"/>
									<polygon fill="#C8EA61" points="110,179.3 112.6,180.8 115.1,179.3 112.6,177.9 									"/>
									<polygon fill="#C8EA61" points="101,181.4 106.3,184.4 108.9,183 103.6,179.9 									"/>
								</g>
								
									<linearGradient id="SVGID_27_" gradientUnits="userSpaceOnUse" x1="-73.209" y1="178.745" x2="-39.5881" y2="178.745" gradientTransform="matrix(-1 0 0 1 -8.2432 0)">
									<stop  offset="0" style="stop-color:#ADACBA"/>
									<stop  offset="0.2501" style="stop-color:#B2B0BE"/>
									<stop  offset="0.5449" style="stop-color:#C0BFCA"/>
									<stop  offset="0.861" style="stop-color:#D7D6DD"/>
									<stop  offset="1" style="stop-color:#E4E3E8"/>
								</linearGradient>
								<path fill="url(#SVGID_27_)" d="M49.7,188.1l-17.8-10.3c-0.7-0.4-0.7-1.1,0-1.5l12.2-7c0.7-0.4,1.8-0.4,2.5,0l17.8,10.3
									c0.7,0.4,0.7,1.1,0,1.5l-12.2,7C51.5,188.6,50.4,188.6,49.7,188.1z"/>
								<path fill="#75728A" d="M64.4,180.2l-17.8-10.3c-0.7-0.4-1.8-0.4-2.5,0l-12.2,7c-0.2,0.1-0.4,0.3-0.4,0.4
									c-0.2-0.4,0-0.7,0.4-1l12.2-7c0.7-0.4,1.8-0.4,2.5,0l17.8,10.3c0.5,0.3,0.6,0.7,0.4,1C64.8,180.5,64.7,180.4,64.4,180.2z"/>
							</g>
						</g>
						<g opacity="0.11">
							<defs>
								<polygon id="SVGID_6_" opacity="0.11" points="62,74.7 139.6,119.5 130,176.2 52.5,131.4 								"/>
							</defs>
							<clipPath id="SVGID_28_">
								<use xlink:href="#SVGID_6_"  overflow="visible"/>
							</clipPath>
							<g clip-path="url(#SVGID_28_)">
								
									<linearGradient id="SVGID_29_" gradientUnits="userSpaceOnUse" x1="-145.6338" y1="142.1763" x2="-14.2881" y2="142.1763" gradientTransform="matrix(-1 0 0 1 -8.2432 0)">
									<stop  offset="0" style="stop-color:#ADACBA"/>
									<stop  offset="0.2501" style="stop-color:#B2B0BE"/>
									<stop  offset="0.5449" style="stop-color:#C0BFCA"/>
									<stop  offset="0.861" style="stop-color:#D7D6DD"/>
									<stop  offset="1" style="stop-color:#E4E3E8"/>
								</linearGradient>
								<path fill="url(#SVGID_29_)" d="M50.9,133.7l79.6,46c0.9,0.5,2.2,0.6,2.9,0.1l47.5-27.4c0.8-0.4,0.7-1.2-0.2-1.7l-79.6-46
									c-0.9-0.5-2.2-0.6-2.9-0.1L50.7,132C49.9,132.4,50,133.2,50.9,133.7z"/>
								
									<linearGradient id="SVGID_30_" gradientUnits="userSpaceOnUse" x1="-154.2785" y1="132.5346" x2="-120.6577" y2="132.5346" gradientTransform="matrix(-1 0 0 1 -8.2432 0)">
									<stop  offset="0" style="stop-color:#ADACBA"/>
									<stop  offset="0.2501" style="stop-color:#B2B0BE"/>
									<stop  offset="0.5449" style="stop-color:#C0BFCA"/>
									<stop  offset="0.861" style="stop-color:#D7D6DD"/>
									<stop  offset="1" style="stop-color:#E4E3E8"/>
								</linearGradient>
								<path fill="url(#SVGID_30_)" d="M130.8,141.9l-17.8-10.3c-0.7-0.4-0.7-1.1,0-1.5l12.2-7c0.7-0.4,1.8-0.4,2.5,0l17.8,10.3
									c0.7,0.4,0.7,1.1,0,1.5l-12.2,7C132.6,142.3,131.5,142.3,130.8,141.9z"/>
								<path fill="#75728A" d="M145.5,134l-17.8-10.3c-0.7-0.4-1.8-0.4-2.5,0l-12.2,7c-0.2,0.1-0.4,0.3-0.4,0.4
									c-0.2-0.4,0-0.7,0.4-1l12.2-7c0.7-0.4,1.8-0.4,2.5,0l17.8,10.3c0.5,0.3,0.6,0.7,0.4,1C145.9,134.3,145.7,134.2,145.5,134z"
									/>
								<g>
									<path fill="#9996A8" d="M153.4,158l-66.2-38.2c-0.4-0.3-1-0.3-1.4,0l-23.6,13.6c-0.3,0.2-0.3,0.7,0,0.9l66.2,38.2
										c0.4,0.3,1,0.3,1.4,0l23.6-13.6C153.7,158.7,153.7,158.2,153.4,158z"/>
									<path fill="#75728A" d="M153.4,158.9l-0.2,0.1L87.2,121c-0.4-0.3-1-0.3-1.4,0l-23.3,13.5l-0.2-0.1c-0.3-0.2-0.3-0.7,0-0.9
										l23.6-13.6c0.4-0.3,1-0.3,1.4,0l66.2,38.2C153.7,158.2,153.7,158.7,153.4,158.9z"/>
									<g>
										<polygon fill="#C8EA61" points="68.3,132.5 126,165.8 123.7,167.1 66.1,133.9 										"/>
										<polygon fill="#C8EA61" points="74.4,129 129.2,160.7 126.9,162 72.1,130.3 										"/>
										<polygon fill="#C8EA61" points="133.3,163 138.4,166 136.2,167.3 131,164.3 										"/>
										<polygon fill="#C8EA61" points="128.8,167.4 132.4,169.5 130.1,170.8 126.5,168.8 										"/>
										<polygon fill="#C8EA61" points="78.2,126.8 142.2,163.8 140,165.1 75.9,128.1 										"/>
										<polygon fill="#C8EA61" points="82,124.6 146,161.6 143.8,162.9 79.8,126 										"/>
										<polygon fill="#C8EA61" points="85.8,122.4 149.9,159.4 147.6,160.7 83.6,123.8 										"/>
									</g>
								</g>
							</g>
						</g>
					</g>
				</g>
			</g>
			<g>
				<polygon fill="#2CAEA5" points="79.4,95.7 85.7,99.3 85.9,98.2 79.6,94.6 				"/>
				<polygon fill="#2CAEA5" points="86.7,99.9 90.1,101.9 90.3,100.8 86.9,98.8 				"/>
				<polygon fill="#2CAEA5" points="95.4,105 97.9,106.4 98.1,105.3 95.6,103.9 				"/>
				<polygon fill="#2CAEA5" points="93.6,103.9 94.5,104.4 94.7,103.3 93.8,102.8 				"/>
				<polygon fill="#2CAEA5" points="91.1,102.5 92.7,103.4 92.8,102.3 91.3,101.4 				"/>
				<polygon fill="#2CAEA5" points="84.4,104 86.8,105.5 87,104.4 84.6,102.9 				"/>
				<polygon fill="#2CAEA5" points="78.6,100.7 83.4,103.5 83.6,102.4 78.7,99.6 				"/>
				<g>
					<polygon fill="#2CAEA5" points="85.5,118.3 90.4,121.1 90.5,120 85.7,117.2 					"/>
					<polygon fill="#2CAEA5" points="83,116.9 84.6,117.8 84.7,116.7 83.2,115.8 					"/>
				</g>
				<polygon fill="#2CAEA5" points="86.3,113.4 91.2,116.2 91.4,115.1 86.5,112.3 				"/>
				<polygon fill="#2CAEA5" points="83.8,111.9 85.4,112.8 85.5,111.7 84,110.8 				"/>
				<polygon fill="#2CAEA5" points="81.9,139.8 72.8,134.6 72.6,135.7 81.7,140.9 				"/>
				<polygon fill="#2CAEA5" points="85.2,141.7 82.9,140.4 82.7,141.5 85,142.8 				"/>
				<polygon fill="#2CAEA5" points="101.2,142.8 92.1,137.5 91.9,138.6 101,143.9 				"/>
				<polygon fill="#2CAEA5" points="104.4,144.6 102.2,143.3 102,144.4 104.2,145.7 				"/>
				<polygon fill="#2CAEA5" points="75.7,133.5 73.2,132.1 73,133.2 75.5,134.6 				"/>
				<polygon fill="#2CAEA5" points="90.7,136.7 88.3,135.3 88.1,136.4 90.6,137.8 				"/>
				<polygon fill="#2CAEA5" points="81.5,136.9 76.7,134.1 76.5,135.2 81.3,138 				"/>
				<polygon fill="#2CAEA5" points="84,138.3 82.5,137.4 82.3,138.5 83.8,139.4 				"/>
				<polygon fill="#2CAEA5" points="89.8,141.7 85,138.9 84.8,140 89.7,142.8 				"/>
				<polygon fill="#2CAEA5" points="92.3,143.1 90.8,142.2 90.6,143.3 92.2,144.2 				"/>
				<polygon fill="#2CAEA5" points="90.3,139.2 87.9,137.8 87.7,138.9 90.1,140.3 				"/>
				<polygon fill="#2CAEA5" points="96.1,142.6 91.3,139.8 91.1,140.9 95.9,143.7 				"/>
				<polygon fill="#2CAEA5" points="98.6,144 97.1,143.1 96.9,144.2 98.4,145.1 				"/>
				<polygon fill="#2CAEA5" points="78.7,132.5 73.6,129.6 73.5,130.7 78.5,133.6 				"/>
				<polygon fill="#2CAEA5" points="83.3,135.2 79.7,133.1 79.5,134.2 83.1,136.3 				"/>
				<polygon fill="#2CAEA5" points="86.8,137.2 84.3,135.7 84.1,136.8 86.6,138.3 				"/>
				<polygon fill="#2CAEA5" points="110.7,148.3 105.7,145.4 105.5,146.4 110.6,149.4 				"/>
				<polygon fill="#2CAEA5" points="115.4,150.9 111.7,148.8 111.5,149.9 115.2,152 				"/>
				<polygon fill="#2CAEA5" points="118.8,152.9 116.3,151.5 116.1,152.6 118.6,154 				"/>
				<polygon fill="#2CAEA5" points="108.8,115.4 113.8,118.3 114,117.2 109,114.3 				"/>
				<polygon fill="#2CAEA5" points="104.2,112.7 107.8,114.8 108,113.7 104.3,111.6 				"/>
				<polygon fill="#2CAEA5" points="100.7,110.7 103.2,112.2 103.4,111.1 100.9,109.6 				"/>
				<polygon fill="#2CAEA5" points="107.1,111.7 112.2,114.6 112.3,113.5 107.3,110.6 				"/>
				<polygon fill="#2CAEA5" points="102.5,109 106.1,111.1 106.3,110 102.7,107.9 				"/>
				<polygon fill="#2CAEA5" points="99,107 101.5,108.5 101.7,107.4 99.2,105.9 				"/>
				<polygon fill="#2CAEA5" points="86.7,116.3 88.4,117.3 88.5,116.2 86.8,115.2 				"/>
				<polygon fill="#2CAEA5" points="83.4,114.4 85.7,115.7 85.9,114.6 83.6,113.3 				"/>
				<polygon fill="#2CAEA5" points="79.2,130 74.1,127.1 73.9,128.2 79,131.1 				"/>
				<polygon fill="#2CAEA5" points="83.8,132.7 80.1,130.6 79.9,131.7 83.6,133.8 				"/>
				<polygon fill="#2CAEA5" points="87.2,134.7 84.7,133.3 84.6,134.4 87,135.8 				"/>
				<polygon fill="#2CAEA5" points="76.2,125.6 74.5,124.6 74.3,125.7 76,126.7 				"/>
				<polygon fill="#2CAEA5" points="79.4,127.5 77.2,126.2 77,127.3 79.3,128.6 				"/>
				<polygon fill="#2CAEA5" points="84,130.1 80.4,128 80.2,129.1 83.9,131.2 				"/>
				<polygon fill="#2CAEA5" points="89,109.4 90.7,110.4 90.9,109.3 89.2,108.3 				"/>
				<polygon fill="#2CAEA5" points="85.8,107.6 88,108.9 88.2,107.8 85.9,106.5 				"/>
				<polygon fill="#2CAEA5" points="81.2,104.9 84.8,107 85,105.9 81.3,103.8 				"/>
				<polygon fill="#2CAEA5" points="91.6,113.5 95.2,115.6 95.4,114.5 91.8,112.4 				"/>
				<polygon fill="#2CAEA5" points="85.6,110.2 90.5,113 90.7,112 85.8,109.1 				"/>
				<polygon fill="#2CAEA5" points="83.1,108.8 84.7,109.7 84.9,108.6 83.3,107.7 				"/>
				<polygon fill="#2CAEA5" points="80.7,107.4 82.3,108.3 82.5,107.2 80.9,106.3 				"/>
				<g>
					<polygon fill="#2CAEA5" points="81.1,121.5 85.9,124.3 86.1,123.2 81.3,120.4 					"/>
					<polygon fill="#2CAEA5" points="78.6,120 80.1,120.9 80.3,119.8 78.8,118.9 					"/>
					<polygon fill="#2CAEA5" points="81.4,124.4 83.1,125.4 83.3,124.3 81.6,123.3 					"/>
					<polygon fill="#2CAEA5" points="87.4,122.4 89.1,123.4 89.3,122.3 87.6,121.3 					"/>
					<polygon fill="#2CAEA5" points="89.9,123.8 94,126.2 94.2,125.1 90.1,122.7 					"/>
					<polygon fill="#2CAEA5" points="94.7,126.6 97.1,128 97.3,126.9 94.9,125.5 					"/>
					<polygon fill="#2CAEA5" points="78.2,122.5 80.4,123.8 80.6,122.7 78.4,121.4 					"/>
					<g>
						<polygon fill="#2CAEA5" points="78,125.1 79.7,126.1 79.9,125 78.2,124 						"/>
						<polygon fill="#2CAEA5" points="74.8,123.2 77,124.5 77.2,123.4 74.9,122.1 						"/>
					</g>
					<polygon fill="#2CAEA5" points="85,121 86.5,121.8 86.7,120.7 85.1,119.9 					"/>
					<polygon fill="#2CAEA5" points="82.6,119.6 84.1,120.5 84.3,119.4 82.7,118.5 					"/>
				</g>
				<polygon fill="#2CAEA5" points="94.4,107.1 99.6,110.1 99.8,109 94.5,106 				"/>
				<polygon fill="#2CAEA5" points="88.5,103.7 93.4,106.5 93.6,105.4 88.7,102.6 				"/>
				<polygon fill="#2CAEA5" points="86,102.2 87.5,103.1 87.7,102 86.2,101.1 				"/>
				<polygon fill="#2CAEA5" points="83.6,100.8 85.1,101.7 85.3,100.6 83.8,99.8 				"/>
				<polygon fill="#2CAEA5" points="82.3,100.1 79,98.2 79.2,97.1 82.5,99 				"/>
			</g>
		</g>
	</g>
</g>
</svg>
