<svg xmlns="http://www.w3.org/2000/svg" width="551.807" height="1371.934" viewBox="0 0 551.807 1371.934">
  <g id="Circuit_R" data-name="Circuit R" transform="translate(0 1371.934) rotate(-90)" style="isolation: isolate">
    <g id="Group_34" data-name="Group 34" transform="translate(743.117 204.204)" style="mix-blend-mode: overlay;isolation: isolate">
      <path id="Path_178" data-name="Path 178" d="M169.751,26.7H75.294L59.252,10.657a6.925,6.925,0,0,0,1.063-3.662,6.994,6.994,0,1,0-6.994,6.994,6.932,6.932,0,0,0,4.456-1.648L72.135,26.7H25.627a5.877,5.877,0,1,0,0,2.234H90.653L73.345,46.241h-61.7a5.878,5.878,0,1,0,0,2.235H74.271L93.812,28.933h75.013L181.883,41.99,165.691,58.183H142.666a6.994,6.994,0,1,0,0,2.234h23.95L183.463,43.57l50.69,50.691L211.54,116.873H178.125L144.764,83.512H85.715a5.879,5.879,0,1,0,0,2.235h58.125l31.127,31.126H127.3a7,7,0,1,0,0,2.235h85.168l23.268-23.267,22.43,22.43H316.5v-2.235H259.088ZM53.321,11.755a4.76,4.76,0,1,1,4.761-4.76A4.764,4.764,0,0,1,53.321,11.755Zm82.465,52.3a4.76,4.76,0,1,1,4.761-4.76A4.766,4.766,0,0,1,135.786,64.06Zm-15.369,58.691a4.76,4.76,0,1,1,4.76-4.761A4.766,4.766,0,0,1,120.417,122.751Z" transform="translate(312.313 120.63)" fill="#e0e3e6"/>
      <path id="Path_179" data-name="Path 179" d="M580.228,207.954,376.273,4,375.5,3.22H11.092a5.878,5.878,0,1,0,0,5.313H251.042L206.424,53.151h-25.5L147.047,19.278H124.218a6.994,6.994,0,1,0,0,2.234h21.9l31.64,31.639H90.466L69.993,32.678h-21.2a5.9,5.9,0,1,0,.106,2.234H69.067L89.541,55.385H207.349L254.2,8.533H354.8l-17.4,17.4h-74.99a5.878,5.878,0,1,0,0,2.235h75.915L357.964,8.533H373.3l27.681,27.681H314.727a7,7,0,1,0,0,2.235h88.484l62.3,62.3H411.23L358.372,47.89H272.79L254.737,65.943H218.779a5.885,5.885,0,1,0,.562,5.313h37.6L274.99,53.2h46.5L306.68,68.01a5.88,5.88,0,1,0,1.58,1.58L324.648,53.2h31.524L375.85,72.881,346.133,102.6l-9.616-9.617H282.1a5.878,5.878,0,1,0,0,2.235h53.488l8.962,8.961L324.532,124.2H267.173L231.811,88.836H160.4L142.025,70.457H112.519a5.878,5.878,0,1,0,0,2.235H141.1l16.144,16.144H77.115L41.567,53.287H27.29a5.849,5.849,0,1,0-.042,2.235H40.642L73.956,88.836H57.119a6.982,6.982,0,1,0-.071,5.313h56.544L84.7,123.039H38.443a5.878,5.878,0,1,0,0,2.234H85.627l31.124-31.124h89.53l-14,14h-48.12a5.878,5.878,0,1,0,0,2.235H193.2L209.44,94.149h20.17l30.05,30.05H183.849a6.995,6.995,0,1,0,0,5.313h106.93l-11.86,11.861H232.474a5.877,5.877,0,1,0,0,2.234h47.37l14.095-14.1h32.792l52.876-52.875,29.424,29.424h34.838L432,117.934a5.876,5.876,0,1,0,1.58,1.58l13.452-13.453h23.794l107.2,107.206h46.322v-5.313ZM117.337,25.155A4.76,4.76,0,1,1,122.1,20.4,4.765,4.765,0,0,1,117.337,25.155ZM307.846,42.093a4.76,4.76,0,1,1,4.761-4.761A4.767,4.767,0,0,1,307.846,42.093ZM50.625,96.153a4.76,4.76,0,1,1,4.761-4.761A4.767,4.767,0,0,1,50.625,96.153Zm126.761,35.462a4.76,4.76,0,1,1,4.761-4.759A4.765,4.765,0,0,1,177.386,131.615Z" transform="translate(4.467)" fill="#e0e3e6"/>
      <path id="Path_180" data-name="Path 180" d="M542.028,126.161a5.877,5.877,0,1,0-1.58,1.58l16.2,16.2h-41.73L500.082,129.1H446.61v2.235h52.547l12.6,12.6h-87.13L338.643,57.956H282.06L253.106,29H173.569l-23.14-23.14H52.693a7,7,0,1,0,0,2.235h44.04L70.464,34.37H40.677a5.88,5.88,0,1,0,0,2.235H71.389L99.9,8.1H149.5L170.409,29H146.393a5.878,5.878,0,1,0,0,2.235H252.18L278.9,57.956H80.307a5.875,5.875,0,1,0,.045,5.313h62.857L108.632,97.846H78.4L30.453,49.9H11.642a5.877,5.877,0,1,0,0,2.234H29.527L75.239,97.846H43.609a7,7,0,1,0,0,5.313h67.223l39.89-39.89H256.906L243.144,77.031a5.876,5.876,0,1,0,1.58,1.58l15.342-15.342h76.378l36.115,36.116H191.745L175.37,83.011a5.872,5.872,0,1,0-1.579,1.58l17.029,17.028H374.794l47.637,47.638H538.8l-13.83,13.83H462.007a5.865,5.865,0,1,0-.161,2.234H525.9l16.064-16.064h86.853v-5.313H559.811ZM45.814,11.755a4.76,4.76,0,1,1,4.761-4.76A4.765,4.765,0,0,1,45.814,11.755Zm-8.669,93.508a4.76,4.76,0,1,1,4.762-4.761A4.767,4.767,0,0,1,37.145,105.263Z" transform="translate(0 132.501)" fill="#e0e3e6"/>
      <path id="Path_181" data-name="Path 181" d="M11.642,39.424a5.878,5.878,0,1,0,0,2.234H25.961L55.076,12.544a6.92,6.92,0,0,0,4.209,1.445,7.012,7.012,0,1,0-5.766-3.048L25.036,39.424ZM59.285,2.234a4.761,4.761,0,1,1-4.761,4.761A4.767,4.767,0,0,1,59.285,2.234Z" transform="translate(90.277 205.227)" fill="#e0e3e6"/>
      <path id="Path_182" data-name="Path 182" d="M80.311,0a5.875,5.875,0,0,0-5.765,4.759H58.909L33.38,30.289H0v2.234H34.3l25.53-25.53H74.546A5.875,5.875,0,1,0,80.311,0Z" transform="translate(90.19 227.127)" fill="#e0e3e6"/>
      <path id="Path_183" data-name="Path 183" d="M5.878,0a5.878,5.878,0,1,0,5.764,6.995H36.954V4.76H11.642A5.873,5.873,0,0,0,5.878,0Z" transform="translate(591.862 252.007)" fill="#e0e3e6"/>
      <path id="Path_184" data-name="Path 184" d="M75.236,18.219A5.877,5.877,0,1,0,72.085,7.4L64.688,0H17.757L11.072,6.684a6.979,6.979,0,1,0,2.916,5.657,6.934,6.934,0,0,0-1.337-4.077l6.031-6.029H63.763l6.7,6.7a5.861,5.861,0,0,0,4.773,9.285ZM6.994,17.1a4.76,4.76,0,1,1,4.761-4.761A4.766,4.766,0,0,1,6.994,17.1Z" transform="translate(256.939 202.06)" fill="#e0e3e6"/>
      <path id="Path_185" data-name="Path 185" d="M108.32,40.58a6.994,6.994,0,0,0,0-13.989,6.923,6.923,0,0,0-4.184,1.424L80.881,4.76H11.642a5.878,5.878,0,1,0,0,2.235H79.956l22.618,22.618A6.983,6.983,0,0,0,108.32,40.58Zm0-11.755a4.761,4.761,0,1,1-4.762,4.76A4.765,4.765,0,0,1,108.32,28.825Z" transform="translate(407.417 185.097)" fill="#e0e3e6"/>
      <path id="Path_186" data-name="Path 186" d="M13.874,8.112h47.6L102.77,49.4h51.65a5.877,5.877,0,1,0,0-2.234H103.7L62.4,5.878H13.874a6.994,6.994,0,1,0,0,2.234ZM2.233,6.995a4.76,4.76,0,1,1,4.761,4.759A4.767,4.767,0,0,1,2.233,6.995Z" transform="translate(286.425 173.653)" fill="#e0e3e6"/>
      <path id="Path_187" data-name="Path 187" d="M6.994,0a6.994,6.994,0,0,0,0,13.989A6.924,6.924,0,0,0,11.378,12.4L33.909,34.929H133.927a5.877,5.877,0,1,0,0-2.234H34.834L12.88,10.742A6.971,6.971,0,0,0,6.994,0Zm0,11.755A4.76,4.76,0,1,1,11.756,7,4.765,4.765,0,0,1,6.994,11.755Z" transform="translate(100.162 144.055)" fill="#e0e3e6"/>
      <path id="Path_188" data-name="Path 188" d="M71.454,23.5a6.995,6.995,0,0,0,0-13.989,6.926,6.926,0,0,0-4.2,1.435L56.313,0H20.031L9.167,10.865a5.876,5.876,0,1,0,1.58,1.579L20.956,2.235H55.388L65.7,12.545A6.983,6.983,0,0,0,71.454,23.5Zm0-11.755A4.76,4.76,0,1,1,66.693,16.5,4.767,4.767,0,0,1,71.454,11.743Z" transform="translate(340.366 111.121)" fill="#e0e3e6"/>
    </g>
    <path id="Path_189" data-name="Path 189" d="M5.878,11.755A5.878,5.878,0,1,1,11.642,4.76H47.7V6.995H11.642A5.874,5.874,0,0,1,5.878,11.755Z" transform="translate(1324.23 514.112)" fill="#e0e3e6" style="mix-blend-mode: overlay;isolation: isolate"/>
    <path id="Path_190" data-name="Path 190" d="M5.878,11.755A5.878,5.878,0,1,1,11.642,4.76H47.7V6.995H11.642A5.874,5.874,0,0,1,5.878,11.755Z" transform="translate(1324.23 42.747)" fill="#e0e3e6" style="mix-blend-mode: overlay;isolation: isolate"/>
    <path id="Path_191" data-name="Path 191" d="M11.754,12.342a5.833,5.833,0,0,0-1.1-3.408l6.7-6.7H62.431l6.031,6.029a6.933,6.933,0,0,0-1.337,4.077,6.994,6.994,0,1,0,6.994-6.993,6.93,6.93,0,0,0-4.077,1.336L63.356,0H16.425l-7.4,7.4a5.868,5.868,0,1,0,2.725,4.946Zm57.6,0A4.761,4.761,0,1,1,74.119,17.1,4.765,4.765,0,0,1,69.358,12.341Z" transform="translate(769.728 512.471)" fill="#e0e3e6" style="mix-blend-mode: overlay;isolation: isolate"/>
    <path id="Path_192" data-name="Path 192" d="M13.987,33.585a6.951,6.951,0,0,0-1.249-3.972L35.356,6.995H103.67a5.878,5.878,0,1,0,0-2.235H34.431L11.176,28.015a6.923,6.923,0,0,0-4.184-1.424,6.995,6.995,0,1,0,6.995,6.994Zm-2.233,0a4.761,4.761,0,1,1-4.762-4.759A4.767,4.767,0,0,1,11.754,33.585Z" transform="translate(585.051 495.508)" fill="#e0e3e6" style="mix-blend-mode: overlay;isolation: isolate"/>
    <path id="Path_193" data-name="Path 193" d="M159.068,13.989a6.995,6.995,0,1,0-6.88-8.111H103.66L62.367,47.17H11.642a5.877,5.877,0,1,0,0,2.234h51.65L104.585,8.113h47.6A6.988,6.988,0,0,0,159.068,13.989Zm0-2.234a4.76,4.76,0,1,1,4.761-4.76A4.765,4.765,0,0,1,159.068,11.755Z" transform="translate(655.293 484.064)" fill="#e0e3e6" style="mix-blend-mode: overlay;isolation: isolate"/>
    <path id="Path_194" data-name="Path 194" d="M131.581,7a6.94,6.94,0,0,0,1.108,3.746L110.735,32.695H11.642a5.878,5.878,0,1,0,0,2.234H111.661L134.191,12.4a6.925,6.925,0,0,0,4.384,1.589A6.994,6.994,0,1,0,131.581,7Zm2.233,0a4.761,4.761,0,1,1,4.761,4.759A4.766,4.766,0,0,1,133.814,7Z" transform="translate(862.049 454.466)" fill="#e0e3e6" style="mix-blend-mode: overlay;isolation: isolate"/>
    <path id="Path_195" data-name="Path 195" d="M13.988,16.5a6.947,6.947,0,0,0-1.238-3.959L23.06,2.235H57.492L67.7,12.445a5.877,5.877,0,1,0,1.58-1.58L58.417,0H22.135L11.191,10.945a6.927,6.927,0,0,0-4.2-1.436A6.995,6.995,0,1,0,13.988,16.5Zm-2.233,0a4.761,4.761,0,1,1-4.761-4.761A4.765,4.765,0,0,1,11.755,16.5Z" transform="translate(688.966 421.532)" fill="#e0e3e6" style="mix-blend-mode: overlay;isolation: isolate"/>
    <g id="Group_35" data-name="Group 35" transform="translate(743.117 72.212)" style="mix-blend-mode: overlay;isolation: isolate">
      <path id="Path_196" data-name="Path 196" d="M169.751,26.7H75.294L59.252,10.658A6.93,6.93,0,0,0,60.315,7a6.994,6.994,0,1,0-6.994,6.994,6.927,6.927,0,0,0,4.456-1.649L72.135,26.7H25.627a5.878,5.878,0,1,0,0,2.235H90.653L73.345,46.242h-61.7a5.877,5.877,0,1,0,0,2.234H74.271L93.812,28.934h75.013l13.058,13.057L165.691,58.184H142.666a6.994,6.994,0,1,0,0,2.234h23.95l16.847-16.847,50.69,50.69L211.54,116.874H178.125L144.764,83.513H85.715a5.88,5.88,0,1,0,0,2.234h58.125l31.127,31.127H127.3a7,7,0,1,0,0,2.234h85.168l23.268-23.267,22.43,22.43H316.5v-2.234H259.088ZM53.321,11.755A4.76,4.76,0,1,1,58.082,7,4.764,4.764,0,0,1,53.321,11.755ZM135.786,64.06a4.76,4.76,0,1,1,4.761-4.759A4.765,4.765,0,0,1,135.786,64.06Zm-15.369,58.692a4.76,4.76,0,1,1,4.76-4.761A4.767,4.767,0,0,1,120.417,122.752Z" transform="translate(312.313 0)" fill="#e0e3e6"/>
      <path id="Path_197" data-name="Path 197" d="M542.028,126.161a5.88,5.88,0,1,0-1.58,1.58l16.2,16.2h-41.73l-14.839-14.838H446.61v2.234h52.547l12.6,12.6h-87.13L338.643,57.957H282.06L253.106,29H173.569l-23.14-23.14H52.693a7,7,0,1,0,0,2.234h44.04L70.464,34.371H40.677a5.88,5.88,0,1,0,0,2.234H71.389L99.9,8.1H149.5L170.409,29H146.393a5.877,5.877,0,1,0,0,2.234H252.18l26.72,26.72H80.307a5.875,5.875,0,1,0,.045,5.313h62.857L108.632,97.846H78.4L30.453,49.9H11.642a5.878,5.878,0,1,0,0,2.235H29.527l45.712,45.71H43.609a7,7,0,1,0,0,5.313h67.223l39.89-39.889H256.906L243.144,77.031a5.876,5.876,0,1,0,1.58,1.58L260.066,63.27h76.378l36.115,36.115H191.745L175.37,83.012a5.869,5.869,0,1,0-1.579,1.58L190.82,101.62H374.794l47.637,47.637H538.8l-13.83,13.83H462.007a5.865,5.865,0,1,0-.161,2.235H525.9l16.064-16.065h86.853v-5.313H559.811ZM45.814,11.755A4.76,4.76,0,1,1,50.575,7,4.765,4.765,0,0,1,45.814,11.755Zm-8.669,93.509a4.76,4.76,0,1,1,4.762-4.761A4.767,4.767,0,0,1,37.145,105.264Z" transform="translate(0 11.871)" fill="#e0e3e6"/>
      <path id="Path_198" data-name="Path 198" d="M11.642,39.424a5.878,5.878,0,1,0,0,2.235H25.961L55.076,12.545a6.926,6.926,0,0,0,4.209,1.445,7.012,7.012,0,1,0-5.766-3.048L25.036,39.424ZM59.285,2.234A4.76,4.76,0,1,1,54.524,7,4.767,4.767,0,0,1,59.285,2.234Z" transform="translate(90.277 84.597)" fill="#e0e3e6"/>
      <path id="Path_199" data-name="Path 199" d="M5.878,0a5.878,5.878,0,1,0,5.764,6.995H36.954V4.761H11.642A5.874,5.874,0,0,0,5.878,0Z" transform="translate(591.862 131.377)" fill="#e0e3e6"/>
      <path id="Path_200" data-name="Path 200" d="M75.236,18.219A5.878,5.878,0,1,0,72.085,7.4L64.688,0H17.757L11.072,6.684a6.978,6.978,0,1,0,2.916,5.657,6.934,6.934,0,0,0-1.337-4.078l6.031-6.029H63.763l6.7,6.7a5.861,5.861,0,0,0,4.773,9.285ZM6.994,17.1a4.76,4.76,0,1,1,4.761-4.761A4.767,4.767,0,0,1,6.994,17.1Z" transform="translate(256.939 81.431)" fill="#e0e3e6"/>
      <path id="Path_201" data-name="Path 201" d="M108.32,40.581a6.995,6.995,0,0,0,0-13.99,6.929,6.929,0,0,0-4.184,1.424L80.881,4.761H11.642a5.877,5.877,0,1,0,0,2.234H79.956l22.618,22.619a6.983,6.983,0,0,0,5.746,10.967Zm0-11.755a4.76,4.76,0,1,1-4.762,4.759A4.765,4.765,0,0,1,108.32,28.826Z" transform="translate(407.417 64.467)" fill="#e0e3e6"/>
      <path id="Path_202" data-name="Path 202" d="M13.874,8.113h47.6L102.77,49.405h51.65a5.878,5.878,0,1,0,0-2.235H103.7L62.4,5.878H13.874a6.994,6.994,0,1,0,0,2.235ZM2.233,7a4.76,4.76,0,1,1,4.761,4.759A4.767,4.767,0,0,1,2.233,7Z" transform="translate(286.425 53.023)" fill="#e0e3e6"/>
      <path id="Path_203" data-name="Path 203" d="M6.994,0a6.995,6.995,0,0,0,0,13.989,6.92,6.92,0,0,0,4.384-1.59l22.531,22.53H133.927a5.877,5.877,0,1,0,0-2.235H34.834L12.88,10.741A6.97,6.97,0,0,0,6.994,0Zm0,11.754a4.76,4.76,0,1,1,4.762-4.759A4.765,4.765,0,0,1,6.994,11.754Z" transform="translate(100.162 23.426)" fill="#e0e3e6"/>
    </g>
    <path id="Path_204" data-name="Path 204" d="M5.878,0a5.877,5.877,0,1,0,5.765,6.994H73.908V4.76H11.643A5.875,5.875,0,0,0,5.878,0Z" transform="translate(1298.026 494.606)" fill="#e0e3e6" style="mix-blend-mode: overlay;isolation: isolate"/>
    <path id="Path_205" data-name="Path 205" d="M75.236,18.22A5.878,5.878,0,1,0,72.085,7.4L64.689,0H17.757L11.072,6.684a6.979,6.979,0,1,0,2.916,5.658,6.934,6.934,0,0,0-1.337-4.078l6.031-6.029H63.763l6.7,6.7a5.862,5.862,0,0,0,4.773,9.286ZM6.994,17.1a4.76,4.76,0,1,1,4.761-4.761A4.767,4.767,0,0,1,6.994,17.1Z" transform="translate(292.565 495.904)" fill="#e0e3e6" style="mix-blend-mode: overlay;isolation: isolate"/>
    <path id="Path_206" data-name="Path 206" d="M108.32,40.58a6.995,6.995,0,0,0,0-13.989,6.923,6.923,0,0,0-4.184,1.424L80.881,4.76H11.642a5.878,5.878,0,1,0,0,2.235H79.956l22.618,22.618A6.983,6.983,0,0,0,108.32,40.58Zm0-11.754a4.76,4.76,0,1,1-4.762,4.759A4.764,4.764,0,0,1,108.32,28.826Z" transform="translate(431.289 490.69)" fill="#e0e3e6" style="mix-blend-mode: overlay;isolation: isolate"/>
    <path id="Path_207" data-name="Path 207" d="M13.874,8.112h47.6L102.77,49.4h51.65a5.877,5.877,0,1,0,0-2.234H103.7L62.4,5.878H13.874a6.994,6.994,0,1,0,0,2.234ZM2.233,6.995a4.76,4.76,0,1,1,4.761,4.76A4.767,4.767,0,0,1,2.233,6.995Z" transform="translate(322.051 467.497)" fill="#e0e3e6" style="mix-blend-mode: overlay;isolation: isolate"/>
    <path id="Path_208" data-name="Path 208" d="M6.993,0a6.995,6.995,0,0,0,0,13.989A6.925,6.925,0,0,0,11.377,12.4L33.908,34.929H133.926a5.877,5.877,0,1,0,0-2.234H34.833L12.879,10.742A6.971,6.971,0,0,0,6.993,0Zm0,11.755A4.76,4.76,0,1,1,11.755,7,4.765,4.765,0,0,1,6.993,11.755Z" transform="translate(135.789 437.899)" fill="#e0e3e6" style="mix-blend-mode: overlay;isolation: isolate"/>
    <path id="Path_209" data-name="Path 209" d="M6.994,0a6.994,6.994,0,0,0,0,13.989,6.924,6.924,0,0,0,4.2-1.436L22.136,23.5H58.417L69.281,12.633a5.876,5.876,0,1,0-1.58-1.58L57.492,21.263H23.061L12.75,10.952A6.983,6.983,0,0,0,6.994,0Zm0,11.754a4.76,4.76,0,1,1,4.761-4.761A4.766,4.766,0,0,1,6.994,11.754Z" transform="translate(440.298 519.522)" fill="#e0e3e6" style="mix-blend-mode: overlay;isolation: isolate"/>
    <path id="Path_210" data-name="Path 210" d="M6.994,0a6.995,6.995,0,0,0,0,13.99,6.925,6.925,0,0,0,4.2-1.436L22.136,23.5H58.417L69.281,12.634a5.876,5.876,0,1,0-1.58-1.58L57.492,21.264H23.061L12.75,10.953A6.983,6.983,0,0,0,6.994,0Zm0,11.755a4.76,4.76,0,1,1,4.761-4.761A4.766,4.766,0,0,1,6.994,11.755Z" transform="translate(511.298 473.831)" fill="#e0e3e6" style="mix-blend-mode: overlay;isolation: isolate"/>
    <path id="Path_211" data-name="Path 211" d="M4.761,0A4.76,4.76,0,1,0,9.523,4.759,4.765,4.765,0,0,0,4.761,0Z" transform="translate(68.01 522.088)" fill="#e0e3e6"/>
    <path id="Path_212" data-name="Path 212" d="M4.761,0A4.76,4.76,0,1,0,9.523,4.761,4.767,4.767,0,0,0,4.761,0Z" transform="translate(1359.921 266.725)" fill="#e0e3e6"/>
    <path id="Path_213" data-name="Path 213" d="M4.761,0A4.76,4.76,0,1,0,9.523,4.76,4.765,4.765,0,0,0,4.761,0Z" transform="translate(1289.91 348.679)" fill="#e0e3e6"/>
    <path id="Path_214" data-name="Path 214" d="M4.76,0A4.761,4.761,0,1,0,9.521,4.761,4.767,4.767,0,0,0,4.76,0Z" transform="translate(76.68 428.579)" fill="#e0e3e6"/>
    <path id="Path_215" data-name="Path 215" d="M4.761,0A4.76,4.76,0,1,0,9.522,4.761,4.767,4.767,0,0,0,4.761,0Z" transform="translate(953.457 517.872)" fill="#e0e3e6"/>
    <path id="Path_216" data-name="Path 216" d="M4.761,0a4.76,4.76,0,1,0,4.76,4.76A4.765,4.765,0,0,0,4.761,0Z" transform="translate(1304.562 147.601)" fill="#e0e3e6"/>
    <path id="Path_217" data-name="Path 217" d="M4.762,9.521A4.76,4.76,0,1,0,0,4.759,4.767,4.767,0,0,0,4.762,9.521Z" transform="translate(1065.873 538.655)" fill="#e0e3e6"/>
    <path id="Path_218" data-name="Path 218" d="M4.761,0a4.76,4.76,0,1,0,4.76,4.761A4.766,4.766,0,0,0,4.761,0Z" transform="translate(1226.09 536.859)" fill="#e0e3e6"/>
    <path id="Path_219" data-name="Path 219" d="M4.76,0A4.76,4.76,0,1,0,9.521,4.761,4.766,4.766,0,0,0,4.76,0Z" transform="translate(1143.625 484.554)" fill="#e0e3e6"/>
    <path id="Path_220" data-name="Path 220" d="M4.76,9.521A4.76,4.76,0,1,0,0,4.761,4.765,4.765,0,0,0,4.76,9.521Z" transform="translate(654.921 485.58)" fill="#e0e3e6"/>
    <path id="Path_221" data-name="Path 221" d="M4.761,9.521A4.76,4.76,0,1,0,0,4.761,4.765,4.765,0,0,0,4.761,9.521Z" transform="translate(1057.205 445.146)" fill="#e0e3e6"/>
    <path id="Path_222" data-name="Path 222" d="M4.761,0A4.76,4.76,0,1,0,9.522,4.761,4.767,4.767,0,0,0,4.761,0Z" transform="translate(1319.931 88.909)" fill="#e0e3e6"/>
    <path id="Path_223" data-name="Path 223" d="M4.76,0A4.76,4.76,0,1,0,9.521,4.761,4.766,4.766,0,0,0,4.76,0Z" transform="translate(1237.467 36.604)" fill="#e0e3e6"/>
    <path id="Path_224" data-name="Path 224" d="M4.76,0A4.76,4.76,0,1,0,9.521,4.762,4.767,4.767,0,0,0,4.76,0Z" transform="translate(1298.58 255.17)" fill="#e0e3e6"/>
    <path id="Path_225" data-name="Path 225" d="M4.761,9.521A4.76,4.76,0,1,0,0,4.761,4.765,4.765,0,0,0,4.761,9.521Z" transform="translate(737.385 433.275)" fill="#e0e3e6"/>
    <path id="Path_226" data-name="Path 226" d="M222.691,28.933l19.542,19.543h62.629a5.875,5.875,0,1,0,0-2.234h-61.7L225.851,28.933h65.025a5.878,5.878,0,1,0,0-2.234H244.369l14.357-14.358A6.98,6.98,0,1,0,263.182,0a7,7,0,0,0-6.994,6.995,6.925,6.925,0,0,0,1.063,3.662L241.209,26.7H146.753L57.415,116.036H0v2.235H58.34l22.43-22.43,23.268,23.267h85.168a6.974,6.974,0,0,0,.49,1.658h2.539a4.761,4.761,0,1,1,7.7,0H202.5a6.983,6.983,0,1,0-13.3-3.893H141.537l31.128-31.126h58.124a5.877,5.877,0,1,0,0-2.235h-59.05l-33.361,33.361H104.963L82.35,94.261,133.041,43.57l16.846,16.848h23.95a7,7,0,1,0,0-2.235H150.812L134.621,41.991l13.057-13.058Zm40.491-26.7a4.76,4.76,0,1,1-4.761,4.761A4.767,4.767,0,0,1,263.182,2.234Zm-82.465,52.3a4.76,4.76,0,1,1-4.76,4.761A4.767,4.767,0,0,1,180.717,54.539Z" transform="translate(478.964 431.041)" fill="#e0e3e6" style="mix-blend-mode: overlay;isolation: isolate"/>
    <path id="Path_227" data-name="Path 227" d="M14.788,101.619H198.762l17.03-17.028a5.88,5.88,0,1,0-1.58-1.58L197.837,99.385H17.023L53.138,63.269h76.378l15.342,15.342a5.876,5.876,0,1,0,1.58-1.58L132.676,63.269H238.86l39.89,39.89h67.223a6.993,6.993,0,1,0,0-5.313H314.344l45.711-45.711H377.94a5.877,5.877,0,1,0,0-2.234H359.13L311.184,97.846H280.95L246.373,63.269H309.23a5.88,5.88,0,1,0,.045-5.312H110.682l26.72-26.72H243.189a5.878,5.878,0,1,0,0-2.234H219.173L240.079,8.1h49.606L318.193,36.6h30.713a5.875,5.875,0,1,0,0-2.234H319.118L292.845,8.1h44.041a6.989,6.989,0,1,0,0-2.234H239.154L216.013,29H136.476L107.522,57.957H50.939L0,108.895H7.513Zm337.649-5.876a4.76,4.76,0,1,1-4.762,4.759A4.765,4.765,0,0,1,352.437,95.743ZM343.768,2.234a4.76,4.76,0,1,1-4.761,4.761A4.766,4.766,0,0,1,343.768,2.234Z" transform="translate(718.198 442.912)" fill="#e0e3e6" style="mix-blend-mode: overlay;isolation: isolate"/>
    <path id="Path_228" data-name="Path 228" d="M0,1.5H7.82A5.834,5.834,0,0,0,0,1.5Z" transform="translate(1007.724 550.303)" fill="#e0e3e6" style="mix-blend-mode: overlay;isolation: isolate"/>
    <path id="Path_229" data-name="Path 229" d="M13.988,6.995a6.994,6.994,0,1,0-6.994,6.994A6.92,6.92,0,0,0,11.2,12.544L34.828,36.169h3.16L12.76,10.941A6.948,6.948,0,0,0,13.988,6.995Zm-6.994,4.76a4.76,4.76,0,1,1,4.761-4.76A4.765,4.765,0,0,1,6.994,11.755Z" transform="translate(951.224 515.638)" fill="#e0e3e6" style="mix-blend-mode: overlay;isolation: isolate"/>
    <path id="Path_230" data-name="Path 230" d="M27.279,4.759H11.642a5.878,5.878,0,1,0,0,2.234H26.354l7.275,7.276h3.16Z" transform="translate(931.402 537.538)" fill="#e0e3e6" style="mix-blend-mode: overlay;isolation: isolate"/>
    <path id="Path_231" data-name="Path 231" d="M75.294,26.7,59.252,10.657A6.925,6.925,0,0,0,60.315,7a6.993,6.993,0,1,0-6.994,6.994,6.929,6.929,0,0,0,4.455-1.648L72.134,26.7H25.627a5.877,5.877,0,1,0,0,2.234H90.653L73.345,46.241h-61.7a5.877,5.877,0,1,0,0,2.235H74.27L93.812,28.933h75.013l13.057,13.058L165.691,58.183H142.666a6.994,6.994,0,1,0,0,2.235h23.95L183.028,44V39.976L169.751,26.7ZM53.321,11.755A4.76,4.76,0,1,1,58.082,7,4.764,4.764,0,0,1,53.321,11.755Zm82.465,52.3a4.76,4.76,0,1,1,4.761-4.76A4.765,4.765,0,0,1,135.786,64.06Z" transform="translate(1188.906 34.37)" fill="#e0e3e6" style="mix-blend-mode: overlay;isolation: isolate"/>
    <path id="Path_232" data-name="Path 232" d="M70.692,4.76H11.642a5.876,5.876,0,1,0,0,2.235H69.766l31.128,31.126H53.225a7,7,0,1,0,0,2.235h55.731V38.121h-4.9ZM46.345,44a4.76,4.76,0,1,1,4.76-4.761A4.767,4.767,0,0,1,46.345,44Z" transform="translate(1262.978 113.122)" fill="#e0e3e6" style="mix-blend-mode: overlay;isolation: isolate"/>
    <path id="Path_233" data-name="Path 233" d="M75.3,26.7,59.253,10.658A6.929,6.929,0,0,0,60.315,7a6.993,6.993,0,1,0-6.994,6.994,6.925,6.925,0,0,0,4.456-1.649L72.135,26.7H25.627a5.878,5.878,0,1,0,0,2.235H90.653L73.346,46.242h-61.7a5.877,5.877,0,1,0,0,2.234H74.271L93.813,28.934h75.013l13.057,13.057L165.691,58.184H142.667a6.994,6.994,0,1,0,0,2.234h23.95l16.846-16.847L209.38,69.488h3.16L169.751,26.7ZM53.321,11.755A4.76,4.76,0,1,1,58.082,7,4.765,4.765,0,0,1,53.321,11.755Zm82.466,52.3a4.76,4.76,0,1,1,4.76-4.759A4.764,4.764,0,0,1,135.787,64.06Z" transform="translate(1095.063 482.319)" fill="#e0e3e6" style="mix-blend-mode: overlay;isolation: isolate"/>
    <path id="Path_234" data-name="Path 234" d="M5.878,0a5.877,5.877,0,1,0,5.764,6.994H24.131V4.759H11.642A5.874,5.874,0,0,0,5.878,0Z" transform="translate(1347.803 360.327)" fill="#e0e3e6" style="mix-blend-mode: overlay;isolation: isolate"/>
    <path id="Path_235" data-name="Path 235" d="M5.878,0a5.878,5.878,0,1,0,5.764,6.994H24.131V4.76H11.642A5.875,5.875,0,0,0,5.878,0Z" transform="translate(1347.803 28.492)" fill="#e0e3e6" style="mix-blend-mode: overlay;isolation: isolate"/>
    <rect id="Rectangle_18" data-name="Rectangle 18" width="24.218" height="2.235" transform="translate(1347.715 377.851)" fill="#e0e3e6" style="mix-blend-mode: overlay;isolation: isolate"/>
    <path id="Path_236" data-name="Path 236" d="M5.878,17.432a5.878,5.878,0,1,0,5.765,7H116.034l-9.944,9.944H76.3a5.877,5.877,0,1,0,0,2.234h30.712L135.523,8.1h14.511V5.863H88.319a7,7,0,1,0,0,2.234h44.04L118.268,22.192H11.643A5.876,5.876,0,0,0,5.878,17.432ZM81.44,11.755A4.76,4.76,0,1,1,86.2,7,4.765,4.765,0,0,1,81.44,11.755Z" transform="translate(1221.9 252.936)" fill="#e0e3e6" style="mix-blend-mode: overlay;isolation: isolate"/>
    <path id="Path_237" data-name="Path 237" d="M5.878,17.431a5.878,5.878,0,1,0,5.765,6.995H116.034L106.09,34.37H76.3a5.878,5.878,0,1,0,0,2.235h30.712L135.523,8.1h14.511V5.862H88.319a7,7,0,1,0,0,2.235h44.04L118.268,22.192H11.643A5.876,5.876,0,0,0,5.878,17.431ZM81.44,11.755A4.76,4.76,0,1,1,86.2,6.995,4.766,4.766,0,0,1,81.44,11.755Z" transform="translate(1221.9 0)" fill="#e0e3e6" style="mix-blend-mode: overlay;isolation: isolate"/>
    <path id="Path_238" data-name="Path 238" d="M5.877,0a5.878,5.878,0,1,0,5.238,8.492H45.171V3.179H11.07A5.855,5.855,0,0,0,5.877,0Z" transform="translate(1326.763 307.714)" fill="#e0e3e6" style="mix-blend-mode: overlay;isolation: isolate"/>
    <path id="Path_239" data-name="Path 239" d="M37.145,48.368a6.995,6.995,0,1,0,6.464,9.65h67.223l3.576-3.576V46.93L108.632,52.7H78.4L30.453,4.76H11.642a5.878,5.878,0,1,0,0,2.235H29.527L75.239,52.7H43.609A7,7,0,0,0,37.145,48.368Zm0,11.755a4.76,4.76,0,1,1,4.762-4.761A4.767,4.767,0,0,1,37.145,60.123Z" transform="translate(1257.526 298.077)" fill="#e0e3e6" style="mix-blend-mode: overlay;isolation: isolate"/>
    <path id="Path_240" data-name="Path 240" d="M6.994,0a6.995,6.995,0,0,0,0,13.99,6.925,6.925,0,0,0,4.384-1.59l2.868,2.868v-3.16L12.88,10.742A6.971,6.971,0,0,0,6.994,0Zm0,11.755A4.76,4.76,0,1,1,11.756,7,4.765,4.765,0,0,1,6.994,11.755Z" transform="translate(1357.688 264.49)" fill="#e0e3e6" style="mix-blend-mode: overlay;isolation: isolate"/>
    <path id="Path_241" data-name="Path 241" d="M11.755,5.878A5.878,5.878,0,1,0,.608,8.469H11.15A5.847,5.847,0,0,0,11.755,5.878Z" transform="translate(566.906 543.338)" fill="#e0e3e6" style="mix-blend-mode: overlay;isolation: isolate"/>
    <path id="Path_242" data-name="Path 242" d="M374.269,57.957H317.686L288.732,29H209.2l-23.14-23.14H88.319a7,7,0,1,0,0,2.235h44.04L118.268,22.192H11.643a5.877,5.877,0,1,0,0,2.234H116.034L106.09,34.37H76.3a5.878,5.878,0,1,0,0,2.235h30.712L135.523,8.1h49.606L206.035,29H182.019a5.877,5.877,0,1,0,0,2.235H287.806l26.72,26.72H115.933a5.875,5.875,0,1,0,.045,5.312h62.857L144.258,97.846H114.025L66.079,49.9H47.268a5.877,5.877,0,1,0,0,2.234H65.153l45.712,45.711H79.235a7,7,0,1,0,0,5.313h67.223l39.89-39.89H292.532L278.77,77.031a5.877,5.877,0,1,0,1.58,1.58l15.342-15.342H372.07l36.115,36.116H227.371L211,83.011a5.872,5.872,0,1,0-1.579,1.58l17.029,17.028H410.42l23.842,23.843h7.513ZM81.44,11.755A4.761,4.761,0,1,1,86.2,6.995,4.765,4.765,0,0,1,81.44,11.755Zm-8.669,93.508a4.76,4.76,0,1,1,4.762-4.761A4.766,4.766,0,0,1,72.771,105.263Z" transform="translate(0 426.345)" fill="#e0e3e6" style="mix-blend-mode: overlay;isolation: isolate"/>
  </g>
</svg>
