<svg xmlns="http://www.w3.org/2000/svg" width="551.807" height="1371.934" viewBox="0 0 551.807 1371.934">
  <g id="Circuit_L" data-name="Circuit L" transform="translate(0 1371.934) rotate(-90)" style="isolation: isolate">
    <g id="Group_34" data-name="Group 34" transform="translate(743.117 45.447)" style="mix-blend-mode: overlay;isolation: isolate">
      <path id="Path_178" data-name="Path 178" d="M169.751,98.287H75.294L59.252,114.329a6.925,6.925,0,0,1,1.063,3.662A6.994,6.994,0,1,1,53.321,111a6.932,6.932,0,0,1,4.456,1.648L72.135,98.287H25.627a5.877,5.877,0,1,1,0-2.234H90.653L73.345,78.745h-61.7a5.878,5.878,0,1,1,0-2.235H74.271L93.812,96.053h75.013L181.883,83,165.691,66.8H142.666a6.994,6.994,0,1,1,0-2.234h23.95l16.847,16.847,50.69-50.691L211.54,8.113H178.125L144.764,41.474H85.715a5.879,5.879,0,1,1,0-2.235h58.125L174.966,8.113H127.3a7,7,0,1,1,0-2.235h85.168l23.268,23.267,22.43-22.43H316.5V8.95H259.088ZM53.321,113.231a4.76,4.76,0,1,0,4.761,4.76A4.764,4.764,0,0,0,53.321,113.231Zm82.465-52.3a4.76,4.76,0,1,0,4.761,4.76A4.766,4.766,0,0,0,135.786,60.926ZM120.417,2.235A4.76,4.76,0,1,0,125.177,7,4.766,4.766,0,0,0,120.417,2.235Z" transform="translate(312.313 56.54)" fill="#e0e3e6"/>
      <path id="Path_179" data-name="Path 179" d="M580.228,5.313,376.273,209.268l-.777.779H11.092a5.878,5.878,0,1,1,0-5.313H251.042l-44.618-44.618h-25.5l-33.873,33.873H124.218a6.994,6.994,0,1,1,0-2.234h21.9l31.64-31.639H90.466L69.993,180.589h-21.2a5.9,5.9,0,1,1,.106-2.234H69.067l20.474-20.473H207.349L254.2,204.734H354.8l-17.4-17.4h-74.99a5.878,5.878,0,1,1,0-2.235h75.915l19.633,19.633H373.3l27.681-27.681H314.727a7,7,0,1,1,0-2.235h88.484l62.3-62.3H411.23l-52.858,52.858H272.79l-18.053-18.053H218.779a5.885,5.885,0,1,1,.562-5.313h37.6l18.053,18.053h46.5L306.68,145.257a5.88,5.88,0,1,1,1.58-1.58l16.388,16.387h31.524l19.678-19.678-29.717-29.717-9.616,9.617H282.1a5.878,5.878,0,1,1,0-2.235h53.488l8.962-8.961L324.532,89.068H267.173l-35.362,35.363H160.4L142.025,142.81H112.519a5.878,5.878,0,1,1,0-2.235H141.1l16.144-16.144H77.115L41.567,159.98H27.29a5.849,5.849,0,1,1-.042-2.235H40.642l33.314-33.314H57.119a6.982,6.982,0,1,1-.071-5.313h56.544L84.7,90.228H38.443a5.878,5.878,0,1,1,0-2.234H85.627l31.124,31.124h89.53l-14-14h-48.12a5.878,5.878,0,1,1,0-2.235H193.2l16.236,16.236h20.17l30.05-30.05H183.849a6.995,6.995,0,1,1,0-5.313h106.93l-11.86-11.861H232.474a5.877,5.877,0,1,1,0-2.234h47.37l14.095,14.1h32.792l52.876,52.875,29.424-29.424h34.838L432,95.333a5.876,5.876,0,1,1,1.58-1.58l13.452,13.453h23.794L578.027,0h46.322V5.313Zm-462.891,182.8a4.76,4.76,0,1,0,4.761,4.76A4.765,4.765,0,0,0,117.337,188.112Zm190.509-16.938a4.76,4.76,0,1,0,4.761,4.761A4.767,4.767,0,0,0,307.846,171.174ZM50.625,117.114a4.76,4.76,0,1,0,4.761,4.761A4.767,4.767,0,0,0,50.625,117.114ZM177.386,81.652a4.76,4.76,0,1,0,4.761,4.759A4.765,4.765,0,0,0,177.386,81.652Z" transform="translate(4.467 88.889)" fill="#e0e3e6"/>
      <path id="Path_180" data-name="Path 180" d="M542.028,43.494a5.877,5.877,0,1,1-1.58-1.58l16.2-16.2h-41.73L500.082,40.55H446.61V38.315h52.547l12.6-12.6h-87.13L338.643,111.7H282.06l-28.954,28.954H173.569l-23.14,23.14H52.693a7,7,0,1,1,0-2.235h44.04L70.464,135.285H40.677a5.88,5.88,0,1,1,0-2.235H71.389L99.9,161.558H149.5l20.906-20.9H146.393a5.878,5.878,0,1,1,0-2.235H252.18L278.9,111.7H80.307a5.875,5.875,0,1,1,.045-5.313h62.857L108.632,71.809H78.4L30.453,119.754H11.642a5.877,5.877,0,1,1,0-2.234H29.527L75.239,71.809H43.609a7,7,0,1,1,0-5.313h67.223l39.89,39.89H256.906L243.144,92.624a5.876,5.876,0,1,1,1.58-1.58l15.342,15.342h76.378L372.559,70.27H191.745L175.37,86.644a5.872,5.872,0,1,1-1.579-1.58L190.82,68.036H374.794L422.431,20.4H538.8l-13.83-13.83H462.007a5.865,5.865,0,1,1-.161-2.234H525.9L541.963,20.4h86.853v5.313H559.811ZM45.814,157.9a4.76,4.76,0,1,0,4.761,4.76A4.765,4.765,0,0,0,45.814,157.9ZM37.145,64.392a4.76,4.76,0,1,0,4.762,4.761A4.767,4.767,0,0,0,37.145,64.392Z" fill="#e0e3e6"/>
      <path id="Path_181" data-name="Path 181" d="M11.642,7a5.878,5.878,0,1,1,0-2.234H25.961L55.076,33.875a6.92,6.92,0,0,1,4.209-1.445,7.012,7.012,0,1,1-5.766,3.048L25.036,7Zm47.643,37.19a4.761,4.761,0,1,0-4.761-4.761A4.767,4.767,0,0,0,59.285,44.185Z" transform="translate(90.277 50.51)" fill="#e0e3e6"/>
      <path id="Path_182" data-name="Path 182" d="M80.311,32.523a5.875,5.875,0,0,1-5.765-4.759H58.909L33.38,2.234H0V0H34.3l25.53,25.53H74.546a5.875,5.875,0,1,1,5.765,6.993Z" transform="translate(90.19 42.506)" fill="#e0e3e6"/>
      <path id="Path_183" data-name="Path 183" d="M5.878,11.755A5.878,5.878,0,1,1,11.642,4.76H36.954V6.995H11.642A5.873,5.873,0,0,1,5.878,11.755Z" transform="translate(591.862 38.394)" fill="#e0e3e6"/>
      <path id="Path_184" data-name="Path 184" d="M75.236,1.118a5.877,5.877,0,1,1-3.151,10.824l-7.4,7.4H17.757l-6.685-6.684A6.979,6.979,0,1,1,13.988,7a6.934,6.934,0,0,1-1.337,4.077L18.682,17.1H63.763l6.7-6.7a5.861,5.861,0,0,1,4.773-9.285ZM6.994,2.235A4.76,4.76,0,1,0,11.755,7,4.766,4.766,0,0,0,6.994,2.235Z" transform="translate(256.939 80.759)" fill="#e0e3e6"/>
      <path id="Path_185" data-name="Path 185" d="M108.32,0a6.994,6.994,0,0,1,0,13.989,6.923,6.923,0,0,1-4.184-1.424L80.881,35.82H11.642a5.878,5.878,0,1,1,0-2.235H79.956l22.618-22.618A6.983,6.983,0,0,1,108.32,0Zm0,11.755a4.761,4.761,0,1,0-4.762-4.76A4.765,4.765,0,0,0,108.32,11.755Z" transform="translate(407.417 76.479)" fill="#e0e3e6"/>
      <path id="Path_186" data-name="Path 186" d="M13.874,46.052h47.6L102.77,4.76h51.65a5.877,5.877,0,1,1,0,2.234H103.7L62.4,48.286H13.874a6.994,6.994,0,1,1,0-2.234ZM2.233,47.169A4.76,4.76,0,1,0,6.994,42.41,4.767,4.767,0,0,0,2.233,47.169Z" transform="translate(286.425 74.339)" fill="#e0e3e6"/>
      <path id="Path_187" data-name="Path 187" d="M6.994,39.69a6.994,6.994,0,0,1,0-13.989,6.924,6.924,0,0,1,4.384,1.589L33.909,4.761H133.927a5.877,5.877,0,1,1,0,2.234H34.834L12.88,28.948A6.971,6.971,0,0,1,6.994,39.69Zm0-11.755a4.76,4.76,0,1,0,4.762,4.759A4.765,4.765,0,0,0,6.994,27.935Z" transform="translate(100.162 118.411)" fill="#e0e3e6"/>
      <path id="Path_188" data-name="Path 188" d="M71.454,0a6.995,6.995,0,0,1,0,13.989,6.926,6.926,0,0,1-4.2-1.435L56.313,23.5H20.031L9.167,12.633a5.876,5.876,0,1,1,1.58-1.579L20.956,21.263H55.388L65.7,10.953A6.983,6.983,0,0,1,71.454,0Zm0,11.755a4.76,4.76,0,1,0-4.761-4.761A4.767,4.767,0,0,0,71.454,11.755Z" transform="translate(340.366 167.537)" fill="#e0e3e6"/>
    </g>
    <path id="Path_189" data-name="Path 189" d="M5.878,0a5.878,5.878,0,1,0,5.764,6.995H47.7V4.76H11.642A5.874,5.874,0,0,0,5.878,0Z" transform="translate(1324.23 25.94)" fill="#e0e3e6" style="mix-blend-mode: overlay;isolation: isolate"/>
    <path id="Path_190" data-name="Path 190" d="M5.878,0a5.878,5.878,0,1,0,5.764,6.995H47.7V4.76H11.642A5.874,5.874,0,0,0,5.878,0Z" transform="translate(1324.23 497.305)" fill="#e0e3e6" style="mix-blend-mode: overlay;isolation: isolate"/>
    <path id="Path_191" data-name="Path 191" d="M11.754,6.995a5.833,5.833,0,0,1-1.1,3.408l6.7,6.7H62.431l6.031-6.029A6.933,6.933,0,0,1,67.125,7a6.994,6.994,0,1,1,6.994,6.993,6.93,6.93,0,0,1-4.077-1.336l-6.686,6.684H16.425l-7.4-7.4a5.868,5.868,0,1,1,2.725-4.946Zm57.6,0a4.761,4.761,0,1,0,4.761-4.762A4.765,4.765,0,0,0,69.358,7Z" transform="translate(769.728 19.999)" fill="#e0e3e6" style="mix-blend-mode: overlay;isolation: isolate"/>
    <path id="Path_192" data-name="Path 192" d="M13.987,7a6.951,6.951,0,0,1-1.249,3.972L35.356,33.586H103.67a5.878,5.878,0,1,1,0,2.235H34.431L11.176,12.566A6.923,6.923,0,0,1,6.992,13.99,6.995,6.995,0,1,1,13.987,7ZM11.754,7a4.761,4.761,0,1,0-4.762,4.759A4.767,4.767,0,0,0,11.754,7Z" transform="translate(585.051 15.718)" fill="#e0e3e6" style="mix-blend-mode: overlay;isolation: isolate"/>
    <path id="Path_193" data-name="Path 193" d="M159.068,40.175a6.995,6.995,0,1,1-6.88,8.111H103.66L62.367,6.994H11.642a5.877,5.877,0,1,1,0-2.234h51.65l41.293,41.291h47.6A6.988,6.988,0,0,1,159.068,40.175Zm0,2.234a4.76,4.76,0,1,0,4.761,4.76A4.765,4.765,0,0,0,159.068,42.409Z" transform="translate(655.293 13.579)" fill="#e0e3e6" style="mix-blend-mode: overlay;isolation: isolate"/>
    <path id="Path_194" data-name="Path 194" d="M131.581,32.694a6.94,6.94,0,0,1,1.108-3.746L110.735,6.995H11.642a5.878,5.878,0,1,1,0-2.234H111.661l22.53,22.529a6.925,6.925,0,0,1,4.384-1.589,6.994,6.994,0,1,1-6.994,6.993Zm2.233,0a4.761,4.761,0,1,0,4.761-4.759A4.766,4.766,0,0,0,133.814,32.694Z" transform="translate(862.049 57.651)" fill="#e0e3e6" style="mix-blend-mode: overlay;isolation: isolate"/>
    <path id="Path_195" data-name="Path 195" d="M13.988,6.994a6.947,6.947,0,0,1-1.238,3.959l10.31,10.31H57.492L67.7,11.053a5.877,5.877,0,1,1,1.58,1.58L58.417,23.5H22.135L11.191,12.553a6.927,6.927,0,0,1-4.2,1.436,6.995,6.995,0,1,1,6.994-6.995Zm-2.233,0a4.761,4.761,0,1,0-4.761,4.761A4.765,4.765,0,0,0,11.755,6.994Z" transform="translate(688.966 106.777)" fill="#e0e3e6" style="mix-blend-mode: overlay;isolation: isolate"/>
    <g id="Group_35" data-name="Group 35" transform="translate(743.117 298.068)" style="mix-blend-mode: overlay;isolation: isolate">
      <path id="Path_196" data-name="Path 196" d="M169.751,98.287H75.294L59.252,114.328a6.93,6.93,0,0,1,1.063,3.662A6.994,6.994,0,1,1,53.321,111a6.927,6.927,0,0,1,4.456,1.649L72.135,98.287H25.627a5.878,5.878,0,1,1,0-2.235H90.653L73.345,78.744h-61.7a5.877,5.877,0,1,1,0-2.234H74.271L93.812,96.052h75.013l13.058-13.057L165.691,66.8H142.666a6.994,6.994,0,1,1,0-2.234h23.95l16.847,16.847,50.69-50.69L211.54,8.112H178.125L144.764,41.473H85.715a5.88,5.88,0,1,1,0-2.234h58.125L174.966,8.112H127.3a7,7,0,1,1,0-2.234h85.168l23.268,23.267,22.43-22.43H316.5V8.949H259.088ZM53.321,113.231a4.76,4.76,0,1,0,4.761,4.759A4.764,4.764,0,0,0,53.321,113.231Zm82.465-52.305a4.76,4.76,0,1,0,4.761,4.759A4.765,4.765,0,0,0,135.786,60.926ZM120.417,2.234a4.76,4.76,0,1,0,4.76,4.761A4.767,4.767,0,0,0,120.417,2.234Z" transform="translate(312.313 56.541)" fill="#e0e3e6"/>
      <path id="Path_197" data-name="Path 197" d="M542.028,43.495a5.88,5.88,0,1,1-1.58-1.58l16.2-16.2h-41.73L500.082,40.55H446.61V38.316h52.547l12.6-12.6h-87.13L338.643,111.7H282.06l-28.954,28.954H173.569l-23.14,23.14H52.693a7,7,0,1,1,0-2.234h44.04L70.464,135.285H40.677a5.88,5.88,0,1,1,0-2.234H71.389L99.9,161.559H149.5l20.906-20.906H146.393a5.877,5.877,0,1,1,0-2.234H252.18L278.9,111.7H80.307a5.875,5.875,0,1,1,.045-5.313h62.857L108.632,71.81H78.4L30.453,119.755H11.642a5.878,5.878,0,1,1,0-2.235H29.527L75.239,71.81H43.609a7,7,0,1,1,0-5.313h67.223l39.89,39.889H256.906L243.144,92.625a5.876,5.876,0,1,1,1.58-1.58l15.342,15.341h76.378l36.115-36.115H191.745L175.37,86.644a5.869,5.869,0,1,1-1.579-1.58L190.82,68.036H374.794L422.431,20.4H538.8l-13.83-13.83H462.007a5.865,5.865,0,1,1-.161-2.235H525.9L541.963,20.4h86.853v5.313H559.811ZM45.814,157.9a4.76,4.76,0,1,0,4.761,4.759A4.765,4.765,0,0,0,45.814,157.9ZM37.145,64.392a4.76,4.76,0,1,0,4.762,4.761A4.767,4.767,0,0,0,37.145,64.392Z" transform="translate(0 0)" fill="#e0e3e6"/>
      <path id="Path_198" data-name="Path 198" d="M11.642,7a5.878,5.878,0,1,1,0-2.235H25.961L55.076,33.875a6.926,6.926,0,0,1,4.209-1.445,7.012,7.012,0,1,1-5.766,3.048L25.036,7Zm47.643,37.19a4.76,4.76,0,1,0-4.761-4.762A4.767,4.767,0,0,0,59.285,44.186Z" transform="translate(90.277 50.51)" fill="#e0e3e6"/>
      <path id="Path_199" data-name="Path 199" d="M5.878,11.755A5.878,5.878,0,1,1,11.642,4.76H36.954V6.994H11.642A5.874,5.874,0,0,1,5.878,11.755Z" transform="translate(591.862 38.395)" fill="#e0e3e6"/>
      <path id="Path_200" data-name="Path 200" d="M75.236,1.117a5.878,5.878,0,1,1-3.151,10.824l-7.4,7.4H17.757l-6.685-6.684a6.978,6.978,0,1,1,2.916-5.657,6.934,6.934,0,0,1-1.337,4.078L18.682,17.1H63.763l6.7-6.7a5.861,5.861,0,0,1,4.773-9.285ZM6.994,2.234a4.76,4.76,0,1,0,4.761,4.761A4.767,4.767,0,0,0,6.994,2.234Z" transform="translate(256.939 80.76)" fill="#e0e3e6"/>
      <path id="Path_201" data-name="Path 201" d="M108.32,0a6.995,6.995,0,0,1,0,13.99,6.929,6.929,0,0,1-4.184-1.424L80.881,35.82H11.642a5.877,5.877,0,1,1,0-2.234H79.956l22.618-22.619A6.983,6.983,0,0,1,108.32,0Zm0,11.755A4.76,4.76,0,1,0,103.558,7,4.765,4.765,0,0,0,108.32,11.755Z" transform="translate(407.417 76.479)" fill="#e0e3e6"/>
      <path id="Path_202" data-name="Path 202" d="M13.874,46.052h47.6L102.77,4.76h51.65a5.878,5.878,0,1,1,0,2.235H103.7L62.4,48.287H13.874a6.994,6.994,0,1,1,0-2.235ZM2.233,47.169A4.76,4.76,0,1,0,6.994,42.41,4.767,4.767,0,0,0,2.233,47.169Z" transform="translate(286.425 74.339)" fill="#e0e3e6"/>
      <path id="Path_203" data-name="Path 203" d="M6.994,39.689a6.995,6.995,0,0,1,0-13.989,6.92,6.92,0,0,1,4.384,1.59L33.909,4.76H133.927a5.877,5.877,0,1,1,0,2.235H34.834L12.88,28.948A6.97,6.97,0,0,1,6.994,39.689Zm0-11.754a4.76,4.76,0,1,0,4.762,4.759A4.765,4.765,0,0,0,6.994,27.935Z" transform="translate(100.162 118.412)" fill="#e0e3e6"/>
    </g>
    <path id="Path_204" data-name="Path 204" d="M5.878,11.754A5.877,5.877,0,1,1,11.643,4.76H73.908V6.994H11.643A5.875,5.875,0,0,1,5.878,11.754Z" transform="translate(1298.026 45.447)" fill="#e0e3e6" style="mix-blend-mode: overlay;isolation: isolate"/>
    <path id="Path_205" data-name="Path 205" d="M75.236,1.117a5.878,5.878,0,1,1-3.151,10.824l-7.4,7.4H17.757l-6.685-6.684a6.979,6.979,0,1,1,2.916-5.658,6.934,6.934,0,0,1-1.337,4.078L18.682,17.1H63.763l6.7-6.7a5.862,5.862,0,0,1,4.773-9.286ZM6.994,2.234a4.76,4.76,0,1,0,4.761,4.761A4.767,4.767,0,0,0,6.994,2.234Z" transform="translate(292.565 36.566)" fill="#e0e3e6" style="mix-blend-mode: overlay;isolation: isolate"/>
    <path id="Path_206" data-name="Path 206" d="M108.32,0a6.995,6.995,0,0,1,0,13.989,6.923,6.923,0,0,1-4.184-1.424L80.881,35.82H11.642a5.878,5.878,0,1,1,0-2.235H79.956l22.618-22.618A6.983,6.983,0,0,1,108.32,0Zm0,11.754a4.76,4.76,0,1,0-4.762-4.759A4.764,4.764,0,0,0,108.32,11.754Z" transform="translate(431.289 20.537)" fill="#e0e3e6" style="mix-blend-mode: overlay;isolation: isolate"/>
    <path id="Path_207" data-name="Path 207" d="M13.874,46.052h47.6L102.77,4.76h51.65a5.877,5.877,0,1,1,0,2.234H103.7L62.4,48.286H13.874a6.994,6.994,0,1,1,0-2.234ZM2.233,47.169a4.76,4.76,0,1,0,4.761-4.76A4.767,4.767,0,0,0,2.233,47.169Z" transform="translate(322.051 30.146)" fill="#e0e3e6" style="mix-blend-mode: overlay;isolation: isolate"/>
    <path id="Path_208" data-name="Path 208" d="M6.993,39.69a6.995,6.995,0,0,1,0-13.989,6.925,6.925,0,0,1,4.384,1.589L33.908,4.761H133.926a5.877,5.877,0,1,1,0,2.234H34.833L12.879,28.948A6.971,6.971,0,0,1,6.993,39.69Zm0-11.755a4.76,4.76,0,1,0,4.762,4.759A4.765,4.765,0,0,0,6.993,27.935Z" transform="translate(135.789 74.218)" fill="#e0e3e6" style="mix-blend-mode: overlay;isolation: isolate"/>
    <path id="Path_209" data-name="Path 209" d="M6.994,23.5a6.994,6.994,0,0,1,0-13.989,6.924,6.924,0,0,1,4.2,1.436L22.136,0H58.417L69.281,10.864a5.876,5.876,0,1,1-1.58,1.58L57.492,2.234H23.061L12.75,12.545A6.983,6.983,0,0,1,6.994,23.5Zm0-11.754A4.76,4.76,0,1,0,11.755,16.5,4.766,4.766,0,0,0,6.994,11.743Z" transform="translate(440.298 8.788)" fill="#e0e3e6" style="mix-blend-mode: overlay;isolation: isolate"/>
    <path id="Path_210" data-name="Path 210" d="M6.994,23.5a6.995,6.995,0,0,1,0-13.99,6.925,6.925,0,0,1,4.2,1.436L22.136,0H58.417L69.281,10.864a5.876,5.876,0,1,1-1.58,1.58L57.492,2.234H23.061L12.75,12.545A6.983,6.983,0,0,1,6.994,23.5Zm0-11.755A4.76,4.76,0,1,0,11.755,16.5,4.766,4.766,0,0,0,6.994,11.743Z" transform="translate(511.298 54.478)" fill="#e0e3e6" style="mix-blend-mode: overlay;isolation: isolate"/>
    <path id="Path_211" data-name="Path 211" d="M4.761,9.52A4.76,4.76,0,1,1,9.523,4.761,4.765,4.765,0,0,1,4.761,9.52Z" transform="translate(68.01 20.199)" fill="#e0e3e6"/>
    <path id="Path_212" data-name="Path 212" d="M4.761,9.52A4.76,4.76,0,1,1,9.523,4.759,4.767,4.767,0,0,1,4.761,9.52Z" transform="translate(1359.921 275.562)" fill="#e0e3e6"/>
    <path id="Path_213" data-name="Path 213" d="M4.761,9.521a4.76,4.76,0,1,1,4.762-4.76A4.765,4.765,0,0,1,4.761,9.521Z" transform="translate(1289.91 193.607)" fill="#e0e3e6"/>
    <path id="Path_214" data-name="Path 214" d="M4.76,9.521A4.761,4.761,0,1,1,9.521,4.76,4.767,4.767,0,0,1,4.76,9.521Z" transform="translate(76.68 113.707)" fill="#e0e3e6"/>
    <path id="Path_215" data-name="Path 215" d="M4.761,9.521A4.76,4.76,0,1,1,9.522,4.76,4.767,4.767,0,0,1,4.761,9.521Z" transform="translate(953.457 24.414)" fill="#e0e3e6"/>
    <path id="Path_216" data-name="Path 216" d="M4.761,9.521a4.76,4.76,0,1,1,4.76-4.76A4.765,4.765,0,0,1,4.761,9.521Z" transform="translate(1304.562 394.685)" fill="#e0e3e6"/>
    <path id="Path_217" data-name="Path 217" d="M4.762,0A4.76,4.76,0,1,1,0,4.762,4.767,4.767,0,0,1,4.762,0Z" transform="translate(1065.873 3.631)" fill="#e0e3e6"/>
    <path id="Path_218" data-name="Path 218" d="M4.761,9.52a4.76,4.76,0,1,1,4.76-4.761A4.766,4.766,0,0,1,4.761,9.52Z" transform="translate(1226.09 5.428)" fill="#e0e3e6"/>
    <path id="Path_219" data-name="Path 219" d="M4.76,9.52A4.76,4.76,0,1,1,9.521,4.759,4.766,4.766,0,0,1,4.76,9.52Z" transform="translate(1143.625 57.733)" fill="#e0e3e6"/>
    <path id="Path_220" data-name="Path 220" d="M4.76,0A4.76,4.76,0,1,1,0,4.76,4.765,4.765,0,0,1,4.76,0Z" transform="translate(654.921 56.706)" fill="#e0e3e6"/>
    <path id="Path_221" data-name="Path 221" d="M4.761,0A4.76,4.76,0,1,1,0,4.76,4.765,4.765,0,0,1,4.761,0Z" transform="translate(1057.205 97.14)" fill="#e0e3e6"/>
    <path id="Path_222" data-name="Path 222" d="M4.761,9.521A4.76,4.76,0,1,1,9.522,4.76,4.767,4.767,0,0,1,4.761,9.521Z" transform="translate(1319.931 453.377)" fill="#e0e3e6"/>
    <path id="Path_223" data-name="Path 223" d="M4.76,9.521A4.76,4.76,0,1,1,9.521,4.76,4.766,4.766,0,0,1,4.76,9.521Z" transform="translate(1237.467 505.682)" fill="#e0e3e6"/>
    <path id="Path_224" data-name="Path 224" d="M4.76,9.521A4.76,4.76,0,1,1,9.521,4.759,4.767,4.767,0,0,1,4.76,9.521Z" transform="translate(1298.58 287.116)" fill="#e0e3e6"/>
    <path id="Path_225" data-name="Path 225" d="M4.761,0A4.76,4.76,0,1,1,0,4.76,4.765,4.765,0,0,1,4.761,0Z" transform="translate(737.385 109.011)" fill="#e0e3e6"/>
    <path id="Path_226" data-name="Path 226" d="M222.691,91.833,242.233,72.29h62.629a5.875,5.875,0,1,1,0,2.234h-61.7L225.851,91.833h65.025a5.878,5.878,0,1,1,0,2.234H244.369l14.357,14.358a6.98,6.98,0,1,1,4.456,12.341,7,7,0,0,1-6.994-6.995,6.925,6.925,0,0,1,1.063-3.662L241.209,94.067H146.753L57.415,4.73H0V2.495H58.34l22.43,22.43L104.038,1.658h85.168A6.974,6.974,0,0,1,189.7,0h2.539a4.761,4.761,0,1,0,7.7,0H202.5a6.983,6.983,0,1,1-13.3,3.893H141.537l31.128,31.126h58.124a5.877,5.877,0,1,1,0,2.235h-59.05L138.378,3.893H104.963L82.35,26.5,133.041,77.2l16.846-16.848h23.95a7,7,0,1,1,0,2.235H150.812L134.621,78.775l13.057,13.058Zm40.491,26.7a4.76,4.76,0,1,0-4.761-4.761A4.767,4.767,0,0,0,263.182,118.532Zm-82.465-52.3a4.76,4.76,0,1,0-4.76-4.761A4.767,4.767,0,0,0,180.717,66.227Z" transform="translate(478.964 0)" fill="#e0e3e6" style="mix-blend-mode: overlay;isolation: isolate"/>
    <path id="Path_227" data-name="Path 227" d="M14.788,7.276H198.762L215.792,24.3a5.88,5.88,0,1,1-1.58,1.58L197.837,9.51H17.023L53.138,45.626h76.378l15.342-15.342a5.876,5.876,0,1,1,1.58,1.58L132.676,45.626H238.86l39.89-39.89h67.223a6.993,6.993,0,1,1,0,5.313H314.344L360.055,56.76H377.94a5.877,5.877,0,1,1,0,2.234H359.13L311.184,11.049H280.95L246.373,45.626H309.23a5.88,5.88,0,1,1,.045,5.312H110.682l26.72,26.72H243.189a5.878,5.878,0,1,1,0,2.234H219.173L240.079,100.8h49.606L318.193,72.29h30.713a5.875,5.875,0,1,1,0,2.234H319.118L292.845,100.8h44.041a6.989,6.989,0,1,1,0,2.234H239.154l-23.141-23.14H136.476L107.522,50.938H50.939L0,0H7.513Zm337.649,5.876a4.76,4.76,0,1,0-4.762-4.759A4.765,4.765,0,0,0,352.437,13.152Zm-8.669,93.509a4.76,4.76,0,1,0-4.761-4.761A4.766,4.766,0,0,0,343.768,106.661Z" transform="translate(718.198 0)" fill="#e0e3e6" style="mix-blend-mode: overlay;isolation: isolate"/>
    <path id="Path_228" data-name="Path 228" d="M0,0H7.82A5.846,5.846,0,0,1,3.9,1.5,5.825,5.825,0,0,1,0,0Z" transform="translate(1007.724 0)" fill="#e0e3e6" style="mix-blend-mode: overlay;isolation: isolate"/>
    <path id="Path_229" data-name="Path 229" d="M13.988,29.174A6.994,6.994,0,1,1,6.994,22.18,6.92,6.92,0,0,1,11.2,23.625L34.828,0h3.16L12.76,25.228A6.948,6.948,0,0,1,13.988,29.174Zm-6.994-4.76a4.76,4.76,0,1,0,4.761,4.76A4.765,4.765,0,0,0,6.994,24.414Z" transform="translate(951.224 0)" fill="#e0e3e6" style="mix-blend-mode: overlay;isolation: isolate"/>
    <path id="Path_230" data-name="Path 230" d="M27.279,9.51H11.642a5.878,5.878,0,1,1,0-2.234H26.354L33.629,0h3.16Z" transform="translate(931.402 0)" fill="#e0e3e6" style="mix-blend-mode: overlay;isolation: isolate"/>
    <path id="Path_231" data-name="Path 231" d="M75.294,39.595,59.252,55.637A6.925,6.925,0,0,1,60.315,59.3,6.993,6.993,0,1,1,53.321,52.3a6.929,6.929,0,0,1,4.455,1.648L72.134,39.595H25.627a5.877,5.877,0,1,1,0-2.234H90.653L73.345,20.053h-61.7a5.877,5.877,0,1,1,0-2.235H74.27L93.812,37.361h75.013L181.882,24.3,165.691,8.111H142.666a6.994,6.994,0,1,1,0-2.235h23.95l16.412,16.413v4.029L169.751,39.595ZM53.321,54.539a4.76,4.76,0,1,0,4.761,4.76A4.764,4.764,0,0,0,53.321,54.539Zm82.465-52.3a4.76,4.76,0,1,0,4.761,4.76A4.765,4.765,0,0,0,135.786,2.234Z" transform="translate(1188.906 451.143)" fill="#e0e3e6" style="mix-blend-mode: overlay;isolation: isolate"/>
    <path id="Path_232" data-name="Path 232" d="M70.692,41.474H11.642a5.876,5.876,0,1,1,0-2.235H69.766L100.894,8.113H53.225a7,7,0,1,1,0-2.235h55.731V8.113h-4.9ZM46.345,2.234a4.76,4.76,0,1,0,4.76,4.761A4.767,4.767,0,0,0,46.345,2.234Z" transform="translate(1262.978 392.451)" fill="#e0e3e6" style="mix-blend-mode: overlay;isolation: isolate"/>
    <path id="Path_233" data-name="Path 233" d="M75.3,42.789,59.253,58.83a6.929,6.929,0,0,1,1.062,3.662A6.993,6.993,0,1,1,53.321,55.5a6.925,6.925,0,0,1,4.456,1.649L72.135,42.789H25.627a5.878,5.878,0,1,1,0-2.235H90.653L73.346,23.246h-61.7a5.877,5.877,0,1,1,0-2.234H74.271L93.813,40.554h75.013L181.883,27.5,165.691,11.3H142.667a6.994,6.994,0,1,1,0-2.234h23.95l16.846,16.847L209.38,0h3.16L169.751,42.789ZM53.321,57.733a4.76,4.76,0,1,0,4.761,4.759A4.765,4.765,0,0,0,53.321,57.733Zm82.466-52.3a4.76,4.76,0,1,0,4.76,4.759A4.764,4.764,0,0,0,135.787,5.428Z" transform="translate(1095.063 0)" fill="#e0e3e6" style="mix-blend-mode: overlay;isolation: isolate"/>
    <path id="Path_234" data-name="Path 234" d="M5.878,11.754A5.877,5.877,0,1,1,11.642,4.76H24.131V6.995H11.642A5.874,5.874,0,0,1,5.878,11.754Z" transform="translate(1347.803 179.726)" fill="#e0e3e6" style="mix-blend-mode: overlay;isolation: isolate"/>
    <path id="Path_235" data-name="Path 235" d="M5.878,11.755a5.878,5.878,0,1,1,5.764-6.994H24.131V6.995H11.642A5.875,5.875,0,0,1,5.878,11.755Z" transform="translate(1347.803 511.56)" fill="#e0e3e6" style="mix-blend-mode: overlay;isolation: isolate"/>
    <rect id="Rectangle_18" data-name="Rectangle 18" width="24.218" height="2.235" transform="translate(1347.715 171.721)" fill="#e0e3e6" style="mix-blend-mode: overlay;isolation: isolate"/>
    <path id="Path_236" data-name="Path 236" d="M5.878,23.933a5.878,5.878,0,1,1,5.765-7H116.034L106.09,6.994H76.3a5.877,5.877,0,1,1,0-2.234h30.712l28.508,28.508h14.511V35.5H88.319a7,7,0,1,1,0-2.234h44.04L118.268,19.173H11.643A5.876,5.876,0,0,1,5.878,23.933ZM81.44,29.61A4.76,4.76,0,1,0,86.2,34.369,4.765,4.765,0,0,0,81.44,29.61Z" transform="translate(1221.9 257.506)" fill="#e0e3e6" style="mix-blend-mode: overlay;isolation: isolate"/>
    <path id="Path_237" data-name="Path 237" d="M5.878,23.934a5.878,5.878,0,1,1,5.765-6.995H116.034L106.09,7H76.3a5.878,5.878,0,1,1,0-2.235h30.712l28.508,28.508h14.511V35.5H88.319a7,7,0,1,1,0-2.235h44.04L118.268,19.173H11.643A5.876,5.876,0,0,1,5.878,23.934ZM81.44,29.61A4.76,4.76,0,1,0,86.2,34.37,4.766,4.766,0,0,0,81.44,29.61Z" transform="translate(1221.9 510.442)" fill="#e0e3e6" style="mix-blend-mode: overlay;isolation: isolate"/>
    <path id="Path_238" data-name="Path 238" d="M5.877,11.755a5.878,5.878,0,1,1,5.238-8.492H45.171V8.576H11.07A5.855,5.855,0,0,1,5.877,11.755Z" transform="translate(1326.763 232.338)" fill="#e0e3e6" style="mix-blend-mode: overlay;isolation: isolate"/>
    <path id="Path_239" data-name="Path 239" d="M37.145,13.989a6.995,6.995,0,1,1,6.464-9.65h67.223l3.576,3.576v7.512l-5.776-5.775H78.4L30.453,57.6H11.642a5.878,5.878,0,1,1,0-2.235H29.527L75.239,9.652H43.609A7,7,0,0,1,37.145,13.989Zm0-11.755a4.76,4.76,0,1,0,4.762,4.761A4.767,4.767,0,0,0,37.145,2.234Z" transform="translate(1257.526 191.373)" fill="#e0e3e6" style="mix-blend-mode: overlay;isolation: isolate"/>
    <path id="Path_240" data-name="Path 240" d="M6.994,15.268a6.995,6.995,0,0,1,0-13.99,6.925,6.925,0,0,1,4.384,1.59L14.246,0V3.16L12.88,4.526A6.971,6.971,0,0,1,6.994,15.268Zm0-11.755a4.76,4.76,0,1,0,4.762,4.759A4.765,4.765,0,0,0,6.994,3.513Z" transform="translate(1357.688 272.049)" fill="#e0e3e6" style="mix-blend-mode: overlay;isolation: isolate"/>
    <path id="Path_241" data-name="Path 241" d="M11.755,2.591A5.878,5.878,0,1,1,.608,0H11.15A5.847,5.847,0,0,1,11.755,2.591Z" transform="translate(566.906 0)" fill="#e0e3e6" style="mix-blend-mode: overlay;isolation: isolate"/>
    <path id="Path_242" data-name="Path 242" d="M374.269,67.5H317.686L288.732,96.46H209.2l-23.14,23.14H88.319a7,7,0,1,1,0-2.235h44.04L118.268,103.27H11.643a5.877,5.877,0,1,1,0-2.234H116.034l-9.944-9.944H76.3a5.878,5.878,0,1,1,0-2.235h30.712l28.508,28.508h49.606l20.906-20.9H182.019a5.877,5.877,0,1,1,0-2.235H287.806l26.72-26.72H115.933a5.875,5.875,0,1,1,.045-5.312h62.857L144.258,27.616H114.025L66.079,75.561H47.268a5.877,5.877,0,1,1,0-2.234H65.153l45.712-45.711H79.235a7,7,0,1,1,0-5.313h67.223l39.89,39.89H292.532L278.77,48.431a5.877,5.877,0,1,1,1.58-1.58l15.342,15.342H372.07l36.115-36.116H227.371L211,42.451a5.872,5.872,0,1,1-1.579-1.58l17.029-17.028H410.42L434.262,0h7.513ZM81.44,113.707a4.761,4.761,0,1,0,4.761,4.76A4.765,4.765,0,0,0,81.44,113.707ZM72.771,20.2a4.76,4.76,0,1,0,4.762,4.761A4.766,4.766,0,0,0,72.771,20.2Z" transform="translate(0 0)" fill="#e0e3e6" style="mix-blend-mode: overlay;isolation: isolate"/>
  </g>
</svg>
