<svg id="Layer_1" data-name="Layer 1" xmlns="http://www.w3.org/2000/svg" viewBox="0 0 1133.68 154"><defs><style>.cls-1{fill:#e0e3e6;}.cls-2{fill:#fff;}.cls-3{isolation:isolate;}.cls-4{fill:#151515;}</style></defs><polygon class="cls-1" points="271.01 0 0 0 0 124 226.95 124 258.19 154 1133.68 154 1133.68 106 377.01 106 271.01 0"/><polygon class="cls-2" points="272.76 128 245.69 102 0 102 0 106 243.61 106 270.68 132 1133.68 132 1133.68 128 272.76 128"/><g id="DI_Logo_EN" data-name="DI Logo EN"><g id="Connector"><path class="cls-2" d="M81.91,101.76H1.3l1-.87,20-18,.14-.13H60.8l.14.13,20,18Z"/><path class="cls-2" d="M22.61,83.26l-20,18h78l-20-18h-38m-.39-1H61l.28.26,20,18,1.94,1.74H0l1.94-1.74,20-18Z"/></g><g id="digital_innovation" data-name="digital innovation" class="cls-3"><g class="cls-3"><path d="M82.58,49.16h7.65a5,5,0,0,0,3.87-1.54,4.47,4.47,0,0,0,1-2.44,35.88,35.88,0,0,0,.21-4.47c0-1.28,0-2.24,0-2.89a10.14,10.14,0,0,0-.32-2,3.68,3.68,0,0,0-.85-1.66,5,5,0,0,0-3.87-1.54H82.58v-3.1h8a8,8,0,0,1,5.89,2.14,6.81,6.81,0,0,1,1.63,2.66A10.32,10.32,0,0,1,98.71,37c0,.74.06,1.8.06,3.19v.57a29.26,29.26,0,0,1-.35,5.6,7.46,7.46,0,0,1-2,3.81,8,8,0,0,1-5.89,2.14h-8Z"/><path d="M106.13,52.26h-3.45V29.48h3.45Z"/><path d="M126.55,43.43q0,4.26-2,6.43a8.27,8.27,0,0,1-6.27,2.6,8.09,8.09,0,0,1-6-2.44,5.75,5.75,0,0,1-1.09-1.45,12.29,12.29,0,0,1-.66-1.43,6.93,6.93,0,0,1-.33-1.85q-.11-1.22-.12-1.95c0-.5,0-1.32,0-2.47s0-2,0-2.46,0-1.14.12-1.95a7.1,7.1,0,0,1,.33-1.86,11.5,11.5,0,0,1,.66-1.42,5.79,5.79,0,0,1,1.09-1.46,8.12,8.12,0,0,1,6-2.43,8,8,0,0,1,5.62,2,8.57,8.57,0,0,1,2.67,5.09H123a5.3,5.3,0,0,0-1.68-2.93,4.68,4.68,0,0,0-3.12-1,4.37,4.37,0,0,0-3.36,1.41,4.68,4.68,0,0,0-1.1,2.29,27,27,0,0,0-.28,4.78,27.45,27.45,0,0,0,.28,4.8,4.71,4.71,0,0,0,1.1,2.31,4.39,4.39,0,0,0,3.36,1.37,4.69,4.69,0,0,0,3.71-1.6,5.29,5.29,0,0,0,1.15-3.58V42.89h-4.86v-3h8.32Z"/><path d="M133.88,52.26h-3.46V29.48h3.46Z"/><path d="M152.6,32.58h-6.28V52.26h-3.45V32.58H136.6v-3.1h16Z"/><path d="M162.32,34.63l-6.14,17.63H152.5l8.35-22.78h2.79L172,52.26h-3.68Z"/><path d="M188.44,52.26H174V29.48h3.45V49.16h11Z"/></g><g class="cls-3"><path d="M86,82.26H82.58V59.48H86Z"/><path d="M107.93,82.26h-3.17l-10.53-16v16H90.77V59.48h3.17l10.53,16v-16h3.46Z"/><path d="M129.81,82.26h-3.16l-10.53-16v16h-3.46V59.48h3.17l10.53,16v-16h3.45Z"/><path d="M150.09,68.39c0,.44,0,1.27,0,2.48s0,2,0,2.48-.05,1.08-.12,1.92a7.55,7.55,0,0,1-.32,1.89,10.91,10.91,0,0,1-.64,1.41A6,6,0,0,1,147.93,80a8.6,8.6,0,0,1-12,0,5.75,5.75,0,0,1-1.09-1.45,12.29,12.29,0,0,1-.66-1.43,7.29,7.29,0,0,1-.34-1.85c-.06-.81-.1-1.46-.11-2s0-1.32,0-2.47,0-2,0-2.46.05-1.14.11-2a7.48,7.48,0,0,1,.34-1.86,11.5,11.5,0,0,1,.66-1.42,5.79,5.79,0,0,1,1.09-1.46,8.62,8.62,0,0,1,12,0A6,6,0,0,1,149,63.18a10.85,10.85,0,0,1,.64,1.4,7.55,7.55,0,0,1,.32,1.89C150,67.31,150.07,68,150.09,68.39Zm-3.7,7.3a30.6,30.6,0,0,0,.25-4.82,30.45,30.45,0,0,0-.25-4.81,4.55,4.55,0,0,0-9,0,30.11,30.11,0,0,0-.26,4.81,30.26,30.26,0,0,0,.26,4.82,4.55,4.55,0,0,0,9,0Z"/><path d="M168.6,59.48l-7.55,22.78h-2.69l-7.49-22.78h3.58l5.25,16.58L165,59.48Z"/><path d="M177.3,64.63l-6.14,17.63h-3.68l8.35-22.78h2.78L187,82.26h-3.69Z"/><path d="M203,62.58h-6.28V82.26h-3.45V62.58H187v-3.1h16Z"/><path d="M209.14,82.26h-3.46V59.48h3.46Z"/><path d="M229.41,68.39c0,.44,0,1.27,0,2.48s0,2,0,2.48,0,1.08-.11,1.92a7.55,7.55,0,0,1-.32,1.89,10.91,10.91,0,0,1-.64,1.41A6,6,0,0,1,227.25,80a8.6,8.6,0,0,1-12,0,6,6,0,0,1-1.09-1.45,14,14,0,0,1-.65-1.43,7.29,7.29,0,0,1-.34-1.85c-.06-.81-.1-1.46-.11-2s0-1.32,0-2.47,0-2,0-2.46.05-1.14.11-2a7.48,7.48,0,0,1,.34-1.86,13,13,0,0,1,.65-1.42,6,6,0,0,1,1.09-1.46,8.62,8.62,0,0,1,12,0,6,6,0,0,1,1.09,1.46,10.85,10.85,0,0,1,.64,1.4,7.55,7.55,0,0,1,.32,1.89C229.36,67.31,229.4,68,229.41,68.39Zm-3.69,7.3a30.6,30.6,0,0,0,.25-4.82,30.45,30.45,0,0,0-.25-4.81,4.48,4.48,0,0,0-1.09-2.26,4.54,4.54,0,0,0-7.87,2.26,30.11,30.11,0,0,0-.26,4.81,30.26,30.26,0,0,0,.26,4.82,4.55,4.55,0,0,0,9,0Z"/><path d="M250.48,82.26h-3.16l-10.53-16v16h-3.46V59.48h3.17l10.53,16v-16h3.45Z"/></g></g><g id="DI_2020_Logo_FINAL" data-name="DI 2020 Logo FINAL"><path id="bottom" class="cls-4" d="M59.75,40.57,41.53,46.94,23.39,40.57l4.9,6.71L22.61,83.34,41.53,94.26,60.46,83.34,54.78,47.28Z"/><path id="top" class="cls-4" d="M34.43,33.48A7.16,7.16,0,0,0,35,36.14L24.88,39.63l16.66,5.78,16.72-5.78-10.14-3.5A7.08,7.08,0,0,0,47,28.92l13.34-4.61s-10.15-10-18.78-10-18.78,10-18.78,10L36.1,28.92A7.06,7.06,0,0,0,34.43,33.48Z"/><path id="right_beam" data-name="right beam" class="cls-4" d="M66.11,27.13,51,32l15.11,5s1.35,0,1.35-5S66.11,27.13,66.11,27.13Z"/><path id="left_beam" data-name="left beam" class="cls-4" d="M15.61,32c0,5,1.34,5,1.34,5l15.12-5L17,27.13S15.61,27,15.61,32Z"/></g></g></svg>