<svg id="Layer_1" data-name="Layer 1" xmlns="http://www.w3.org/2000/svg" viewBox="0 0 464.28 124"><defs><style>.cls-1{fill:#e0e3e6;}.cls-2{fill:#fff;}</style></defs><rect class="cls-1" width="464.28" height="124"/><rect class="cls-2" y="102" width="464.28" height="4"/><path id="Circuit_2" data-name="Circuit 2" class="cls-2" d="M227.75,19.94H7a3.55,3.55,0,0,0-4.76-1.56h0A3.56,3.56,0,0,0,.71,23.15h0a3.55,3.55,0,0,0,6.33,0H151.71l-26.9,26.91H109.43L89,29.63H75.25a4.21,4.21,0,1,0,0,1.34h13.2l19.08,19.09H54.89L42.55,37.7H29.77a3.58,3.58,0,0,0-4.3-2.62h0A3.56,3.56,0,1,0,27.15,42h0a3.57,3.57,0,0,0,2.69-3H42L54.34,51.4h71l28.25-28.25h60.65L203.78,33.64H158.57a3.54,3.54,0,1,0,0,1.35h45.77l11.84-11.84h9.24l16.69,16.7h-52a4.22,4.22,0,1,0,0,1.35h53.35L281,78.76H248.29L216.42,46.89h-51.6L153.94,57.77H132.26a3.54,3.54,0,1,0,.34,3.2h22.67l10.88-10.88h28L185.26,59a3.54,3.54,0,1,0,1,.95l9.88-9.88h19L227,62,209.05,79.88l-5.8-5.8H170.44a3.54,3.54,0,1,0,0,1.35h32.25l5.4,5.4L196,92.91H161.44L140.12,71.58H97.06L86,60.5H68.19A3.54,3.54,0,0,0,64,57.69h0a3.55,3.55,0,0,0-2.81,4.15h0a3.54,3.54,0,0,0,7,0H85.42l9.74,9.74H46.85L25.41,50.14H16.8a3.53,3.53,0,1,0-2.86,4.09h0a3.52,3.52,0,0,0,2.84-2.74h8.07L44.94,71.58H34.79A4.21,4.21,0,1,0,32.42,77h0a4.2,4.2,0,0,0,2.33-2.26H68.84L51.42,92.21H23.53a3.55,3.55,0,0,0-4.15-2.81h0a3.53,3.53,0,0,0-2.8,4.15h0a3.55,3.55,0,0,0,7,0H52L70.74,74.78h54l-8.45,8.45h-29a3.54,3.54,0,1,0,0,1.35h29.57l9.79-9.8h12.16l18.12,18.13H111.2a4.22,4.22,0,1,0-2.3,5.5,4.25,4.25,0,0,0,2.3-2.3h86.15l31.88-31.89L247,82h37.26l21.93,21h4.59ZM71.1,33.17A2.87,2.87,0,1,1,74,30.3h0A2.88,2.88,0,0,1,71.1,33.17ZM186,43.39a2.88,2.88,0,1,1,2.87-2.88h0A2.87,2.87,0,0,1,186,43.39ZM30.87,76A2.88,2.88,0,0,1,28,73.12h0A2.87,2.87,0,1,1,30.87,76ZM107.3,97.38a2.87,2.87,0,1,1,2.87-2.87h0A2.87,2.87,0,0,1,107.3,97.38Z"/></svg>