<svg id="HEADER" xmlns="http://www.w3.org/2000/svg" width="1920" height="154" viewBox="0 0 1920 154">
  <path id="BG_2" data-name="BG 2" d="M0,0H1920V154H0Z" fill="#e0e3e6"/>
  <path id="BG_Main_Line_2" data-name="BG Main Line 2" d="M1920,135H1548l-7-7H704l-26-26H.005v4H676l26,26h837l7,7h374Z" fill="#fff"/>
  <g id="Navbar" transform="translate(0 -15.24)">
    <path id="Circuit_2" data-name="Circuit 2" d="M148.238,14.956H-72.474a3.645,3.645,0,0,0-4.764-1.473,3.261,3.261,0,0,0-1.56,4.5,3.647,3.647,0,0,0,4.764,1.473,3.456,3.456,0,0,0,1.56-1.473H72.2L45.3,43.39H29.921L9.5,24.1H-4.266A4.2,4.2,0,0,0-9.1,20.8a4.017,4.017,0,0,0-3.49,4.567,4.2,4.2,0,0,0,4.838,3.3,4.107,4.107,0,0,0,3.49-3.3H8.94L28.017,43.389H-24.617L-36.962,31.726H-49.745a3.572,3.572,0,0,0-4.3-2.472,3.353,3.353,0,0,0-2.618,4.056,3.573,3.573,0,0,0,4.3,2.472A3.438,3.438,0,0,0-49.681,33h12.162l12.345,11.662h71.03l28.249-26.68h60.657l-10.489,9.908H79.059a3.539,3.539,0,0,0-4.154-2.65A3.361,3.361,0,0,0,72.1,29.162a3.54,3.54,0,0,0,4.154,2.65,3.452,3.452,0,0,0,2.806-2.65h45.772l11.837-11.181h9.24L162.6,33.745h-52a4.2,4.2,0,0,0-4.838-3.3,4.018,4.018,0,0,0-3.491,4.569,4.2,4.2,0,0,0,4.839,3.3,4.107,4.107,0,0,0,3.49-3.3h53.35L201.51,70.5H168.783l-31.87-30.1h-51.6L74.428,50.676H52.748a3.681,3.681,0,0,0-4.914-.986,3.243,3.243,0,0,0-1.043,4.64,3.681,3.681,0,0,0,4.914.985A3.4,3.4,0,0,0,53.087,53.7H75.755L86.64,43.42h28.035l-8.928,8.432a3.678,3.678,0,0,0-4.924.9,3.234,3.234,0,0,0,.952,4.649,3.679,3.679,0,0,0,4.924-.9,3.193,3.193,0,0,0,0-3.75l9.881-9.333h19.007l11.867,11.205L129.536,71.547l-5.8-5.478H90.932a3.54,3.54,0,0,0-4.154-2.65,3.363,3.363,0,0,0-2.806,3.923,3.54,3.54,0,0,0,4.154,2.65,3.452,3.452,0,0,0,2.806-2.65h32.25l5.4,5.1L116.51,83.853H81.926l-21.32-20.14H17.551L6.471,53.247h-17.79a3.539,3.539,0,0,0-4.154-2.65,3.361,3.361,0,0,0-2.806,3.922,3.54,3.54,0,0,0,4.154,2.65,3.452,3.452,0,0,0,2.806-2.65H5.913l9.733,9.193H-32.662L-54.1,43.468h-8.608a3.516,3.516,0,0,0-4.085-2.705,3.354,3.354,0,0,0-2.865,3.856,3.516,3.516,0,0,0,4.085,2.705,3.444,3.444,0,0,0,2.84-2.583h8.073L-34.57,63.713H-44.722a4.3,4.3,0,0,0-5.465-2.233,3.907,3.907,0,0,0-2.365,5.16,4.3,4.3,0,0,0,5.465,2.233,4.1,4.1,0,0,0,2.322-2.135h34.092L-28.091,83.192H-55.983a3.541,3.541,0,0,0-4.154-2.651,3.363,3.363,0,0,0-2.808,3.923,3.542,3.542,0,0,0,4.155,2.651,3.451,3.451,0,0,0,2.807-2.651h28.45L-8.767,66.738H45.214L36.77,74.712H7.757A3.54,3.54,0,0,0,3.6,72.063,3.361,3.361,0,0,0,.8,75.985a3.539,3.539,0,0,0,4.154,2.65,3.451,3.451,0,0,0,2.806-2.65H37.329l9.789-9.246H59.279L77.4,83.853H31.688a4.309,4.309,0,0,0-5.5-2.173,3.909,3.909,0,0,0-2.3,5.2,4.309,4.309,0,0,0,5.5,2.172,4.11,4.11,0,0,0,2.3-2.172h86.148l31.881-30.11,17.741,16.758h37.257l21.933,19.856h4.588ZM-8.415,27.446a2.8,2.8,0,0,1-2.872-2.71,2.8,2.8,0,0,1,2.871-2.713,2.8,2.8,0,0,1,2.872,2.711v0A2.8,2.8,0,0,1-8.415,27.446ZM106.45,37.094a2.716,2.716,0,1,1,2.87-2.713h0A2.8,2.8,0,0,1,106.45,37.094ZM-48.638,67.88a2.8,2.8,0,0,1-2.871-2.711,2.794,2.794,0,0,1,2.871-2.71,2.794,2.794,0,0,1,2.871,2.709A2.8,2.8,0,0,1-48.638,67.88Zm76.429,20.2a2.715,2.715,0,1,1,2.871-2.711h0A2.8,2.8,0,0,1,27.791,88.075Z" transform="translate(79.182 24.858)" fill="#fff"/>
    <path id="Nav_BG_2" data-name="Nav BG 2" d="M1920,0V120H1564l-14-14H768L662,0Z" transform="translate(0 15.24)" fill="#fff"/>
  </g>
</svg>
