<svg id="Layer_1" data-name="Layer 1" xmlns="http://www.w3.org/2000/svg" viewBox="0 0 250.48 88"><defs><style>.cls-1{fill:#fff;}.cls-2{isolation:isolate;}.cls-3{fill:#151515;}</style></defs><g id="DI_Logo_EN" data-name="DI Logo EN"><g id="Connector"><path class="cls-1" d="M81.91,87.5H1.3l1-.88,20-18,.14-.12H60.8l.14.12,20,18Z"/><path class="cls-1" d="M22.61,69l-20,18h78l-20-18h-38m-.39-1H61l.28.25,20,18L83.21,88H0l1.94-1.75,20-18Z"/></g><g id="digital_innovation" data-name="digital innovation" class="cls-2"><g class="cls-2"><path d="M82.58,34.89h7.65a5,5,0,0,0,3.87-1.53,4.47,4.47,0,0,0,1-2.45,35.88,35.88,0,0,0,.21-4.47c0-1.28,0-2.24,0-2.89a10.25,10.25,0,0,0-.32-2,3.68,3.68,0,0,0-.85-1.66,5,5,0,0,0-3.87-1.53H82.58V15.21h8a8,8,0,0,1,5.89,2.15A6.89,6.89,0,0,1,98.1,20a10.32,10.32,0,0,1,.61,2.67c0,.74.06,1.8.06,3.19v.57a29.26,29.26,0,0,1-.35,5.6,7.46,7.46,0,0,1-2,3.81A8,8,0,0,1,90.58,38h-8Z"/><path d="M106.13,38h-3.45V15.21h3.45Z"/><path d="M126.55,29.16q0,4.26-2,6.43a8.27,8.27,0,0,1-6.27,2.6,8.09,8.09,0,0,1-6-2.44,5.75,5.75,0,0,1-1.09-1.45,11.57,11.57,0,0,1-.66-1.43,6.93,6.93,0,0,1-.33-1.85q-.11-1.21-.12-1.95c0-.49,0-1.32,0-2.47s0-2,0-2.46,0-1.14.12-1.95a7.1,7.1,0,0,1,.33-1.86,11.5,11.5,0,0,1,.66-1.42,5.79,5.79,0,0,1,1.09-1.46,8.12,8.12,0,0,1,6-2.43,8,8,0,0,1,5.61,2,8.56,8.56,0,0,1,2.68,5.09H123a5.34,5.34,0,0,0-1.68-2.93,4.68,4.68,0,0,0-3.12-1,4.37,4.37,0,0,0-3.36,1.41,4.78,4.78,0,0,0-1.11,2.29,28.44,28.44,0,0,0-.27,4.78,28.64,28.64,0,0,0,.27,4.8,4.81,4.81,0,0,0,1.11,2.31,4.39,4.39,0,0,0,3.36,1.37,4.7,4.7,0,0,0,3.71-1.6,5.29,5.29,0,0,0,1.15-3.58V28.62h-4.86V25.67h8.32Z"/><path d="M133.88,38h-3.46V15.21h3.46Z"/><path d="M152.6,18.32h-6.28V38h-3.45V18.32H136.6V15.21h16Z"/><path d="M162.32,20.36,156.18,38H152.5l8.35-22.78h2.79L172,38h-3.68Z"/><path d="M188.44,38H174V15.21h3.45V34.89h11Z"/></g><g class="cls-2"><path d="M86,68H82.58V45.21H86Z"/><path d="M107.93,68h-3.17L94.23,52V68H90.77V45.21h3.17l10.53,16v-16h3.46Z"/><path d="M129.81,68h-3.17L116.12,52V68h-3.46V45.21h3.17l10.53,16v-16h3.45Z"/><path d="M150.09,54.12c0,.44,0,1.27,0,2.48s0,2,0,2.48S150,60.16,150,61a7.38,7.38,0,0,1-.32,1.89A10.34,10.34,0,0,1,149,64.3a6,6,0,0,1-1.08,1.45,8.6,8.6,0,0,1-12,0,5.75,5.75,0,0,1-1.09-1.45,11.57,11.57,0,0,1-.66-1.43,7.29,7.29,0,0,1-.34-1.85c-.06-.81-.1-1.46-.11-2s0-1.32,0-2.47,0-2,0-2.46.05-1.14.11-2a7.48,7.48,0,0,1,.34-1.86,11.5,11.5,0,0,1,.66-1.42,5.79,5.79,0,0,1,1.09-1.46,8.62,8.62,0,0,1,12,0A6,6,0,0,1,149,48.91a10.34,10.34,0,0,1,.64,1.41A7.37,7.37,0,0,1,150,52.2C150,53.05,150.07,53.69,150.09,54.12Zm-3.7,7.3a30.6,30.6,0,0,0,.25-4.82,30.45,30.45,0,0,0-.25-4.81,4.55,4.55,0,0,0-9,0,30.11,30.11,0,0,0-.26,4.81,30.26,30.26,0,0,0,.26,4.82,4.33,4.33,0,0,0,1.09,2.25,4.78,4.78,0,0,0,6.78,0A4.33,4.33,0,0,0,146.39,61.42Z"/><path d="M168.6,45.21,161.05,68h-2.69l-7.49-22.78h3.58l5.25,16.58L165,45.21Z"/><path d="M177.3,50.36,171.16,68h-3.68l8.35-22.78h2.78L187,68h-3.69Z"/><path d="M203,48.32h-6.28V68h-3.45V48.32H187V45.21h16Z"/><path d="M209.14,68h-3.46V45.21h3.46Z"/><path d="M229.41,54.12c0,.44,0,1.27,0,2.48s0,2,0,2.48,0,1.08-.11,1.92a7.38,7.38,0,0,1-.32,1.89,10.34,10.34,0,0,1-.64,1.41,6,6,0,0,1-1.09,1.45,8.6,8.6,0,0,1-12,0,6,6,0,0,1-1.09-1.45,13,13,0,0,1-.65-1.43,7.29,7.29,0,0,1-.34-1.85c-.06-.81-.1-1.46-.11-2s0-1.32,0-2.47,0-2,0-2.46.05-1.14.11-2a7.48,7.48,0,0,1,.34-1.86,13,13,0,0,1,.65-1.42,6,6,0,0,1,1.09-1.46,8.62,8.62,0,0,1,12,0,6,6,0,0,1,1.09,1.46,10.34,10.34,0,0,1,.64,1.41,7.37,7.37,0,0,1,.32,1.88C229.36,53.05,229.4,53.69,229.41,54.12Zm-3.69,7.3A30.6,30.6,0,0,0,226,56.6a30.45,30.45,0,0,0-.25-4.81,4.48,4.48,0,0,0-1.09-2.26,4.54,4.54,0,0,0-7.87,2.26,30.11,30.11,0,0,0-.26,4.81,30.26,30.26,0,0,0,.26,4.82,4.55,4.55,0,0,0,9,0Z"/><path d="M250.48,68h-3.16L236.79,52V68h-3.46V45.21h3.17l10.53,16v-16h3.45Z"/></g></g><g id="DI_2020_Logo_FINAL" data-name="DI 2020 Logo FINAL"><path id="bottom" class="cls-3" d="M59.75,26.31,41.53,32.67,23.39,26.31l4.9,6.7L22.61,69.07,41.53,80,60.46,69.07,54.78,33Z"/><path id="top" class="cls-3" d="M34.43,19.21A7.12,7.12,0,0,0,35,21.87L24.88,25.36l16.66,5.78,16.72-5.78-10.14-3.5A7.08,7.08,0,0,0,47,14.65L60.31,10S50.16,0,41.53,0,22.75,10,22.75,10L36.1,14.66A7,7,0,0,0,34.43,19.21Z"/><path id="right_beam" data-name="right beam" class="cls-3" d="M66.11,12.86,51,17.72l15.12,5s1.35,0,1.35-5S66.11,12.86,66.11,12.86Z"/><path id="left_beam" data-name="left beam" class="cls-3" d="M15.61,17.73c0,5,1.34,5,1.34,5l15.12-5L17,12.86S15.61,12.73,15.61,17.73Z"/></g></g></svg>