<svg id="Layer_1" data-name="Layer 1" xmlns="http://www.w3.org/2000/svg" viewBox="0 0 250.48 88"><defs><style>.cls-1{fill:#fff;}.cls-2{isolation:isolate;}.cls-3{fill:none;stroke:#000;stroke-width:3px;}.cls-4{fill:#151515;}</style></defs><g id="DI_Logo_FR" data-name="DI Logo FR"><g id="Connector"><path class="cls-1" d="M81.91,87.5H1.3l1-.88,20-18,.14-.12H60.8l.14.12,20,18Z"/><path class="cls-1" d="M22.61,69l-20,18h78l-20-18h-38m-.39-1H61l.28.25,20,18L83.21,88H0l1.94-1.75,20-18Z"/></g><g id="innovation_numerique" data-name="innovation numerique"><g id="innovation_numerique-2" data-name="innovation numerique-2" class="cls-2"><g class="cls-2"><path d="M86,38H82.58V15.21H86Z"/><path d="M107.93,38h-3.17L94.23,22V38H90.77V15.21h3.17l10.53,16v-16h3.46Z"/><path d="M129.81,38h-3.17L116.12,22V38h-3.46V15.21h3.17l10.53,16v-16h3.45Z"/><path d="M150.09,24.12c0,.44,0,1.27,0,2.48s0,2,0,2.48S150,30.16,150,31a7.38,7.38,0,0,1-.32,1.89A10.34,10.34,0,0,1,149,34.3a6,6,0,0,1-1.08,1.45,8.6,8.6,0,0,1-12,0,5.75,5.75,0,0,1-1.09-1.45,11.57,11.57,0,0,1-.66-1.43,7.29,7.29,0,0,1-.34-1.85c-.06-.81-.1-1.46-.11-1.95s0-1.32,0-2.47,0-2,0-2.46.05-1.14.11-1.95a7.48,7.48,0,0,1,.34-1.86,11.5,11.5,0,0,1,.66-1.42,5.79,5.79,0,0,1,1.09-1.46,8.62,8.62,0,0,1,12,0A6,6,0,0,1,149,18.91a10.34,10.34,0,0,1,.64,1.41A7.37,7.37,0,0,1,150,22.2C150,23.05,150.07,23.69,150.09,24.12Zm-3.7,7.3a30.6,30.6,0,0,0,.25-4.82,30.45,30.45,0,0,0-.25-4.81,4.55,4.55,0,0,0-9,0,30.11,30.11,0,0,0-.26,4.81,30.26,30.26,0,0,0,.26,4.82,4.33,4.33,0,0,0,1.09,2.25,4.78,4.78,0,0,0,6.78,0A4.33,4.33,0,0,0,146.39,31.42Z"/><path d="M168.6,15.21,161.05,38h-2.69l-7.49-22.78h3.58l5.25,16.58L165,15.21Z"/><path d="M177.3,20.36,171.16,38h-3.68l8.35-22.78h2.78L187,38h-3.69Z"/><path d="M203,18.32h-6.28V38h-3.45V18.32H187V15.21h16Z"/><path d="M209.14,38h-3.46V15.21h3.46Z"/><path d="M229.41,24.12c0,.44,0,1.27,0,2.48s0,2,0,2.48,0,1.08-.11,1.92a7.38,7.38,0,0,1-.32,1.89,10.34,10.34,0,0,1-.64,1.41,6,6,0,0,1-1.09,1.45,8.6,8.6,0,0,1-12,0,6,6,0,0,1-1.09-1.45,13,13,0,0,1-.65-1.43,7.29,7.29,0,0,1-.34-1.85c-.06-.81-.1-1.46-.11-1.95s0-1.32,0-2.47,0-2,0-2.46.05-1.14.11-1.95a7.48,7.48,0,0,1,.34-1.86,13,13,0,0,1,.65-1.42,6,6,0,0,1,1.09-1.46,8.62,8.62,0,0,1,12,0,6,6,0,0,1,1.09,1.46,10.34,10.34,0,0,1,.64,1.41,7.37,7.37,0,0,1,.32,1.88C229.36,23.05,229.4,23.69,229.41,24.12Zm-3.69,7.3A30.6,30.6,0,0,0,226,26.6a30.45,30.45,0,0,0-.25-4.81,4.48,4.48,0,0,0-1.09-2.26,4.54,4.54,0,0,0-7.87,2.26,30.11,30.11,0,0,0-.26,4.81,30.26,30.26,0,0,0,.26,4.82,4.55,4.55,0,0,0,9,0Z"/><path d="M250.48,38h-3.16L236.79,22V38h-3.46V15.21h3.17l10.53,16v-16h3.45Z"/></g><g class="cls-2"><path d="M99.73,72H96.57L86,56V72H82.58V49.21h3.17l10.53,16v-16h3.45Z"/><path d="M120.47,64.32A7.45,7.45,0,0,1,118.13,70a8.9,8.9,0,0,1-11.69,0,7.47,7.47,0,0,1-2.32-5.68V49.21h3.45V64.16a5,5,0,0,0,1.28,3.6,5.13,5.13,0,0,0,6.87,0,5,5,0,0,0,1.29-3.6V49.21h3.46Z"/><path d="M145,72h-3.46V56.76l-5.24,11.11h-2.57l-5.37-11.11V72h-3.46V49.21h3.46L135,63.39l6.52-14.18H145Z"/><path d="M149.65,49.21h14.56v3.11H149.65Zm0,9.76h12.93V62H149.65Zm0,9.92h14.56V72H149.65Z"/><path d="M167.73,59.45h8.58a4.09,4.09,0,0,0,2.82-.94,3.33,3.33,0,0,0,1.05-2.61,3.37,3.37,0,0,0-1.05-2.62,4,4,0,0,0-2.82-1h-8.58V49.21h8.83a7.1,7.1,0,0,1,5.14,1.86,6.34,6.34,0,0,1,1.94,4.8,6.07,6.07,0,0,1-1.27,3.92,6.17,6.17,0,0,1-3.28,2.13L184.34,72h-4l-4.8-9.6h-4.32V72h-3.46Z"/><path d="M190.93,72h-3.45V49.21h3.45Z"/><path d="M212,71.1,210.07,73l-2.27-2.27a8.61,8.61,0,0,1-10.76-1A6.2,6.2,0,0,1,196,68.3a12.22,12.22,0,0,1-.66-1.42A7.48,7.48,0,0,1,195,65c-.06-.81-.1-1.46-.11-1.95s0-1.31,0-2.47,0-2,0-2.46.05-1.14.11-2a7.48,7.48,0,0,1,.34-1.86,11.5,11.5,0,0,1,.66-1.42A6,6,0,0,1,197,51.45a8.62,8.62,0,0,1,12,0,6,6,0,0,1,1.09,1.46,10.34,10.34,0,0,1,.64,1.41,7.37,7.37,0,0,1,.32,1.88c.07.85.1,1.49.11,1.92s0,1.27,0,2.48c0,1.67,0,2.85-.05,3.56a12.64,12.64,0,0,1-.38,2.41,6.59,6.59,0,0,1-1,2.32Zm-4.23-10.5a30.45,30.45,0,0,0-.25-4.81,4.48,4.48,0,0,0-1.09-2.26,4.55,4.55,0,0,0-7.87,2.26,30.11,30.11,0,0,0-.26,4.81,30.26,30.26,0,0,0,.26,4.82,4.33,4.33,0,0,0,1.09,2.25A4.41,4.41,0,0,0,203,69.08a3.89,3.89,0,0,0,2.33-.73L203,66,204.88,64l2.21,2.21Q207.77,64.89,207.76,60.6Z"/><path d="M231.12,64.32A7.48,7.48,0,0,1,228.79,70a8.91,8.91,0,0,1-11.7,0,7.51,7.51,0,0,1-2.32-5.68V49.21h3.46V64.16a5,5,0,0,0,1.28,3.6,4.53,4.53,0,0,0,3.42,1.32,4.6,4.6,0,0,0,3.44-1.32,4.93,4.93,0,0,0,1.3-3.6V49.21h3.45Z"/><path d="M235.51,49.21h14.56v3.11H235.51Zm0,9.76h12.93V62H235.51Zm0,9.92h14.56V72H235.51Z"/></g></g><line id="accent" class="cls-3" x1="155.11" y1="45.5" x2="163.11" y2="41.5"/></g><g id="DI_2020_Logo_FINAL" data-name="DI 2020 Logo FINAL"><path id="bottom" class="cls-4" d="M59.75,26.31,41.53,32.67,23.39,26.31l4.9,6.7L22.61,69.07,41.53,80,60.46,69.07,54.78,33Z"/><path id="top" class="cls-4" d="M34.43,19.21A7.12,7.12,0,0,0,35,21.87L24.88,25.36l16.66,5.78,16.72-5.78-10.14-3.5A7.08,7.08,0,0,0,47,14.65L60.31,10S50.16,0,41.53,0,22.75,10,22.75,10L36.1,14.66A7,7,0,0,0,34.43,19.21Z"/><path id="right_beam" data-name="right beam" class="cls-4" d="M66.11,12.86,51,17.72l15.12,5s1.35,0,1.35-5S66.11,12.86,66.11,12.86Z"/><path id="left_beam" data-name="left beam" class="cls-4" d="M15.61,17.73c0,5,1.34,5,1.34,5l15.12-5L17,12.86S15.61,12.73,15.61,17.73Z"/></g></g></svg>