<?xml version="1.0" standalone="no"?>
<!DOCTYPE svg PUBLIC "-//W3C//DTD SVG 20010904//EN"
 "http://www.w3.org/TR/2001/REC-SVG-20010904/DTD/svg10.dtd">
<svg version="1.0" xmlns="http://www.w3.org/2000/svg"
 width="700.000000pt" height="700.000000pt" viewBox="0 0 700.000000 700.000000"
 preserveAspectRatio="xMidYMid meet">
<metadata>
Created by potrace 1.11, written by Peter Selinger 2001-2013
</metadata>
<g transform="translate(0.000000,700.000000) scale(0.100000,-0.100000)"
fill="#000000" stroke="none">
<path d="M2260 6991 c-89 -28 -172 -108 -201 -196 -18 -57 -13 -146 11 -198
27 -57 90 -120 149 -149 42 -21 63 -23 226 -26 l180 -4 -1 -911 0 -912 -58
-90 c-176 -276 -399 -626 -610 -962 -55 -87 -123 -194 -152 -238 -28 -44 -107
-168 -174 -275 -68 -107 -137 -217 -155 -245 -18 -27 -97 -151 -175 -275 -78
-124 -159 -251 -179 -282 -20 -32 -57 -90 -82 -130 -165 -261 -584 -921 -640
-1010 -145 -228 -190 -328 -213 -469 -23 -136 3 -260 75 -369 73 -108 182
-178 349 -222 l85 -23 2800 0 c2401 0 2809 2 2860 14 33 8 62 15 65 16 3 0 23
7 45 14 222 75 357 257 356 481 0 47 -5 100 -10 118 -5 18 -9 33 -9 35 2 5
-35 113 -45 132 -6 11 -12 22 -12 25 -3 20 -216 367 -357 583 -27 39 -52 81
-58 92 -13 27 -256 407 -269 422 -6 7 -11 14 -11 17 0 3 -553 878 -680 1076
-51 78 -174 273 -200 316 -32 53 -335 529 -483 761 -40 62 -84 131 -98 155
-15 24 -69 108 -120 188 l-93 145 -1 908 c0 499 2 908 5 908 3 1 82 2 176 3
163 2 173 3 226 29 105 51 168 147 170 259 2 110 -68 219 -174 272 l-51 26
-1221 -1 c-672 0 -1232 -4 -1246 -8z m1525 -580 c7 -1 10 -334 9 -983 0 -971
0 -983 20 -1023 11 -22 27 -48 35 -58 8 -9 19 -26 25 -37 6 -11 94 -153 196
-315 102 -163 192 -308 201 -323 22 -38 375 -606 414 -667 18 -27 95 -151 172
-275 77 -124 175 -282 219 -352 43 -71 91 -147 105 -170 14 -24 95 -153 179
-288 166 -266 271 -434 322 -519 18 -29 40 -64 48 -77 30 -46 155 -248 175
-280 11 -19 70 -113 130 -210 105 -170 155 -252 155 -257 0 -1 -1210 -2 -2689
-2 l-2689 0 11 20 c5 11 29 49 52 85 23 36 84 135 137 220 53 85 194 313 313
505 120 193 225 362 234 377 25 41 290 466 326 523 18 28 70 111 115 185 45
74 97 158 115 185 18 28 100 160 183 295 83 135 156 250 162 257 5 7 10 15 10
17 0 3 19 36 43 73 24 38 144 230 266 428 123 198 233 376 245 395 13 19 60
92 104 163 l82 127 0 993 0 992 283 -1 c155 -1 287 -2 292 -3z"/>
<path d="M2605 2874 c-148 -240 -296 -477 -327 -527 -32 -51 -67 -108 -78
-127 -21 -35 -55 -90 -275 -443 -66 -105 -124 -200 -130 -209 -10 -18 -162
-262 -220 -353 -87 -136 -245 -394 -245 -399 0 -3 977 -6 2170 -6 1194 0 2170
3 2170 8 0 4 -8 19 -17 32 -10 14 -25 36 -33 50 -8 14 -28 47 -45 73 -107 171
-579 931 -632 1017 -35 58 -195 314 -354 570 -160 256 -304 488 -320 515 -16
28 -56 91 -87 140 l-57 90 -625 2 -625 2 -270 -435z"/>
</g>
</svg>
