<svg xmlns="http://www.w3.org/2000/svg" width="172.763" height="41.175" viewBox="0 0 172.763 41.175">
    <defs>
        <style>.canadaFlag{fill:#ffffff;}.canadaWord{fill:rgba(255,255,255,0.87);}</style>
    </defs>
    <path class="canadaFlag" d="M261.235.4h6.292V12.924h-6.292ZM250.39,6.692l-.36.12s2.157,1.8,2.157,1.918c.12.12.24.12.12.479l-.24.719s1.917-.36,2.157-.479c.24,0,.36,0,.36.24s-.12,2.277-.12,2.277h.6s-.12-2.157-.12-2.277c0-.24.12-.24.36-.24s2.157.479,2.157.479a4.713,4.713,0,0,0-.24-.719c-.12-.36,0-.36.12-.479S259.5,6.812,259.5,6.812l-.36-.12c-.24-.12-.12-.24-.12-.36s.36-1.318.36-1.318-.959.24-1.079.24-.24,0-.24-.12a3.076,3.076,0,0,0-.24-.6s-1.079,1.2-1.2,1.318c-.24.24-.479,0-.359-.24,0-.24.6-2.756.6-2.756s-.6.36-.839.479-.36.12-.36-.12c-.12-.24-.839-1.558-.839-1.678l-.839,1.678c-.12.24-.24.24-.359.12-.24-.12-.839-.479-.839-.479s.6,2.517.6,2.756-.12.36-.359.24l-1.2-1.318a1.707,1.707,0,0,1-.24.479c0,.12-.12.24-.24.12a10.382,10.382,0,0,1-1.2-.24,9.105,9.105,0,0,0,.479,1.318A.478.478,0,0,1,250.39,6.692ZM242.3.4h6.292V12.924H242.3Z" transform="translate(-97.104 -0.153)"/>
    <path class="canadaWord" d="M171.734,37.926a2.314,2.314,0,0,1-2.037,1.438c-.719,0-2.876-.12-2.876-5.812V21.388c0-3.715-2.876-6.771-10.367-6.771-8.089,0-8.209,3.955-8.209,4.974-.12,1.079.479,2.277,2.517,2.277,1.8,0,2.277-2.037,2.517-2.756.24-.839.36-3.236,3.6-3.236,2.756,0,4.494,2.4,4.614,5.932v1.918h0v.12a2.881,2.881,0,0,1-1.918,2.277c-1.438.719-5.693,1.318-6.172,1.438-1.678.36-6.412,1.558-6.292,6.532.12,4.854,4.974,6.532,8.329,6.412a9.758,9.758,0,0,0,6.052-2.157c.479-.36.479-.36.839.12.479.479,2.037,2.037,5.812,2.037,3.835,0,4.374-1.8,4.614-2.4A.524.524,0,0,0,171.734,37.926Zm-15.1,1.318a4.026,4.026,0,0,1-4.195-4.195c0-1.318.719-4.075,4.075-6.052a31.859,31.859,0,0,1,4.614-2.157h.24a.418.418,0,0,1,.12.24h0v.12h0v.12h0v5.033C161.488,36.308,159.57,39.244,156.634,39.244Zm-11.086-.12c-.479-.12-3.475.24-3.475-8.928V1.373c0-.36,0-1.318-1.079-1.318s-8.329.36-8.809.479c-.479,0-.839.6,0,.6.839.12,4.734.36,4.734,6.771v8.809c0,.24,0,.36-.12.479v.12h0c-.12.12-.24,0-.6-.24a12.32,12.32,0,0,0-6.891-2.157c-5.693,0-12.644,4.075-12.644,12.524,0,9.048,6.412,13.423,13.063,13.423a12.5,12.5,0,0,0,6.412-1.918c.959-.6.839-.479.959.36.12.6,0,1.8,1.678,1.678,1.8-.24,6.172-.719,7.011-.839C146.507,39.724,146.267,39.244,145.548,39.124Zm-14.981.36c-5.333,0-8.089-6.292-8.089-12.284,0-6.651,3.715-11.086,7.73-10.846,5.213.36,6.532,4.494,6.651,11.8v1.558C136.74,36.907,133.744,39.484,130.568,39.484Zm-14.082-1.558a2.314,2.314,0,0,1-2.037,1.438c-.719,0-2.876-.12-2.876-5.812V21.388c0-3.715-2.876-6.771-10.367-6.771-8.09,0-8.209,3.955-8.209,4.974-.12,1.079.479,2.277,2.517,2.277,1.8,0,2.277-2.037,2.517-2.756.24-.839.36-3.236,3.6-3.236,2.756,0,4.614,2.4,4.614,6.052v1.2a3.043,3.043,0,0,1-2.037,3.116c-1.438.719-5.693,1.318-6.172,1.438-1.678.36-6.412,1.558-6.292,6.532.12,4.854,4.974,6.532,8.329,6.412a9.758,9.758,0,0,0,6.052-2.157c.479-.36.479-.36.839.12.479.479,2.037,2.037,5.812,2.037,3.835,0,4.374-1.8,4.614-2.4C117.565,37.626,116.846,37.267,116.486,37.926Zm-14.981,1.318a4.026,4.026,0,0,1-4.195-4.195c0-1.318.719-4.075,4.075-6.052A31.861,31.861,0,0,1,106,26.84h.24v.12h0v5.573C106.179,36.308,104.262,39.244,101.506,39.244Zm-11.625-.12c-.959-.24-2.637-1.318-2.637-6.651V22.826c0-2.277.24-8.209-8.809-8.209a12.234,12.234,0,0,0-7.61,2.517c-.36.36-.6.479-.719-.12-.12-.479-.36-1.2-.479-1.678-.12-.36-.36-.719-1.2-.6s-6.172.959-7.131,1.2c-.839.24-.6.6,0,.719s3.475.36,3.475,5.333V32.353c0,6.052-1.2,6.532-2.277,6.891-1.438.36-.719.839-.12.839H73.342c.719,0,1.079-.719-.36-.959s-2.756-1.079-2.756-5.812V26.661c0-2.517-.6-10.247,6.412-10.367,4.974-.12,5.453,3.955,5.453,6.651V33.192c0,4.195-1.2,5.573-2.637,5.812-1.318.24-1.079.839-.36.839H90.3C90.9,40.083,91.5,39.484,89.881,39.124Zm-29.3-1.2a2.314,2.314,0,0,1-2.037,1.438c-.719,0-2.876-.12-2.876-5.812V21.388c0-3.715-2.876-6.771-10.367-6.771-8.09,0-8.209,3.955-8.209,4.974-.12,1.079.479,2.277,2.517,2.277,1.8,0,2.277-2.037,2.517-2.756.24-.839.36-3.236,3.6-3.236,2.756,0,4.494,2.4,4.614,5.932v1.318a.9.9,0,0,1-.12.6v.12h0a2.881,2.881,0,0,1-1.918,2.277c-1.438.719-5.693,1.318-6.172,1.438-1.678.36-6.412,1.558-6.292,6.532.12,4.854,4.974,6.532,8.329,6.412a9.758,9.758,0,0,0,6.052-2.157c.479-.36.479-.36.839.12.479.479,2.037,2.037,5.812,2.037,3.835,0,4.374-1.8,4.614-2.4C61.657,37.626,60.818,37.267,60.579,37.926Zm-15.1,1.318a4.026,4.026,0,0,1-4.195-4.195c0-1.438.719-4.075,4.075-6.052a31.861,31.861,0,0,1,4.614-2.157h.24a.418.418,0,0,1,.12.24h0v.24h0v.12h0v5.093C50.332,36.308,48.414,39.244,45.478,39.244ZM33.913,28.7c-1.2,3.835-3.475,10.127-11.8,10.367-8.689.12-13.9-5.812-14.142-16.778C7.607,10.6,12.7,1.673,20.491,1.433,29.3,1.314,32.415,11.8,32.535,13.358a.843.843,0,1,0,1.678-.12c0-.6-.719-10.966-.959-12.164s-1.2-.719-1.438-.24c-.06.36.18-.36-.3.719s-1.8.479-2.277.36A18.576,18.576,0,0,0,20.551,0C10.244.235-.242,7.845,0,21.148A19.963,19.963,0,0,0,20.251,41.162c8.809-.12,13.782-5.693,15.22-12.044C35.951,27.5,34.393,27.14,33.913,28.7Z" transform="translate(0.007 0.012)"/>
</svg>