<svg id="DI_Logo" data-name="DI Logo" xmlns="http://www.w3.org/2000/svg" width="40.488" height="62" viewBox="0 0 40.488 62">
  <path id="base_6_" d="M70.495,189.49,66.1,217.435,80.77,225.9l14.662-8.469-4.4-27.944,4.4-5.931L80.77,178.5l-14.613,5.06Z" transform="translate(-60.67 -163.904)" fill="#fff"/>
  <path id="summit_6_" d="M81.413,178.5,66.8,183.56l14.613,5.068,14.662-5.068Z" transform="translate(-61.313 -163.904)" fill="#fff" stroke="#1d1d4d" stroke-width="2"/>
  <path id="light_6_" d="M188.607,120.6a5.5,5.5,0,1,1-5.5-5.5A5.5,5.5,0,0,1,188.607,120.6Z" transform="translate(-163.012 -105.711)" fill="#fff" stroke="#1d1d4d" stroke-width="2"/>
  <path id="cap_6_" d="M81.955,13.614,96.511,8.579S88.642.8,81.955.8,67.4,8.579,67.4,8.579Z" transform="translate(-61.864 -0.8)" fill="#fff"/>
  <g id="beams_7_" transform="translate(0 9.972)">
    <g id="right_6_" transform="translate(27.722 0)">
      <path id="Path_177" data-name="Path 177" d="M0,125.95,11.723,122.2s1.043-.107,1.043,3.77-1.043,3.876-1.043,3.876Z" transform="translate(0 -122.196)" fill="#fff"/>
    </g>
    <g id="left_6_" transform="translate(0 0)">
      <path id="Path_177-2" data-name="Path 177" d="M12.765,125.951,1.043,122.2S0,122.09,0,125.967s1.043,3.877,1.043,3.877Z" transform="translate(0 -122.196)" fill="#fff"/>
    </g>
  </g>
</svg>
