<svg id="Radar_Logo_2021" data-name="Radar Logo 2021" xmlns="http://www.w3.org/2000/svg" viewBox="0 0 331.86 512"><defs><style>.cls-1{fill:#ffffff;}</style></defs><g id="Radar_Logo_2021-2" data-name="Radar Logo 2021"><polygon id="bottom" class="cls-1" points="282.52 168.39 165.94 209.11 49.82 168.38 81.14 211.3 44.81 442.07 165.94 512 287.05 442.07 250.71 211.3 282.52 168.39"/><path id="top" class="cls-1" d="M120.5,123a45.23,45.23,0,0,0,3.31,17L59.33,162.35l106.64,37,107-37-64.92-22.41a45.38,45.38,0,0,0-7.35-46.16l85.37-29.54S221.15,0,165.94,0,45.74,64.24,45.74,64.24l85.39,29.55A45.26,45.26,0,0,0,120.5,123Z"/><path id="right_beam" data-name="right beam" class="cls-1" d="M323.24,82.34,226.49,113.4l96.75,32.13s8.62,0,8.62-32S323.24,82.34,323.24,82.34Z"/><path id="left_beam" data-name="left beam" class="cls-1" d="M0,113.5c0,32,8.62,32,8.62,32l96.75-32.13L8.62,82.34S0,81.48,0,113.5Z"/></g></svg>